M48
;GenerationSoftware,Autodesk,EAGLE,9.2.0*%
;CreationDate,2019-01-22T17:15:06Z*%
FMAT,2
ICI,OFF
METRIC,TZ,000.000
T3C0.350
T2C1.000
T1C1.016
%
G90
M71
T1
X15860Y6228
X50119Y62621
X47579Y62621
X45039Y62621
X42499Y62621
X39959Y62621
X37419Y62621
X32339Y62621
X29799Y62621
X27259Y62621
X23195Y62621
X20655Y62621
X18115Y62621
X15575Y62621
X13035Y62621
X18115Y14361
X10495Y62621
X34879Y62621
X7955Y62621
X5415Y62621
X5415Y14361
X7955Y14361
X10495Y14361
X13035Y14361
X15575Y14361
X40975Y14361
X38435Y14361
X35895Y14361
X33355Y14361
X30815Y14361
X28275Y14361
X25735Y14361
X23195Y14361
X13320Y6228
X5700Y6228
X8240Y6228
X10780Y6228
T2
X29545Y42936
X32085Y42936
X34625Y42936
X39705Y42936
X42245Y42936
X44785Y42936
X47325Y42936
X49865Y42936
X52405Y42936
X54945Y42936
X57485Y42936
X60025Y42936
X60025Y27696
X57485Y27696
X54945Y27696
X52405Y27696
X49865Y27696
X47325Y27696
X44785Y27696
X39705Y27696
X37165Y27696
X34625Y27696
X32085Y27696
X29545Y27696
X27005Y27696
X24465Y27696
X21925Y27696
X19385Y27696
X16845Y27696
X14305Y27696
X11765Y27696
X42245Y27696
X37165Y42936
X11765Y42936
X14305Y42936
X16845Y42936
X19385Y42936
X21925Y42936
X24465Y42936
X27005Y42936
T3
X7066Y41361
X58628Y17475
X41661Y17501
X65029Y18324
X27615Y22647
X30521Y23180
X20655Y55763
X5314Y55077
X34625Y60208
X16845Y51953
X21290Y50683
X5415Y41158
X25176Y12202
X10419Y11364
X42647Y20315
X55469Y6223
X65176Y15875
X58755Y12583
X18750Y46873
X7396Y22451
X7142Y35900
X30434Y20127
X38984Y55057
X2443Y36256
X7777Y37628
X19233Y19515
X6120Y42428
X1425Y41819
X18618Y2078
X67594Y25994
X45979Y4557
X54158Y60284
X64470Y44333
X2443Y43343
X58755Y44968
X3586Y20584
X20655Y46238
X16210Y47578
X64826Y46035
X48240Y22972
X61524Y57109
X19675Y8407
X25278Y2017
X68859Y2855
X61117Y58075
X4145Y49413
X17480Y49413
X33355Y46873
X47960Y46873
X49865Y22108
X39680Y5420
X53076Y8458
X44785Y13853
X5044Y31415
X4582Y24470
X61295Y24013
X23830Y47508
X47325Y48143
X54945Y48778
X62667Y3769
X62514Y30312
M30