G04 EAGLE Gerber RS-274X export*
G75*
%MOMM*%
%FSLAX34Y34*%
%LPD*%
%INSolder side*%
%IPPOS*%
%AMOC8*
5,1,8,0,0,1.08239X$1,22.5*%
G01*
%ADD10C,1.930400*%
%ADD11C,1.524000*%
%ADD12C,0.254000*%
%ADD13C,0.756400*%

G36*
X57012Y243960D02*
X57012Y243960D01*
X57151Y243973D01*
X57170Y243980D01*
X57190Y243982D01*
X57319Y244033D01*
X57450Y244080D01*
X57467Y244092D01*
X57486Y244099D01*
X57598Y244181D01*
X57713Y244259D01*
X57727Y244274D01*
X57743Y244286D01*
X57832Y244393D01*
X57924Y244497D01*
X57933Y244515D01*
X57946Y244531D01*
X58005Y244657D01*
X58068Y244781D01*
X58073Y244800D01*
X58082Y244819D01*
X58108Y244955D01*
X58138Y245091D01*
X58138Y245111D01*
X58141Y245131D01*
X58133Y245269D01*
X58128Y245409D01*
X58123Y245428D01*
X58122Y245448D01*
X58079Y245581D01*
X58040Y245714D01*
X58030Y245732D01*
X58024Y245751D01*
X57949Y245869D01*
X57879Y245988D01*
X57860Y246009D01*
X57853Y246020D01*
X57838Y246034D01*
X57772Y246109D01*
X46634Y257248D01*
X46634Y308490D01*
X46621Y308589D01*
X46618Y308688D01*
X46601Y308746D01*
X46594Y308806D01*
X46557Y308898D01*
X46530Y308993D01*
X46499Y309045D01*
X46477Y309102D01*
X46419Y309182D01*
X46368Y309267D01*
X46302Y309343D01*
X46290Y309359D01*
X46281Y309367D01*
X46262Y309388D01*
X45084Y310566D01*
X44122Y312889D01*
X44122Y315405D01*
X45084Y317729D01*
X46863Y319507D01*
X49187Y320470D01*
X51702Y320470D01*
X52448Y320161D01*
X52496Y320148D01*
X52541Y320127D01*
X52648Y320106D01*
X52755Y320077D01*
X52804Y320076D01*
X52853Y320067D01*
X52963Y320074D01*
X53073Y320072D01*
X53121Y320084D01*
X53170Y320087D01*
X53275Y320120D01*
X53382Y320146D01*
X53426Y320169D01*
X53473Y320185D01*
X53566Y320243D01*
X53663Y320295D01*
X53700Y320328D01*
X53742Y320355D01*
X53817Y320435D01*
X53898Y320509D01*
X53926Y320550D01*
X53960Y320586D01*
X54013Y320683D01*
X54073Y320774D01*
X54089Y320822D01*
X54113Y320865D01*
X54141Y320971D01*
X54176Y321075D01*
X54180Y321125D01*
X54193Y321173D01*
X54203Y321334D01*
X54203Y402797D01*
X63968Y412562D01*
X64029Y412641D01*
X64097Y412713D01*
X64126Y412766D01*
X64163Y412814D01*
X64203Y412905D01*
X64250Y412991D01*
X64265Y413050D01*
X64290Y413105D01*
X64305Y413203D01*
X64330Y413299D01*
X64336Y413399D01*
X64339Y413420D01*
X64338Y413432D01*
X64340Y413460D01*
X64340Y414871D01*
X65102Y416710D01*
X65138Y416844D01*
X65179Y416977D01*
X65180Y416997D01*
X65186Y417017D01*
X65188Y417156D01*
X65195Y417295D01*
X65190Y417315D01*
X65191Y417335D01*
X65158Y417471D01*
X65130Y417606D01*
X65121Y417624D01*
X65117Y417644D01*
X65051Y417768D01*
X64990Y417892D01*
X64977Y417907D01*
X64968Y417925D01*
X64874Y418028D01*
X64784Y418134D01*
X64768Y418146D01*
X64754Y418161D01*
X64638Y418237D01*
X64524Y418317D01*
X64505Y418324D01*
X64488Y418335D01*
X64357Y418381D01*
X64227Y418430D01*
X64207Y418432D01*
X64187Y418439D01*
X64049Y418450D01*
X63911Y418465D01*
X63891Y418462D01*
X63870Y418464D01*
X63733Y418440D01*
X63596Y418421D01*
X63569Y418411D01*
X63557Y418409D01*
X63538Y418401D01*
X63443Y418369D01*
X62454Y417959D01*
X59939Y417959D01*
X57615Y418921D01*
X55837Y420700D01*
X54874Y423024D01*
X54874Y425539D01*
X55837Y427863D01*
X56828Y428855D01*
X56889Y428933D01*
X56957Y429005D01*
X56986Y429058D01*
X57023Y429106D01*
X57063Y429197D01*
X57110Y429284D01*
X57125Y429342D01*
X57150Y429398D01*
X57165Y429496D01*
X57190Y429592D01*
X57196Y429692D01*
X57199Y429712D01*
X57198Y429724D01*
X57200Y429752D01*
X57200Y453800D01*
X69592Y466192D01*
X160887Y466192D01*
X166865Y460214D01*
X166944Y460153D01*
X167016Y460086D01*
X167069Y460056D01*
X167117Y460019D01*
X167208Y459980D01*
X167294Y459932D01*
X167353Y459917D01*
X167409Y459893D01*
X167507Y459877D01*
X167602Y459853D01*
X167702Y459846D01*
X167723Y459843D01*
X167735Y459844D01*
X167763Y459842D01*
X198961Y459842D01*
X199079Y459857D01*
X199198Y459865D01*
X199236Y459877D01*
X199276Y459882D01*
X199387Y459926D01*
X199500Y459963D01*
X199534Y459984D01*
X199572Y459999D01*
X199668Y460069D01*
X199769Y460133D01*
X199797Y460162D01*
X199829Y460186D01*
X199905Y460278D01*
X199987Y460364D01*
X200006Y460400D01*
X200032Y460431D01*
X200083Y460539D01*
X200140Y460643D01*
X200150Y460682D01*
X200168Y460719D01*
X200190Y460836D01*
X200220Y460951D01*
X200224Y461011D01*
X200227Y461031D01*
X200226Y461051D01*
X200230Y461112D01*
X200230Y463639D01*
X201193Y465963D01*
X202971Y467742D01*
X205295Y468704D01*
X207810Y468704D01*
X210134Y467742D01*
X211913Y465963D01*
X212125Y465452D01*
X212139Y465426D01*
X212148Y465398D01*
X212218Y465288D01*
X212282Y465176D01*
X212303Y465154D01*
X212319Y465129D01*
X212413Y465040D01*
X212504Y464947D01*
X212529Y464932D01*
X212550Y464912D01*
X212664Y464849D01*
X212775Y464781D01*
X212803Y464772D01*
X212829Y464758D01*
X212954Y464726D01*
X213079Y464687D01*
X213108Y464686D01*
X213137Y464679D01*
X213297Y464668D01*
X326493Y464668D01*
X326542Y464675D01*
X326592Y464672D01*
X326699Y464694D01*
X326808Y464708D01*
X326854Y464726D01*
X326903Y464737D01*
X327002Y464785D01*
X327104Y464825D01*
X327144Y464854D01*
X327189Y464876D01*
X327272Y464947D01*
X327361Y465012D01*
X327393Y465050D01*
X327431Y465083D01*
X327494Y465172D01*
X327564Y465257D01*
X327585Y465302D01*
X327614Y465343D01*
X327653Y465445D01*
X327700Y465545D01*
X327709Y465593D01*
X327726Y465640D01*
X327739Y465749D01*
X327759Y465857D01*
X327756Y465907D01*
X327762Y465956D01*
X327746Y466065D01*
X327740Y466174D01*
X327724Y466222D01*
X327717Y466271D01*
X327665Y466423D01*
X327230Y467474D01*
X327230Y470002D01*
X327215Y470120D01*
X327208Y470239D01*
X327195Y470277D01*
X327190Y470317D01*
X327146Y470428D01*
X327110Y470541D01*
X327088Y470575D01*
X327073Y470613D01*
X327003Y470709D01*
X326940Y470810D01*
X326910Y470837D01*
X326886Y470870D01*
X326795Y470946D01*
X326708Y471028D01*
X326673Y471047D01*
X326641Y471073D01*
X326534Y471124D01*
X326429Y471181D01*
X326390Y471191D01*
X326354Y471209D01*
X326237Y471231D01*
X326121Y471261D01*
X326061Y471264D01*
X326041Y471268D01*
X326021Y471267D01*
X325961Y471271D01*
X243959Y471271D01*
X243861Y471258D01*
X243762Y471255D01*
X243704Y471239D01*
X243644Y471231D01*
X243552Y471195D01*
X243457Y471167D01*
X243405Y471136D01*
X243348Y471114D01*
X243268Y471056D01*
X243183Y471006D01*
X243107Y470939D01*
X243091Y470927D01*
X243083Y470918D01*
X243062Y470899D01*
X241884Y469721D01*
X239560Y468759D01*
X237045Y468759D01*
X234721Y469721D01*
X232943Y471500D01*
X231980Y473824D01*
X231980Y476339D01*
X232941Y478660D01*
X232954Y478708D01*
X232976Y478753D01*
X232996Y478861D01*
X233025Y478967D01*
X233026Y479016D01*
X233035Y479065D01*
X233029Y479175D01*
X233030Y479285D01*
X233019Y479333D01*
X233016Y479383D01*
X232982Y479487D01*
X232956Y479594D01*
X232933Y479638D01*
X232918Y479685D01*
X232859Y479778D01*
X232807Y479875D01*
X232774Y479912D01*
X232747Y479954D01*
X232667Y480029D01*
X232594Y480110D01*
X232552Y480138D01*
X232516Y480172D01*
X232420Y480225D01*
X232328Y480285D01*
X232281Y480301D01*
X232237Y480325D01*
X232131Y480353D01*
X232027Y480388D01*
X231977Y480392D01*
X231929Y480405D01*
X231769Y480415D01*
X212467Y480415D01*
X212369Y480402D01*
X212270Y480399D01*
X212212Y480383D01*
X212151Y480375D01*
X212059Y480339D01*
X211964Y480311D01*
X211912Y480280D01*
X211856Y480258D01*
X211776Y480200D01*
X211690Y480150D01*
X211615Y480083D01*
X211598Y480071D01*
X211591Y480062D01*
X211569Y480043D01*
X196447Y464921D01*
X193159Y464921D01*
X193061Y464908D01*
X192962Y464905D01*
X192904Y464889D01*
X192844Y464881D01*
X192752Y464845D01*
X192657Y464817D01*
X192605Y464786D01*
X192548Y464764D01*
X192468Y464706D01*
X192383Y464656D01*
X192307Y464589D01*
X192291Y464577D01*
X192283Y464568D01*
X192262Y464549D01*
X191084Y463371D01*
X188760Y462409D01*
X186245Y462409D01*
X183921Y463371D01*
X182143Y465150D01*
X181180Y467474D01*
X181180Y469989D01*
X182143Y472313D01*
X183921Y474092D01*
X186245Y475054D01*
X188760Y475054D01*
X191084Y474092D01*
X192065Y473112D01*
X192158Y473039D01*
X192248Y472960D01*
X192284Y472941D01*
X192316Y472917D01*
X192425Y472869D01*
X192531Y472815D01*
X192571Y472806D01*
X192608Y472790D01*
X192725Y472772D01*
X192841Y472746D01*
X192882Y472747D01*
X192922Y472740D01*
X193040Y472752D01*
X193159Y472755D01*
X193198Y472766D01*
X193238Y472770D01*
X193351Y472811D01*
X193465Y472844D01*
X193500Y472864D01*
X193538Y472878D01*
X193636Y472945D01*
X193739Y473005D01*
X193784Y473045D01*
X193801Y473056D01*
X193814Y473072D01*
X193860Y473112D01*
X208784Y488036D01*
X336833Y488036D01*
X336932Y488049D01*
X337031Y488052D01*
X337089Y488069D01*
X337149Y488076D01*
X337241Y488113D01*
X337336Y488140D01*
X337388Y488171D01*
X337445Y488193D01*
X337525Y488251D01*
X337610Y488302D01*
X337685Y488368D01*
X337702Y488380D01*
X337710Y488389D01*
X337731Y488408D01*
X348319Y498996D01*
X348379Y499074D01*
X348447Y499146D01*
X348476Y499199D01*
X348514Y499247D01*
X348553Y499338D01*
X348601Y499425D01*
X348616Y499483D01*
X348640Y499539D01*
X348656Y499637D01*
X348680Y499733D01*
X348687Y499833D01*
X348690Y499853D01*
X348689Y499865D01*
X348690Y499893D01*
X348690Y514811D01*
X383145Y549265D01*
X383205Y549343D01*
X383273Y549415D01*
X383302Y549468D01*
X383340Y549516D01*
X383379Y549607D01*
X383427Y549694D01*
X383442Y549753D01*
X383466Y549808D01*
X383482Y549906D01*
X383506Y550002D01*
X383513Y550102D01*
X383516Y550122D01*
X383515Y550135D01*
X383516Y550163D01*
X383516Y551828D01*
X384479Y554152D01*
X386258Y555931D01*
X388581Y556893D01*
X391097Y556893D01*
X393421Y555931D01*
X395199Y554152D01*
X396162Y551828D01*
X396162Y549313D01*
X395199Y546989D01*
X393421Y545210D01*
X391097Y544248D01*
X389431Y544248D01*
X389333Y544235D01*
X389234Y544232D01*
X389176Y544215D01*
X389116Y544208D01*
X389024Y544171D01*
X388929Y544144D01*
X388876Y544113D01*
X388820Y544091D01*
X388740Y544033D01*
X388655Y543982D01*
X388579Y543916D01*
X388563Y543904D01*
X388555Y543895D01*
X388534Y543876D01*
X356684Y512026D01*
X356623Y511947D01*
X356555Y511875D01*
X356529Y511829D01*
X356510Y511805D01*
X356506Y511796D01*
X356489Y511774D01*
X356449Y511683D01*
X356402Y511597D01*
X356389Y511549D01*
X356374Y511517D01*
X356372Y511504D01*
X356362Y511483D01*
X356347Y511385D01*
X356322Y511289D01*
X356318Y511223D01*
X356314Y511205D01*
X356316Y511188D01*
X356313Y511168D01*
X356314Y511156D01*
X356312Y511128D01*
X356312Y496211D01*
X353708Y493607D01*
X341160Y481059D01*
X341075Y480949D01*
X340986Y480842D01*
X340978Y480824D01*
X340965Y480808D01*
X340910Y480680D01*
X340851Y480554D01*
X340847Y480535D01*
X340839Y480516D01*
X340817Y480378D01*
X340791Y480242D01*
X340792Y480222D01*
X340789Y480202D01*
X340802Y480063D01*
X340811Y479925D01*
X340817Y479905D01*
X340819Y479885D01*
X340866Y479754D01*
X340909Y479622D01*
X340920Y479605D01*
X340926Y479586D01*
X341005Y479471D01*
X341079Y479353D01*
X341094Y479340D01*
X341105Y479323D01*
X341209Y479231D01*
X341311Y479136D01*
X341328Y479126D01*
X341344Y479112D01*
X341467Y479049D01*
X341589Y478982D01*
X341609Y478977D01*
X341627Y478968D01*
X341763Y478937D01*
X341897Y478903D01*
X341925Y478901D01*
X341937Y478898D01*
X341958Y478899D01*
X342058Y478892D01*
X464799Y478892D01*
X464897Y478905D01*
X464996Y478908D01*
X465054Y478925D01*
X465114Y478932D01*
X465206Y478969D01*
X465301Y478996D01*
X465354Y479027D01*
X465410Y479049D01*
X465490Y479107D01*
X465575Y479158D01*
X465651Y479224D01*
X465667Y479236D01*
X465675Y479245D01*
X465696Y479264D01*
X466558Y480126D01*
X466619Y480205D01*
X466687Y480277D01*
X466716Y480330D01*
X466753Y480378D01*
X466793Y480469D01*
X466840Y480555D01*
X466855Y480614D01*
X466880Y480669D01*
X466895Y480767D01*
X466920Y480863D01*
X466926Y480963D01*
X466929Y480983D01*
X466928Y480996D01*
X466930Y481024D01*
X466930Y482689D01*
X467893Y485013D01*
X469671Y486792D01*
X471995Y487754D01*
X474510Y487754D01*
X476834Y486792D01*
X478613Y485013D01*
X479576Y482689D01*
X479576Y480174D01*
X478613Y477850D01*
X477984Y477221D01*
X477899Y477112D01*
X477810Y477004D01*
X477801Y476986D01*
X477789Y476970D01*
X477734Y476842D01*
X477675Y476716D01*
X477671Y476697D01*
X477663Y476678D01*
X477641Y476540D01*
X477615Y476404D01*
X477616Y476384D01*
X477613Y476364D01*
X477626Y476224D01*
X477634Y476087D01*
X477641Y476067D01*
X477643Y476047D01*
X477690Y475916D01*
X477733Y475784D01*
X477743Y475767D01*
X477750Y475748D01*
X477828Y475633D01*
X477903Y475515D01*
X477917Y475502D01*
X477929Y475485D01*
X478033Y475393D01*
X478134Y475298D01*
X478152Y475288D01*
X478167Y475274D01*
X478291Y475211D01*
X478413Y475144D01*
X478432Y475139D01*
X478450Y475130D01*
X478586Y475099D01*
X478721Y475065D01*
X478749Y475063D01*
X478761Y475060D01*
X478781Y475061D01*
X478881Y475054D01*
X480860Y475054D01*
X483184Y474092D01*
X484963Y472313D01*
X485926Y469989D01*
X485926Y467474D01*
X484963Y465150D01*
X483184Y463371D01*
X480860Y462409D01*
X478345Y462409D01*
X476021Y463371D01*
X474844Y464549D01*
X474765Y464610D01*
X474693Y464678D01*
X474640Y464707D01*
X474592Y464744D01*
X474501Y464783D01*
X474415Y464831D01*
X474356Y464846D01*
X474300Y464870D01*
X474202Y464886D01*
X474107Y464911D01*
X474007Y464917D01*
X473986Y464920D01*
X473974Y464919D01*
X473946Y464921D01*
X453767Y464921D01*
X453629Y464903D01*
X453491Y464890D01*
X453472Y464884D01*
X453451Y464881D01*
X453322Y464830D01*
X453191Y464783D01*
X453175Y464771D01*
X453156Y464764D01*
X453043Y464682D01*
X452928Y464604D01*
X452915Y464589D01*
X452898Y464577D01*
X452810Y464470D01*
X452718Y464366D01*
X452708Y464348D01*
X452696Y464332D01*
X452636Y464206D01*
X452573Y464083D01*
X452569Y464063D01*
X452560Y464044D01*
X452534Y463908D01*
X452503Y463772D01*
X452504Y463752D01*
X452500Y463732D01*
X452509Y463594D01*
X452513Y463454D01*
X452519Y463435D01*
X452520Y463415D01*
X452563Y463283D01*
X452601Y463149D01*
X452612Y463131D01*
X452618Y463112D01*
X452692Y462995D01*
X452763Y462875D01*
X452782Y462854D01*
X452788Y462843D01*
X452803Y462829D01*
X452869Y462754D01*
X453559Y462065D01*
X453559Y462064D01*
X473697Y441926D01*
X473776Y441865D01*
X473848Y441798D01*
X473901Y441768D01*
X473949Y441731D01*
X474040Y441692D01*
X474126Y441644D01*
X474185Y441629D01*
X474241Y441605D01*
X474339Y441589D01*
X474434Y441565D01*
X474534Y441558D01*
X474555Y441555D01*
X474567Y441556D01*
X474595Y441554D01*
X475678Y441554D01*
X480159Y439698D01*
X483589Y436268D01*
X484780Y433393D01*
X484849Y433273D01*
X484914Y433150D01*
X484928Y433135D01*
X484938Y433117D01*
X485034Y433017D01*
X485128Y432914D01*
X485145Y432903D01*
X485159Y432889D01*
X485277Y432816D01*
X485394Y432739D01*
X485413Y432733D01*
X485430Y432722D01*
X485563Y432681D01*
X485694Y432636D01*
X485715Y432635D01*
X485734Y432629D01*
X485872Y432622D01*
X486011Y432611D01*
X486032Y432615D01*
X486052Y432614D01*
X486187Y432642D01*
X486325Y432665D01*
X486343Y432674D01*
X486363Y432678D01*
X486488Y432739D01*
X486615Y432796D01*
X486631Y432809D01*
X486649Y432818D01*
X486755Y432908D01*
X486863Y432995D01*
X486875Y433011D01*
X486891Y433024D01*
X486971Y433138D01*
X487054Y433249D01*
X487067Y433274D01*
X487074Y433284D01*
X487081Y433303D01*
X487125Y433393D01*
X488316Y436268D01*
X491746Y439698D01*
X496227Y441554D01*
X501078Y441554D01*
X505559Y439698D01*
X508989Y436268D01*
X510180Y433393D01*
X510249Y433273D01*
X510314Y433150D01*
X510328Y433135D01*
X510338Y433117D01*
X510434Y433017D01*
X510528Y432914D01*
X510545Y432903D01*
X510559Y432889D01*
X510677Y432816D01*
X510794Y432739D01*
X510813Y432733D01*
X510830Y432722D01*
X510963Y432681D01*
X511094Y432636D01*
X511115Y432635D01*
X511134Y432629D01*
X511272Y432622D01*
X511411Y432611D01*
X511432Y432615D01*
X511452Y432614D01*
X511587Y432642D01*
X511725Y432665D01*
X511743Y432674D01*
X511763Y432678D01*
X511888Y432739D01*
X512015Y432796D01*
X512031Y432809D01*
X512049Y432818D01*
X512155Y432908D01*
X512263Y432995D01*
X512275Y433011D01*
X512291Y433024D01*
X512371Y433138D01*
X512454Y433249D01*
X512467Y433274D01*
X512474Y433284D01*
X512481Y433303D01*
X512525Y433393D01*
X513716Y436268D01*
X517146Y439698D01*
X519459Y440656D01*
X519484Y440671D01*
X519512Y440680D01*
X519622Y440749D01*
X519735Y440813D01*
X519756Y440834D01*
X519781Y440850D01*
X519870Y440944D01*
X519963Y441035D01*
X519979Y441060D01*
X519999Y441081D01*
X520061Y441195D01*
X520129Y441306D01*
X520138Y441334D01*
X520152Y441360D01*
X520185Y441486D01*
X520223Y441610D01*
X520224Y441639D01*
X520232Y441668D01*
X520242Y441829D01*
X520242Y448847D01*
X520230Y448946D01*
X520227Y449045D01*
X520210Y449103D01*
X520202Y449163D01*
X520166Y449255D01*
X520138Y449350D01*
X520107Y449402D01*
X520085Y449459D01*
X520027Y449539D01*
X519977Y449624D01*
X519910Y449699D01*
X519898Y449716D01*
X519889Y449724D01*
X519870Y449745D01*
X354914Y614702D01*
X354890Y614720D01*
X354871Y614742D01*
X354765Y614817D01*
X354662Y614896D01*
X354635Y614908D01*
X354611Y614925D01*
X354490Y614971D01*
X354371Y615023D01*
X354341Y615027D01*
X354314Y615038D01*
X354185Y615052D01*
X354056Y615073D01*
X354027Y615070D01*
X353998Y615073D01*
X353869Y615055D01*
X353740Y615043D01*
X353712Y615033D01*
X353683Y615029D01*
X353530Y614977D01*
X351218Y614019D01*
X346367Y614019D01*
X341886Y615875D01*
X338456Y619305D01*
X337265Y622180D01*
X337197Y622301D01*
X337132Y622424D01*
X337118Y622439D01*
X337108Y622456D01*
X337011Y622556D01*
X336918Y622659D01*
X336901Y622670D01*
X336887Y622685D01*
X336768Y622758D01*
X336652Y622834D01*
X336633Y622840D01*
X336615Y622851D01*
X336483Y622892D01*
X336351Y622937D01*
X336331Y622939D01*
X336312Y622945D01*
X336173Y622951D01*
X336034Y622962D01*
X336014Y622959D01*
X335994Y622960D01*
X335858Y622932D01*
X335721Y622908D01*
X335702Y622899D01*
X335682Y622895D01*
X335557Y622834D01*
X335431Y622777D01*
X335415Y622765D01*
X335397Y622756D01*
X335291Y622665D01*
X335182Y622579D01*
X335170Y622562D01*
X335155Y622549D01*
X335074Y622435D01*
X334991Y622325D01*
X334979Y622299D01*
X334972Y622289D01*
X334964Y622270D01*
X334920Y622180D01*
X333729Y619305D01*
X330299Y615875D01*
X325818Y614019D01*
X320967Y614019D01*
X316486Y615875D01*
X313056Y619305D01*
X311865Y622180D01*
X311797Y622301D01*
X311732Y622424D01*
X311718Y622439D01*
X311708Y622456D01*
X311611Y622556D01*
X311518Y622659D01*
X311501Y622670D01*
X311487Y622685D01*
X311368Y622758D01*
X311252Y622834D01*
X311233Y622840D01*
X311215Y622851D01*
X311083Y622892D01*
X310951Y622937D01*
X310931Y622939D01*
X310912Y622945D01*
X310773Y622951D01*
X310634Y622962D01*
X310614Y622959D01*
X310594Y622960D01*
X310458Y622932D01*
X310321Y622908D01*
X310302Y622899D01*
X310282Y622895D01*
X310157Y622834D01*
X310031Y622777D01*
X310015Y622765D01*
X309997Y622756D01*
X309891Y622665D01*
X309782Y622579D01*
X309770Y622562D01*
X309755Y622549D01*
X309674Y622435D01*
X309591Y622325D01*
X309579Y622299D01*
X309572Y622289D01*
X309564Y622270D01*
X309520Y622180D01*
X308329Y619305D01*
X304899Y615875D01*
X300418Y614019D01*
X295567Y614019D01*
X291086Y615875D01*
X287656Y619305D01*
X286465Y622180D01*
X286397Y622301D01*
X286332Y622424D01*
X286318Y622439D01*
X286308Y622456D01*
X286211Y622556D01*
X286118Y622659D01*
X286101Y622670D01*
X286087Y622685D01*
X285968Y622758D01*
X285852Y622834D01*
X285833Y622840D01*
X285815Y622851D01*
X285683Y622892D01*
X285551Y622937D01*
X285531Y622939D01*
X285512Y622945D01*
X285373Y622951D01*
X285234Y622962D01*
X285214Y622959D01*
X285194Y622960D01*
X285058Y622932D01*
X284921Y622908D01*
X284902Y622899D01*
X284882Y622895D01*
X284757Y622834D01*
X284631Y622777D01*
X284615Y622765D01*
X284597Y622756D01*
X284491Y622665D01*
X284382Y622579D01*
X284370Y622562D01*
X284355Y622549D01*
X284274Y622435D01*
X284191Y622325D01*
X284179Y622299D01*
X284172Y622289D01*
X284164Y622270D01*
X284120Y622180D01*
X282929Y619305D01*
X279499Y615875D01*
X275018Y614019D01*
X270167Y614019D01*
X265686Y615875D01*
X262256Y619305D01*
X260400Y623786D01*
X260400Y628637D01*
X262256Y633118D01*
X265686Y636548D01*
X270167Y638404D01*
X275018Y638404D01*
X279499Y636548D01*
X282929Y633118D01*
X284120Y630243D01*
X284189Y630123D01*
X284254Y630000D01*
X284268Y629985D01*
X284278Y629967D01*
X284374Y629867D01*
X284468Y629764D01*
X284485Y629753D01*
X284499Y629739D01*
X284617Y629666D01*
X284734Y629589D01*
X284753Y629583D01*
X284770Y629572D01*
X284903Y629531D01*
X285034Y629486D01*
X285055Y629485D01*
X285074Y629479D01*
X285213Y629472D01*
X285351Y629461D01*
X285371Y629464D01*
X285392Y629463D01*
X285528Y629492D01*
X285665Y629515D01*
X285683Y629524D01*
X285703Y629528D01*
X285828Y629589D01*
X285955Y629646D01*
X285971Y629659D01*
X285989Y629668D01*
X286095Y629758D01*
X286203Y629845D01*
X286215Y629861D01*
X286231Y629874D01*
X286311Y629987D01*
X286394Y630099D01*
X286407Y630124D01*
X286414Y630134D01*
X286421Y630153D01*
X286465Y630243D01*
X287656Y633118D01*
X291086Y636548D01*
X295567Y638404D01*
X300418Y638404D01*
X302730Y637447D01*
X302759Y637439D01*
X302785Y637425D01*
X302912Y637397D01*
X303037Y637363D01*
X303067Y637362D01*
X303095Y637356D01*
X303225Y637360D01*
X303355Y637358D01*
X303384Y637364D01*
X303413Y637365D01*
X303538Y637401D01*
X303664Y637432D01*
X303691Y637446D01*
X303719Y637454D01*
X303831Y637520D01*
X303946Y637580D01*
X303967Y637600D01*
X303993Y637615D01*
X304114Y637722D01*
X312670Y646278D01*
X526139Y646278D01*
X528743Y643674D01*
X685588Y486829D01*
X685698Y486744D01*
X685805Y486655D01*
X685824Y486647D01*
X685840Y486634D01*
X685968Y486579D01*
X686093Y486520D01*
X686113Y486516D01*
X686131Y486508D01*
X686269Y486486D01*
X686405Y486460D01*
X686425Y486461D01*
X686446Y486458D01*
X686585Y486471D01*
X686723Y486480D01*
X686742Y486486D01*
X686762Y486488D01*
X686893Y486535D01*
X687025Y486578D01*
X687042Y486589D01*
X687061Y486596D01*
X687176Y486674D01*
X687294Y486748D01*
X687308Y486763D01*
X687325Y486774D01*
X687416Y486878D01*
X687512Y486980D01*
X687522Y486997D01*
X687535Y487013D01*
X687598Y487136D01*
X687665Y487258D01*
X687670Y487278D01*
X687680Y487296D01*
X687710Y487432D01*
X687745Y487566D01*
X687747Y487594D01*
X687749Y487606D01*
X687749Y487627D01*
X687755Y487727D01*
X687755Y553368D01*
X687743Y553467D01*
X687740Y553566D01*
X687723Y553624D01*
X687715Y553684D01*
X687679Y553776D01*
X687651Y553871D01*
X687620Y553923D01*
X687598Y553980D01*
X687540Y554060D01*
X687490Y554145D01*
X687423Y554220D01*
X687411Y554237D01*
X687402Y554245D01*
X687383Y554266D01*
X674738Y566911D01*
X674660Y566972D01*
X674588Y567040D01*
X674535Y567069D01*
X674487Y567106D01*
X674396Y567145D01*
X674309Y567193D01*
X674251Y567208D01*
X674195Y567232D01*
X674097Y567248D01*
X674001Y567273D01*
X673901Y567279D01*
X673881Y567282D01*
X673869Y567281D01*
X673841Y567283D01*
X620895Y567283D01*
X620797Y567270D01*
X620698Y567267D01*
X620640Y567251D01*
X620580Y567243D01*
X620488Y567207D01*
X620393Y567179D01*
X620341Y567148D01*
X620284Y567126D01*
X620204Y567068D01*
X620119Y567018D01*
X620043Y566951D01*
X620027Y566939D01*
X620019Y566930D01*
X619998Y566911D01*
X618820Y565733D01*
X616496Y564771D01*
X613981Y564771D01*
X611657Y565733D01*
X609879Y567512D01*
X608916Y569836D01*
X608916Y572351D01*
X609309Y573301D01*
X609341Y573416D01*
X609379Y573528D01*
X609383Y573569D01*
X609393Y573608D01*
X609395Y573727D01*
X609405Y573845D01*
X609398Y573885D01*
X609398Y573926D01*
X609371Y574041D01*
X609350Y574159D01*
X609334Y574195D01*
X609324Y574235D01*
X609269Y574340D01*
X609220Y574449D01*
X609194Y574480D01*
X609175Y574516D01*
X609096Y574604D01*
X609021Y574697D01*
X608989Y574721D01*
X608962Y574751D01*
X608862Y574817D01*
X608767Y574888D01*
X608713Y574915D01*
X608696Y574926D01*
X608677Y574933D01*
X608622Y574959D01*
X607593Y575385D01*
X605815Y577164D01*
X604852Y579488D01*
X604852Y582003D01*
X605815Y584327D01*
X607593Y586106D01*
X609917Y587068D01*
X612432Y587068D01*
X614756Y586106D01*
X615934Y584928D01*
X616012Y584867D01*
X616084Y584800D01*
X616137Y584770D01*
X616185Y584733D01*
X616276Y584694D01*
X616363Y584646D01*
X616421Y584631D01*
X616477Y584607D01*
X616575Y584591D01*
X616671Y584567D01*
X616771Y584560D01*
X616791Y584557D01*
X616803Y584558D01*
X616831Y584556D01*
X682349Y584556D01*
X700773Y566132D01*
X700774Y566132D01*
X701768Y565137D01*
X701877Y565053D01*
X701985Y564964D01*
X702003Y564955D01*
X702019Y564942D01*
X702147Y564887D01*
X702273Y564828D01*
X702293Y564824D01*
X702311Y564816D01*
X702449Y564794D01*
X702585Y564768D01*
X702605Y564769D01*
X702625Y564766D01*
X702764Y564779D01*
X702903Y564788D01*
X702922Y564794D01*
X702942Y564796D01*
X703073Y564843D01*
X703205Y564886D01*
X703222Y564897D01*
X703241Y564904D01*
X703356Y564982D01*
X703474Y565056D01*
X703488Y565071D01*
X703504Y565082D01*
X703596Y565186D01*
X703692Y565288D01*
X703701Y565306D01*
X703715Y565321D01*
X703778Y565444D01*
X703845Y565566D01*
X703850Y565586D01*
X703859Y565604D01*
X703890Y565740D01*
X703925Y565874D01*
X703926Y565902D01*
X703929Y565914D01*
X703929Y565935D01*
X703935Y566035D01*
X703935Y663968D01*
X703920Y664085D01*
X703913Y664202D01*
X703900Y664242D01*
X703895Y664284D01*
X703852Y664393D01*
X703816Y664505D01*
X703793Y664541D01*
X703778Y664579D01*
X703709Y664675D01*
X703646Y664774D01*
X703616Y664803D01*
X703591Y664837D01*
X703501Y664912D01*
X703415Y664993D01*
X703378Y665013D01*
X703346Y665040D01*
X703240Y665090D01*
X703137Y665147D01*
X703096Y665157D01*
X703058Y665175D01*
X702943Y665197D01*
X702829Y665227D01*
X702766Y665231D01*
X702746Y665235D01*
X702726Y665234D01*
X702668Y665237D01*
X7928Y666775D01*
X7808Y666760D01*
X7688Y666753D01*
X7651Y666741D01*
X7612Y666736D01*
X7500Y666692D01*
X7385Y666655D01*
X7352Y666634D01*
X7316Y666620D01*
X7218Y666549D01*
X7117Y666485D01*
X7090Y666456D01*
X7058Y666433D01*
X6981Y666341D01*
X6899Y666253D01*
X6880Y666219D01*
X6855Y666189D01*
X6803Y666080D01*
X6745Y665974D01*
X6736Y665937D01*
X6719Y665901D01*
X6696Y665783D01*
X6666Y665667D01*
X6662Y665609D01*
X6658Y665589D01*
X6660Y665569D01*
X6656Y665506D01*
X6656Y422600D01*
X6673Y422463D01*
X6686Y422324D01*
X6693Y422305D01*
X6695Y422285D01*
X6746Y422156D01*
X6794Y422025D01*
X6805Y422008D01*
X6812Y421989D01*
X6894Y421877D01*
X6972Y421761D01*
X6987Y421748D01*
X6999Y421732D01*
X7107Y421643D01*
X7211Y421551D01*
X7229Y421542D01*
X7244Y421529D01*
X7370Y421470D01*
X7494Y421406D01*
X7514Y421402D01*
X7532Y421393D01*
X7668Y421367D01*
X7804Y421337D01*
X7824Y421337D01*
X7844Y421334D01*
X7983Y421342D01*
X8122Y421346D01*
X8142Y421352D01*
X8162Y421353D01*
X8294Y421396D01*
X8428Y421435D01*
X8445Y421445D01*
X8464Y421451D01*
X8582Y421526D01*
X8701Y421596D01*
X8722Y421615D01*
X8733Y421622D01*
X8747Y421637D01*
X8822Y421703D01*
X10665Y423546D01*
X12989Y424508D01*
X15504Y424508D01*
X17828Y423546D01*
X18457Y422917D01*
X18567Y422832D01*
X18674Y422743D01*
X18693Y422734D01*
X18709Y422722D01*
X18837Y422666D01*
X18962Y422607D01*
X18982Y422604D01*
X19000Y422595D01*
X19138Y422574D01*
X19274Y422548D01*
X19294Y422549D01*
X19315Y422546D01*
X19454Y422559D01*
X19592Y422567D01*
X19611Y422574D01*
X19631Y422575D01*
X19762Y422623D01*
X19894Y422665D01*
X19911Y422676D01*
X19930Y422683D01*
X20045Y422761D01*
X20163Y422835D01*
X20177Y422850D01*
X20194Y422862D01*
X20285Y422966D01*
X20381Y423067D01*
X20391Y423085D01*
X20404Y423100D01*
X20467Y423224D01*
X20534Y423346D01*
X20539Y423365D01*
X20549Y423383D01*
X20579Y423519D01*
X20614Y423654D01*
X20616Y423682D01*
X20618Y423694D01*
X20618Y423714D01*
X20624Y423814D01*
X20624Y427769D01*
X20612Y427867D01*
X20609Y427966D01*
X20592Y428024D01*
X20584Y428084D01*
X20548Y428177D01*
X20520Y428272D01*
X20489Y428324D01*
X20467Y428380D01*
X20409Y428460D01*
X20359Y428546D01*
X20292Y428621D01*
X20280Y428637D01*
X20271Y428645D01*
X20252Y428666D01*
X19075Y429844D01*
X18112Y432168D01*
X18112Y434683D01*
X19075Y437007D01*
X20853Y438786D01*
X23177Y439748D01*
X25692Y439748D01*
X28016Y438786D01*
X29887Y436915D01*
X29997Y436829D01*
X30104Y436741D01*
X30123Y436732D01*
X30139Y436720D01*
X30267Y436664D01*
X30392Y436605D01*
X30412Y436602D01*
X30430Y436593D01*
X30568Y436572D01*
X30704Y436546D01*
X30724Y436547D01*
X30745Y436544D01*
X30884Y436557D01*
X31022Y436565D01*
X31041Y436572D01*
X31061Y436573D01*
X31192Y436621D01*
X31324Y436663D01*
X31341Y436674D01*
X31360Y436681D01*
X31475Y436759D01*
X31593Y436833D01*
X31607Y436848D01*
X31624Y436860D01*
X31716Y436964D01*
X31811Y437065D01*
X31821Y437083D01*
X31834Y437098D01*
X31897Y437222D01*
X31964Y437344D01*
X31969Y437363D01*
X31979Y437381D01*
X32009Y437517D01*
X32044Y437652D01*
X32046Y437680D01*
X32048Y437692D01*
X32048Y437712D01*
X32054Y437812D01*
X32054Y452022D01*
X59618Y479586D01*
X156446Y479586D01*
X156544Y479599D01*
X156643Y479602D01*
X156702Y479619D01*
X156762Y479626D01*
X156854Y479663D01*
X156949Y479690D01*
X157001Y479721D01*
X157057Y479743D01*
X157137Y479801D01*
X157223Y479852D01*
X157298Y479918D01*
X157315Y479930D01*
X157322Y479939D01*
X157344Y479958D01*
X158521Y481136D01*
X160845Y482098D01*
X163360Y482098D01*
X165684Y481136D01*
X167463Y479357D01*
X168426Y477033D01*
X168426Y474518D01*
X167463Y472194D01*
X165684Y470415D01*
X163360Y469453D01*
X160845Y469453D01*
X158521Y470415D01*
X157344Y471593D01*
X157265Y471654D01*
X157193Y471722D01*
X157140Y471751D01*
X157092Y471788D01*
X157001Y471827D01*
X156915Y471875D01*
X156856Y471890D01*
X156800Y471914D01*
X156702Y471930D01*
X156607Y471955D01*
X156507Y471961D01*
X156486Y471964D01*
X156474Y471963D01*
X156446Y471965D01*
X63301Y471965D01*
X63203Y471952D01*
X63104Y471949D01*
X63046Y471933D01*
X62985Y471925D01*
X62893Y471889D01*
X62798Y471861D01*
X62746Y471830D01*
X62690Y471808D01*
X62610Y471750D01*
X62524Y471700D01*
X62449Y471633D01*
X62432Y471621D01*
X62425Y471612D01*
X62403Y471593D01*
X40047Y449237D01*
X39987Y449159D01*
X39919Y449087D01*
X39889Y449034D01*
X39852Y448986D01*
X39813Y448895D01*
X39765Y448808D01*
X39750Y448749D01*
X39726Y448694D01*
X39710Y448596D01*
X39686Y448500D01*
X39679Y448400D01*
X39676Y448380D01*
X39677Y448367D01*
X39676Y448339D01*
X39676Y250563D01*
X39693Y250425D01*
X39706Y250287D01*
X39713Y250268D01*
X39715Y250248D01*
X39767Y250118D01*
X39814Y249988D01*
X39825Y249971D01*
X39832Y249952D01*
X39914Y249840D01*
X39992Y249725D01*
X40007Y249711D01*
X40019Y249695D01*
X40127Y249606D01*
X40231Y249514D01*
X40249Y249505D01*
X40264Y249492D01*
X40390Y249433D01*
X40514Y249370D01*
X40534Y249365D01*
X40552Y249357D01*
X40688Y249330D01*
X40824Y249300D01*
X40844Y249301D01*
X40864Y249297D01*
X41003Y249305D01*
X41142Y249310D01*
X41161Y249315D01*
X41182Y249316D01*
X41314Y249359D01*
X41448Y249398D01*
X41465Y249408D01*
X41484Y249415D01*
X41602Y249489D01*
X41721Y249560D01*
X41743Y249578D01*
X41753Y249585D01*
X41767Y249600D01*
X41842Y249666D01*
X42240Y250064D01*
X44564Y251026D01*
X47079Y251026D01*
X49403Y250064D01*
X51182Y248285D01*
X52144Y245961D01*
X52144Y245212D01*
X52159Y245093D01*
X52167Y244975D01*
X52179Y244936D01*
X52184Y244896D01*
X52228Y244785D01*
X52265Y244672D01*
X52286Y244638D01*
X52301Y244600D01*
X52371Y244504D01*
X52435Y244403D01*
X52464Y244376D01*
X52488Y244343D01*
X52580Y244267D01*
X52666Y244186D01*
X52702Y244166D01*
X52733Y244140D01*
X52841Y244089D01*
X52945Y244032D01*
X52984Y244022D01*
X53021Y244005D01*
X53138Y243982D01*
X53253Y243953D01*
X53313Y243949D01*
X53333Y243945D01*
X53353Y243946D01*
X53414Y243942D01*
X56875Y243942D01*
X57012Y243960D01*
G37*
G36*
X180623Y24600D02*
X180623Y24600D01*
X180723Y24603D01*
X180781Y24620D01*
X180841Y24628D01*
X180933Y24664D01*
X181028Y24692D01*
X181080Y24723D01*
X181137Y24745D01*
X181217Y24803D01*
X181302Y24853D01*
X181377Y24920D01*
X181394Y24932D01*
X181402Y24941D01*
X181423Y24960D01*
X182600Y26137D01*
X183508Y26513D01*
X183569Y26548D01*
X183634Y26574D01*
X183706Y26626D01*
X183785Y26671D01*
X183835Y26719D01*
X183891Y26760D01*
X183949Y26830D01*
X184013Y26892D01*
X184049Y26952D01*
X184094Y27005D01*
X184132Y27087D01*
X184179Y27163D01*
X184200Y27230D01*
X184230Y27293D01*
X184246Y27381D01*
X184273Y27467D01*
X184276Y27537D01*
X184289Y27606D01*
X184284Y27695D01*
X184288Y27785D01*
X184274Y27853D01*
X184270Y27923D01*
X184242Y28008D01*
X184224Y28096D01*
X184193Y28159D01*
X184172Y28225D01*
X184123Y28301D01*
X184084Y28382D01*
X184039Y28435D01*
X184001Y28494D01*
X183936Y28556D01*
X183878Y28624D01*
X183821Y28664D01*
X183770Y28712D01*
X183691Y28755D01*
X183618Y28807D01*
X183552Y28832D01*
X183491Y28866D01*
X183404Y28888D01*
X183320Y28920D01*
X183251Y28928D01*
X183183Y28945D01*
X183023Y28955D01*
X65020Y28955D01*
X62417Y31559D01*
X62416Y31559D01*
X55334Y38642D01*
X52730Y41246D01*
X52730Y44403D01*
X52815Y44488D01*
X52876Y44567D01*
X52944Y44639D01*
X52973Y44692D01*
X53010Y44740D01*
X53049Y44831D01*
X53097Y44917D01*
X53112Y44976D01*
X53136Y45031D01*
X53152Y45129D01*
X53177Y45225D01*
X53183Y45325D01*
X53186Y45345D01*
X53185Y45358D01*
X53187Y45386D01*
X53187Y52013D01*
X53183Y52042D01*
X53185Y52072D01*
X53163Y52200D01*
X53147Y52329D01*
X53136Y52356D01*
X53131Y52385D01*
X53078Y52504D01*
X53030Y52624D01*
X53013Y52648D01*
X53000Y52675D01*
X52919Y52777D01*
X52843Y52882D01*
X52820Y52901D01*
X52802Y52924D01*
X52698Y53002D01*
X52598Y53085D01*
X52571Y53097D01*
X52548Y53115D01*
X52403Y53186D01*
X51242Y53667D01*
X48384Y56525D01*
X46837Y60260D01*
X46837Y64302D01*
X48384Y68036D01*
X51242Y70895D01*
X54976Y72442D01*
X59019Y72442D01*
X62753Y70895D01*
X65611Y68036D01*
X67158Y64302D01*
X67158Y60260D01*
X65611Y56525D01*
X62753Y53667D01*
X61592Y53186D01*
X61566Y53171D01*
X61538Y53162D01*
X61428Y53093D01*
X61316Y53028D01*
X61294Y53008D01*
X61269Y52992D01*
X61181Y52898D01*
X61087Y52807D01*
X61072Y52782D01*
X61051Y52760D01*
X60989Y52647D01*
X60921Y52536D01*
X60912Y52508D01*
X60898Y52482D01*
X60866Y52356D01*
X60827Y52232D01*
X60826Y52203D01*
X60819Y52174D01*
X60808Y52013D01*
X60808Y44471D01*
X60821Y44373D01*
X60824Y44274D01*
X60841Y44216D01*
X60848Y44156D01*
X60885Y44064D01*
X60912Y43969D01*
X60943Y43917D01*
X60965Y43860D01*
X61023Y43780D01*
X61074Y43695D01*
X61140Y43619D01*
X61152Y43603D01*
X61161Y43595D01*
X61180Y43574D01*
X67805Y36948D01*
X67884Y36888D01*
X67956Y36820D01*
X68009Y36791D01*
X68057Y36754D01*
X68148Y36714D01*
X68234Y36666D01*
X68293Y36651D01*
X68349Y36627D01*
X68447Y36612D01*
X68542Y36587D01*
X68642Y36581D01*
X68663Y36577D01*
X68675Y36579D01*
X68703Y36577D01*
X99648Y36577D01*
X99786Y36594D01*
X99925Y36607D01*
X99944Y36614D01*
X99964Y36617D01*
X100093Y36668D01*
X100224Y36715D01*
X100241Y36726D01*
X100259Y36734D01*
X100372Y36815D01*
X100487Y36893D01*
X100500Y36909D01*
X100517Y36920D01*
X100606Y37028D01*
X100697Y37132D01*
X100707Y37150D01*
X100720Y37165D01*
X100779Y37291D01*
X100842Y37415D01*
X100846Y37435D01*
X100855Y37453D01*
X100881Y37590D01*
X100912Y37725D01*
X100911Y37746D01*
X100915Y37765D01*
X100906Y37904D01*
X100902Y38043D01*
X100896Y38063D01*
X100895Y38083D01*
X100852Y38215D01*
X100814Y38349D01*
X100803Y38366D01*
X100797Y38385D01*
X100723Y38503D01*
X100652Y38623D01*
X100634Y38644D01*
X100627Y38654D01*
X100612Y38668D01*
X100546Y38743D01*
X99195Y40094D01*
X86963Y52326D01*
X86940Y52344D01*
X86921Y52367D01*
X86814Y52441D01*
X86712Y52521D01*
X86685Y52533D01*
X86661Y52550D01*
X86539Y52596D01*
X86420Y52647D01*
X86391Y52652D01*
X86363Y52662D01*
X86234Y52677D01*
X86106Y52697D01*
X86077Y52694D01*
X86047Y52698D01*
X85919Y52679D01*
X85789Y52667D01*
X85762Y52657D01*
X85732Y52653D01*
X85580Y52601D01*
X84419Y52120D01*
X80376Y52120D01*
X76642Y53667D01*
X73784Y56525D01*
X72237Y60260D01*
X72237Y64302D01*
X73784Y68036D01*
X76642Y70895D01*
X80376Y72442D01*
X84419Y72442D01*
X88153Y70895D01*
X91011Y68036D01*
X92558Y64302D01*
X92558Y60260D01*
X92077Y59098D01*
X92069Y59070D01*
X92056Y59044D01*
X92028Y58917D01*
X91993Y58792D01*
X91993Y58762D01*
X91986Y58733D01*
X91990Y58603D01*
X91988Y58474D01*
X91995Y58445D01*
X91996Y58415D01*
X92032Y58291D01*
X92062Y58164D01*
X92076Y58138D01*
X92084Y58110D01*
X92150Y57998D01*
X92211Y57883D01*
X92231Y57861D01*
X92246Y57836D01*
X92352Y57715D01*
X104585Y45483D01*
X104663Y45422D01*
X104735Y45354D01*
X104788Y45325D01*
X104836Y45288D01*
X104927Y45249D01*
X105014Y45201D01*
X105072Y45186D01*
X105128Y45162D01*
X105226Y45146D01*
X105321Y45121D01*
X105421Y45115D01*
X105442Y45112D01*
X105454Y45113D01*
X105482Y45111D01*
X172495Y45111D01*
X172594Y45124D01*
X172693Y45127D01*
X172751Y45143D01*
X172811Y45151D01*
X172903Y45187D01*
X172998Y45215D01*
X173050Y45246D01*
X173107Y45268D01*
X173187Y45326D01*
X173272Y45376D01*
X173347Y45443D01*
X173364Y45455D01*
X173372Y45464D01*
X173393Y45483D01*
X182914Y55004D01*
X182975Y55082D01*
X183042Y55154D01*
X183072Y55207D01*
X183109Y55255D01*
X183148Y55346D01*
X183196Y55433D01*
X183211Y55491D01*
X183235Y55547D01*
X183251Y55645D01*
X183275Y55741D01*
X183282Y55841D01*
X183285Y55861D01*
X183284Y55873D01*
X183286Y55901D01*
X183286Y75289D01*
X190054Y82057D01*
X190115Y82136D01*
X190182Y82208D01*
X190212Y82261D01*
X190249Y82309D01*
X190288Y82400D01*
X190336Y82486D01*
X190351Y82545D01*
X190375Y82601D01*
X190391Y82699D01*
X190415Y82794D01*
X190422Y82894D01*
X190425Y82915D01*
X190424Y82927D01*
X190426Y82955D01*
X190426Y85332D01*
X191388Y87656D01*
X193167Y89434D01*
X195491Y90397D01*
X198006Y90397D01*
X200330Y89434D01*
X202109Y87656D01*
X203071Y85332D01*
X203071Y82816D01*
X202109Y80492D01*
X200330Y78714D01*
X198006Y77751D01*
X197052Y77751D01*
X196954Y77739D01*
X196855Y77736D01*
X196796Y77719D01*
X196736Y77711D01*
X196644Y77675D01*
X196549Y77647D01*
X196497Y77617D01*
X196441Y77594D01*
X196361Y77536D01*
X196275Y77486D01*
X196200Y77420D01*
X196183Y77408D01*
X196175Y77398D01*
X196154Y77380D01*
X191279Y72504D01*
X191218Y72426D01*
X191150Y72354D01*
X191121Y72301D01*
X191084Y72253D01*
X191045Y72162D01*
X190997Y72075D01*
X190982Y72017D01*
X190958Y71961D01*
X190942Y71863D01*
X190917Y71767D01*
X190911Y71667D01*
X190908Y71647D01*
X190909Y71635D01*
X190907Y71607D01*
X190907Y52219D01*
X178782Y40094D01*
X177432Y38743D01*
X177347Y38634D01*
X177258Y38527D01*
X177249Y38508D01*
X177237Y38492D01*
X177182Y38365D01*
X177122Y38239D01*
X177119Y38219D01*
X177111Y38200D01*
X177089Y38062D01*
X177063Y37926D01*
X177064Y37906D01*
X177061Y37886D01*
X177074Y37747D01*
X177082Y37609D01*
X177089Y37590D01*
X177091Y37570D01*
X177138Y37438D01*
X177180Y37307D01*
X177191Y37289D01*
X177198Y37270D01*
X177276Y37155D01*
X177351Y37038D01*
X177365Y37024D01*
X177377Y37007D01*
X177481Y36915D01*
X177582Y36820D01*
X177600Y36810D01*
X177615Y36797D01*
X177739Y36733D01*
X177861Y36666D01*
X177880Y36661D01*
X177898Y36652D01*
X178034Y36622D01*
X178169Y36587D01*
X178197Y36585D01*
X178209Y36582D01*
X178229Y36583D01*
X178329Y36577D01*
X386211Y36577D01*
X386309Y36589D01*
X386408Y36592D01*
X386466Y36609D01*
X386526Y36617D01*
X386619Y36653D01*
X386714Y36681D01*
X386766Y36711D01*
X386822Y36734D01*
X386902Y36792D01*
X386988Y36842D01*
X387063Y36908D01*
X387080Y36920D01*
X387087Y36930D01*
X387108Y36948D01*
X395965Y45806D01*
X395996Y45845D01*
X396033Y45878D01*
X396093Y45970D01*
X396160Y46057D01*
X396180Y46102D01*
X396207Y46144D01*
X396243Y46248D01*
X396287Y46349D01*
X396295Y46398D01*
X396311Y46445D01*
X396319Y46554D01*
X396337Y46663D01*
X396332Y46712D01*
X396336Y46762D01*
X396317Y46870D01*
X396307Y46979D01*
X396290Y47026D01*
X396281Y47075D01*
X396236Y47175D01*
X396199Y47279D01*
X396171Y47320D01*
X396151Y47365D01*
X396082Y47451D01*
X396021Y47542D01*
X395983Y47575D01*
X395952Y47613D01*
X395864Y47680D01*
X395782Y47752D01*
X395738Y47775D01*
X395698Y47805D01*
X395554Y47876D01*
X393217Y48843D01*
X391439Y50622D01*
X390476Y52946D01*
X390476Y55461D01*
X391439Y57785D01*
X392616Y58963D01*
X392677Y59041D01*
X392745Y59113D01*
X392774Y59166D01*
X392811Y59214D01*
X392851Y59305D01*
X392898Y59392D01*
X392913Y59450D01*
X392938Y59506D01*
X392953Y59604D01*
X392978Y59700D01*
X392984Y59800D01*
X392987Y59820D01*
X392986Y59832D01*
X392988Y59860D01*
X392988Y64164D01*
X443670Y114846D01*
X443731Y114925D01*
X443799Y114997D01*
X443828Y115050D01*
X443865Y115098D01*
X443905Y115189D01*
X443952Y115275D01*
X443967Y115334D01*
X443992Y115389D01*
X444007Y115487D01*
X444032Y115583D01*
X444038Y115683D01*
X444041Y115704D01*
X444040Y115716D01*
X444042Y115744D01*
X444042Y132875D01*
X444030Y132973D01*
X444027Y133072D01*
X444010Y133130D01*
X444002Y133190D01*
X443966Y133283D01*
X443938Y133378D01*
X443907Y133430D01*
X443885Y133486D01*
X443827Y133566D01*
X443777Y133652D01*
X443741Y133692D01*
X443739Y133696D01*
X443733Y133702D01*
X443710Y133727D01*
X443698Y133743D01*
X443689Y133751D01*
X443670Y133772D01*
X442493Y134950D01*
X441530Y137274D01*
X441530Y139789D01*
X442493Y142113D01*
X444271Y143892D01*
X446595Y144854D01*
X449110Y144854D01*
X451434Y143892D01*
X453213Y142113D01*
X454176Y139789D01*
X454176Y137274D01*
X453213Y134950D01*
X452035Y133772D01*
X451975Y133694D01*
X451907Y133622D01*
X451883Y133579D01*
X451874Y133568D01*
X451870Y133560D01*
X451840Y133521D01*
X451801Y133430D01*
X451753Y133344D01*
X451738Y133285D01*
X451714Y133229D01*
X451698Y133131D01*
X451674Y133036D01*
X451667Y132936D01*
X451664Y132915D01*
X451665Y132903D01*
X451664Y132875D01*
X451664Y112061D01*
X400981Y61379D01*
X400921Y61301D01*
X400853Y61229D01*
X400823Y61176D01*
X400786Y61128D01*
X400747Y61037D01*
X400699Y60950D01*
X400684Y60891D01*
X400660Y60836D01*
X400644Y60738D01*
X400620Y60642D01*
X400613Y60542D01*
X400610Y60522D01*
X400611Y60509D01*
X400609Y60481D01*
X400609Y59860D01*
X400622Y59762D01*
X400625Y59663D01*
X400642Y59605D01*
X400649Y59545D01*
X400686Y59453D01*
X400713Y59358D01*
X400744Y59305D01*
X400766Y59249D01*
X400824Y59169D01*
X400875Y59084D01*
X400941Y59008D01*
X400953Y58992D01*
X400963Y58984D01*
X400981Y58963D01*
X402159Y57785D01*
X403127Y55449D01*
X403151Y55406D01*
X403168Y55359D01*
X403230Y55268D01*
X403284Y55172D01*
X403319Y55137D01*
X403347Y55096D01*
X403429Y55023D01*
X403506Y54944D01*
X403548Y54918D01*
X403585Y54885D01*
X403683Y54835D01*
X403777Y54778D01*
X403824Y54763D01*
X403868Y54741D01*
X403976Y54716D01*
X404081Y54684D01*
X404130Y54682D01*
X404179Y54671D01*
X404289Y54674D01*
X404398Y54669D01*
X404447Y54679D01*
X404497Y54681D01*
X404602Y54711D01*
X404710Y54733D01*
X404754Y54755D01*
X404802Y54769D01*
X404897Y54825D01*
X404995Y54873D01*
X405033Y54905D01*
X405076Y54930D01*
X405197Y55037D01*
X421535Y71375D01*
X528654Y71375D01*
X528752Y71387D01*
X528851Y71390D01*
X528910Y71407D01*
X528970Y71415D01*
X529062Y71451D01*
X529157Y71479D01*
X529209Y71509D01*
X529265Y71532D01*
X529345Y71590D01*
X529431Y71640D01*
X529506Y71706D01*
X529523Y71718D01*
X529531Y71728D01*
X529552Y71746D01*
X534415Y76610D01*
X534458Y76665D01*
X534508Y76714D01*
X534555Y76790D01*
X534610Y76861D01*
X534638Y76925D01*
X534674Y76985D01*
X534701Y77071D01*
X534736Y77153D01*
X534747Y77222D01*
X534768Y77289D01*
X534772Y77378D01*
X534786Y77467D01*
X534780Y77537D01*
X534783Y77606D01*
X534765Y77694D01*
X534756Y77784D01*
X534733Y77850D01*
X534719Y77918D01*
X534679Y77998D01*
X534649Y78083D01*
X534610Y78141D01*
X534579Y78204D01*
X534521Y78272D01*
X534470Y78346D01*
X534418Y78392D01*
X534373Y78446D01*
X534299Y78497D01*
X534232Y78557D01*
X534170Y78588D01*
X534113Y78629D01*
X534029Y78660D01*
X533949Y78701D01*
X533881Y78717D01*
X533815Y78741D01*
X533726Y78751D01*
X533638Y78771D01*
X533569Y78769D01*
X533499Y78777D01*
X533410Y78764D01*
X533320Y78761D01*
X533253Y78742D01*
X533184Y78732D01*
X533032Y78680D01*
X532016Y78259D01*
X529501Y78259D01*
X527177Y79222D01*
X525398Y81000D01*
X524436Y83324D01*
X524436Y85840D01*
X525398Y88164D01*
X527177Y89942D01*
X529501Y90905D01*
X532016Y90905D01*
X534340Y89942D01*
X535264Y89018D01*
X535342Y88958D01*
X535414Y88890D01*
X535467Y88861D01*
X535515Y88824D01*
X535606Y88784D01*
X535692Y88736D01*
X535751Y88721D01*
X535807Y88697D01*
X535905Y88682D01*
X536000Y88657D01*
X536100Y88651D01*
X536121Y88647D01*
X536133Y88649D01*
X536161Y88647D01*
X605108Y88647D01*
X605206Y88659D01*
X605305Y88662D01*
X605364Y88679D01*
X605424Y88687D01*
X605516Y88723D01*
X605611Y88751D01*
X605663Y88781D01*
X605719Y88804D01*
X605800Y88862D01*
X605885Y88912D01*
X605960Y88978D01*
X605977Y88990D01*
X605985Y89000D01*
X606006Y89018D01*
X613596Y96609D01*
X613657Y96687D01*
X613725Y96759D01*
X613754Y96812D01*
X613791Y96860D01*
X613831Y96951D01*
X613878Y97038D01*
X613893Y97097D01*
X613918Y97152D01*
X613933Y97250D01*
X613958Y97346D01*
X613964Y97446D01*
X613967Y97466D01*
X613966Y97479D01*
X613968Y97507D01*
X613968Y166780D01*
X659570Y212382D01*
X659631Y212461D01*
X659699Y212533D01*
X659728Y212586D01*
X659765Y212634D01*
X659805Y212725D01*
X659852Y212811D01*
X659867Y212870D01*
X659892Y212925D01*
X659907Y213023D01*
X659932Y213119D01*
X659938Y213219D01*
X659941Y213240D01*
X659940Y213252D01*
X659942Y213280D01*
X659942Y252759D01*
X659925Y252897D01*
X659912Y253036D01*
X659905Y253055D01*
X659902Y253075D01*
X659851Y253204D01*
X659804Y253335D01*
X659793Y253352D01*
X659785Y253371D01*
X659704Y253483D01*
X659625Y253598D01*
X659610Y253612D01*
X659598Y253628D01*
X659491Y253717D01*
X659387Y253809D01*
X659369Y253818D01*
X659353Y253831D01*
X659228Y253890D01*
X659104Y253953D01*
X659084Y253958D01*
X659066Y253966D01*
X658929Y253992D01*
X658793Y254023D01*
X658773Y254022D01*
X658753Y254026D01*
X658615Y254018D01*
X658476Y254013D01*
X658456Y254008D01*
X658436Y254006D01*
X658304Y253964D01*
X658170Y253925D01*
X658153Y253915D01*
X658133Y253908D01*
X658016Y253834D01*
X657896Y253763D01*
X657875Y253745D01*
X657865Y253738D01*
X657851Y253723D01*
X657775Y253657D01*
X656323Y252205D01*
X630025Y225907D01*
X505397Y225907D01*
X505348Y225901D01*
X505298Y225903D01*
X505191Y225881D01*
X505082Y225867D01*
X505036Y225849D01*
X504987Y225839D01*
X504888Y225790D01*
X504786Y225750D01*
X504746Y225721D01*
X504701Y225699D01*
X504618Y225628D01*
X504529Y225563D01*
X504497Y225525D01*
X504459Y225493D01*
X504396Y225403D01*
X504326Y225318D01*
X504305Y225273D01*
X504276Y225233D01*
X504237Y225130D01*
X504190Y225030D01*
X504181Y224982D01*
X504163Y224935D01*
X504151Y224826D01*
X504131Y224718D01*
X504134Y224669D01*
X504128Y224619D01*
X504144Y224510D01*
X504150Y224401D01*
X504166Y224353D01*
X504173Y224304D01*
X504225Y224152D01*
X504976Y222339D01*
X504976Y219824D01*
X504013Y217500D01*
X502234Y215721D01*
X499910Y214759D01*
X498245Y214759D01*
X498147Y214746D01*
X498048Y214743D01*
X497990Y214727D01*
X497929Y214719D01*
X497837Y214683D01*
X497742Y214655D01*
X497690Y214624D01*
X497634Y214602D01*
X497554Y214544D01*
X497468Y214494D01*
X497393Y214427D01*
X497376Y214415D01*
X497369Y214406D01*
X497347Y214387D01*
X465840Y182879D01*
X420506Y182879D01*
X420437Y182871D01*
X420367Y182872D01*
X420280Y182851D01*
X420190Y182839D01*
X420126Y182814D01*
X420058Y182797D01*
X419978Y182755D01*
X419895Y182722D01*
X419838Y182681D01*
X419777Y182649D01*
X419710Y182588D01*
X419637Y182536D01*
X419593Y182482D01*
X419541Y182435D01*
X419492Y182360D01*
X419435Y182291D01*
X419405Y182227D01*
X419367Y182169D01*
X419337Y182084D01*
X419299Y182003D01*
X419286Y181934D01*
X419263Y181868D01*
X419256Y181779D01*
X419239Y181691D01*
X419244Y181621D01*
X419238Y181551D01*
X419253Y181463D01*
X419259Y181373D01*
X419281Y181307D01*
X419293Y181238D01*
X419329Y181156D01*
X419357Y181071D01*
X419394Y181012D01*
X419423Y180948D01*
X419479Y180878D01*
X419527Y180802D01*
X419578Y180754D01*
X419622Y180700D01*
X419693Y180646D01*
X419759Y180584D01*
X419820Y180550D01*
X419876Y180508D01*
X420020Y180437D01*
X420192Y180366D01*
X421370Y179188D01*
X421448Y179128D01*
X421520Y179060D01*
X421573Y179031D01*
X421621Y178994D01*
X421712Y178954D01*
X421799Y178906D01*
X421857Y178891D01*
X421913Y178867D01*
X422011Y178852D01*
X422107Y178827D01*
X422207Y178821D01*
X422227Y178817D01*
X422239Y178819D01*
X422267Y178817D01*
X580880Y178817D01*
X580978Y178829D01*
X581077Y178832D01*
X581136Y178849D01*
X581196Y178857D01*
X581288Y178893D01*
X581383Y178921D01*
X581435Y178951D01*
X581491Y178974D01*
X581571Y179032D01*
X581657Y179082D01*
X581732Y179148D01*
X581749Y179160D01*
X581756Y179170D01*
X581778Y179188D01*
X582701Y180112D01*
X585025Y181075D01*
X587540Y181075D01*
X589864Y180112D01*
X591643Y178334D01*
X592606Y176010D01*
X592606Y173494D01*
X591643Y171170D01*
X589864Y169392D01*
X587540Y168429D01*
X585025Y168429D01*
X582701Y169392D01*
X581270Y170824D01*
X581191Y170884D01*
X581119Y170952D01*
X581066Y170981D01*
X581018Y171018D01*
X580927Y171058D01*
X580841Y171106D01*
X580782Y171121D01*
X580726Y171145D01*
X580628Y171160D01*
X580533Y171185D01*
X580433Y171191D01*
X580412Y171195D01*
X580400Y171193D01*
X580372Y171195D01*
X525243Y171195D01*
X525105Y171178D01*
X524966Y171165D01*
X524947Y171158D01*
X524927Y171155D01*
X524798Y171104D01*
X524667Y171057D01*
X524650Y171046D01*
X524631Y171038D01*
X524519Y170957D01*
X524404Y170879D01*
X524390Y170863D01*
X524374Y170852D01*
X524285Y170744D01*
X524193Y170640D01*
X524184Y170622D01*
X524171Y170607D01*
X524112Y170481D01*
X524049Y170357D01*
X524044Y170337D01*
X524036Y170319D01*
X524010Y170183D01*
X523979Y170047D01*
X523980Y170026D01*
X523976Y170007D01*
X523984Y169868D01*
X523989Y169729D01*
X523994Y169709D01*
X523996Y169689D01*
X524038Y169557D01*
X524077Y169423D01*
X524087Y169406D01*
X524094Y169387D01*
X524168Y169269D01*
X524239Y169149D01*
X524257Y169128D01*
X524264Y169118D01*
X524279Y169104D01*
X524345Y169029D01*
X527168Y166205D01*
X563359Y130014D01*
X563438Y129953D01*
X563510Y129886D01*
X563563Y129856D01*
X563611Y129819D01*
X563702Y129780D01*
X563788Y129732D01*
X563847Y129717D01*
X563903Y129693D01*
X564001Y129677D01*
X564096Y129653D01*
X564196Y129646D01*
X564217Y129643D01*
X564229Y129644D01*
X564257Y129642D01*
X581896Y129642D01*
X581994Y129655D01*
X582093Y129658D01*
X582152Y129675D01*
X582212Y129682D01*
X582304Y129719D01*
X582399Y129746D01*
X582451Y129777D01*
X582507Y129799D01*
X582587Y129857D01*
X582673Y129908D01*
X582748Y129974D01*
X582765Y129986D01*
X582772Y129995D01*
X582794Y130014D01*
X583971Y131192D01*
X586295Y132154D01*
X588810Y132154D01*
X591134Y131192D01*
X592913Y129413D01*
X593876Y127089D01*
X593876Y124574D01*
X592913Y122250D01*
X591134Y120471D01*
X588810Y119509D01*
X586295Y119509D01*
X583971Y120471D01*
X582794Y121649D01*
X582715Y121710D01*
X582643Y121778D01*
X582590Y121807D01*
X582542Y121844D01*
X582451Y121883D01*
X582365Y121931D01*
X582306Y121946D01*
X582250Y121970D01*
X582152Y121986D01*
X582057Y122011D01*
X581957Y122017D01*
X581936Y122020D01*
X581924Y122019D01*
X581896Y122021D01*
X560574Y122021D01*
X521779Y160816D01*
X521701Y160877D01*
X521629Y160944D01*
X521576Y160974D01*
X521528Y161011D01*
X521437Y161050D01*
X521350Y161098D01*
X521292Y161113D01*
X521236Y161137D01*
X521138Y161153D01*
X521042Y161177D01*
X520942Y161184D01*
X520922Y161187D01*
X520910Y161186D01*
X520882Y161188D01*
X331644Y161188D01*
X331546Y161175D01*
X331447Y161172D01*
X331388Y161155D01*
X331328Y161148D01*
X331236Y161111D01*
X331141Y161084D01*
X331089Y161053D01*
X331033Y161031D01*
X330953Y160973D01*
X330867Y160922D01*
X330792Y160856D01*
X330775Y160844D01*
X330767Y160835D01*
X330746Y160816D01*
X326433Y156503D01*
X326391Y156448D01*
X326340Y156399D01*
X326294Y156323D01*
X326238Y156252D01*
X326211Y156188D01*
X326174Y156128D01*
X326148Y156042D01*
X326112Y155960D01*
X326101Y155891D01*
X326081Y155824D01*
X326076Y155735D01*
X326062Y155646D01*
X326069Y155576D01*
X326065Y155507D01*
X326084Y155419D01*
X326092Y155329D01*
X326116Y155263D01*
X326130Y155195D01*
X326169Y155115D01*
X326200Y155030D01*
X326239Y154972D01*
X326269Y154909D01*
X326328Y154841D01*
X326378Y154767D01*
X326431Y154721D01*
X326476Y154667D01*
X326549Y154616D01*
X326617Y154556D01*
X326679Y154524D01*
X326736Y154484D01*
X326820Y154453D01*
X326900Y154412D01*
X326968Y154396D01*
X327033Y154372D01*
X327123Y154362D01*
X327210Y154342D01*
X327280Y154344D01*
X327349Y154336D01*
X327438Y154349D01*
X327528Y154352D01*
X327595Y154371D01*
X327664Y154381D01*
X327817Y154433D01*
X331127Y155804D01*
X335978Y155804D01*
X340459Y153948D01*
X343889Y150518D01*
X345080Y147643D01*
X345149Y147523D01*
X345214Y147399D01*
X345228Y147384D01*
X345238Y147367D01*
X345335Y147267D01*
X345428Y147164D01*
X345445Y147153D01*
X345459Y147138D01*
X345578Y147066D01*
X345694Y146989D01*
X345713Y146983D01*
X345730Y146972D01*
X345863Y146931D01*
X345995Y146886D01*
X346015Y146885D01*
X346034Y146879D01*
X346173Y146872D01*
X346312Y146861D01*
X346331Y146864D01*
X346352Y146864D01*
X346488Y146892D01*
X346625Y146915D01*
X346643Y146924D01*
X346663Y146928D01*
X346788Y146989D01*
X346915Y147046D01*
X346931Y147059D01*
X346949Y147068D01*
X347055Y147158D01*
X347163Y147245D01*
X347175Y147261D01*
X347191Y147274D01*
X347271Y147388D01*
X347355Y147499D01*
X347367Y147524D01*
X347374Y147534D01*
X347381Y147553D01*
X347425Y147643D01*
X348616Y150518D01*
X352046Y153948D01*
X356527Y155804D01*
X361378Y155804D01*
X365859Y153948D01*
X369289Y150518D01*
X370480Y147643D01*
X370549Y147523D01*
X370614Y147399D01*
X370628Y147384D01*
X370638Y147367D01*
X370735Y147267D01*
X370828Y147164D01*
X370845Y147153D01*
X370859Y147138D01*
X370978Y147066D01*
X371094Y146989D01*
X371113Y146983D01*
X371130Y146972D01*
X371263Y146931D01*
X371395Y146886D01*
X371415Y146885D01*
X371434Y146879D01*
X371573Y146872D01*
X371712Y146861D01*
X371731Y146864D01*
X371752Y146864D01*
X371888Y146892D01*
X372025Y146915D01*
X372043Y146924D01*
X372063Y146928D01*
X372188Y146989D01*
X372315Y147046D01*
X372331Y147059D01*
X372349Y147068D01*
X372455Y147158D01*
X372563Y147245D01*
X372575Y147261D01*
X372591Y147274D01*
X372671Y147388D01*
X372755Y147499D01*
X372767Y147524D01*
X372774Y147534D01*
X372781Y147553D01*
X372825Y147643D01*
X374016Y150518D01*
X377446Y153948D01*
X381927Y155804D01*
X386778Y155804D01*
X391259Y153948D01*
X394689Y150518D01*
X395880Y147643D01*
X395949Y147523D01*
X396014Y147399D01*
X396028Y147384D01*
X396038Y147367D01*
X396135Y147267D01*
X396228Y147164D01*
X396245Y147153D01*
X396259Y147138D01*
X396378Y147066D01*
X396494Y146989D01*
X396513Y146983D01*
X396530Y146972D01*
X396663Y146931D01*
X396795Y146886D01*
X396815Y146885D01*
X396834Y146879D01*
X396973Y146872D01*
X397112Y146861D01*
X397131Y146864D01*
X397152Y146864D01*
X397288Y146892D01*
X397425Y146915D01*
X397443Y146924D01*
X397463Y146928D01*
X397588Y146989D01*
X397715Y147046D01*
X397731Y147059D01*
X397749Y147068D01*
X397855Y147158D01*
X397963Y147245D01*
X397975Y147261D01*
X397991Y147274D01*
X398071Y147388D01*
X398155Y147499D01*
X398167Y147524D01*
X398174Y147534D01*
X398181Y147553D01*
X398225Y147643D01*
X399416Y150518D01*
X402846Y153948D01*
X407327Y155804D01*
X412178Y155804D01*
X416659Y153948D01*
X420089Y150518D01*
X421946Y146037D01*
X421946Y141186D01*
X420089Y136705D01*
X416659Y133275D01*
X412178Y131419D01*
X407327Y131419D01*
X402846Y133275D01*
X399416Y136705D01*
X398225Y139580D01*
X398157Y139701D01*
X398092Y139824D01*
X398078Y139839D01*
X398068Y139856D01*
X397971Y139956D01*
X397878Y140059D01*
X397861Y140070D01*
X397847Y140085D01*
X397728Y140157D01*
X397612Y140234D01*
X397593Y140240D01*
X397575Y140251D01*
X397443Y140292D01*
X397311Y140337D01*
X397291Y140339D01*
X397272Y140345D01*
X397133Y140351D01*
X396994Y140362D01*
X396974Y140359D01*
X396954Y140360D01*
X396818Y140332D01*
X396681Y140308D01*
X396662Y140299D01*
X396642Y140295D01*
X396517Y140234D01*
X396391Y140177D01*
X396375Y140165D01*
X396357Y140156D01*
X396251Y140065D01*
X396142Y139979D01*
X396130Y139962D01*
X396115Y139949D01*
X396035Y139836D01*
X395951Y139725D01*
X395939Y139699D01*
X395932Y139689D01*
X395924Y139670D01*
X395880Y139580D01*
X394689Y136705D01*
X391259Y133275D01*
X386778Y131419D01*
X381927Y131419D01*
X377446Y133275D01*
X374016Y136705D01*
X372825Y139580D01*
X372757Y139701D01*
X372692Y139824D01*
X372678Y139839D01*
X372668Y139856D01*
X372571Y139956D01*
X372478Y140059D01*
X372461Y140070D01*
X372447Y140085D01*
X372328Y140157D01*
X372212Y140234D01*
X372193Y140240D01*
X372175Y140251D01*
X372043Y140292D01*
X371911Y140337D01*
X371891Y140339D01*
X371872Y140345D01*
X371733Y140351D01*
X371594Y140362D01*
X371574Y140359D01*
X371554Y140360D01*
X371418Y140332D01*
X371281Y140308D01*
X371262Y140299D01*
X371242Y140295D01*
X371117Y140234D01*
X370991Y140177D01*
X370975Y140165D01*
X370957Y140156D01*
X370851Y140065D01*
X370742Y139979D01*
X370730Y139962D01*
X370715Y139949D01*
X370635Y139836D01*
X370551Y139725D01*
X370539Y139699D01*
X370532Y139689D01*
X370524Y139670D01*
X370480Y139580D01*
X369289Y136705D01*
X365859Y133275D01*
X361378Y131419D01*
X356527Y131419D01*
X352046Y133275D01*
X348616Y136705D01*
X347425Y139580D01*
X347357Y139701D01*
X347292Y139824D01*
X347278Y139839D01*
X347268Y139856D01*
X347171Y139956D01*
X347078Y140059D01*
X347061Y140070D01*
X347047Y140085D01*
X346928Y140157D01*
X346812Y140234D01*
X346793Y140240D01*
X346775Y140251D01*
X346643Y140292D01*
X346511Y140337D01*
X346491Y140339D01*
X346472Y140345D01*
X346333Y140351D01*
X346194Y140362D01*
X346174Y140359D01*
X346154Y140360D01*
X346018Y140332D01*
X345881Y140308D01*
X345862Y140299D01*
X345842Y140295D01*
X345717Y140234D01*
X345591Y140177D01*
X345575Y140165D01*
X345557Y140156D01*
X345451Y140065D01*
X345342Y139979D01*
X345330Y139962D01*
X345315Y139949D01*
X345235Y139836D01*
X345151Y139725D01*
X345139Y139699D01*
X345132Y139689D01*
X345124Y139670D01*
X345080Y139580D01*
X343889Y136705D01*
X340459Y133275D01*
X335978Y131419D01*
X331127Y131419D01*
X326646Y133275D01*
X323216Y136705D01*
X322025Y139580D01*
X321957Y139701D01*
X321892Y139824D01*
X321878Y139839D01*
X321868Y139856D01*
X321771Y139956D01*
X321678Y140059D01*
X321661Y140070D01*
X321647Y140085D01*
X321528Y140157D01*
X321412Y140234D01*
X321393Y140240D01*
X321375Y140251D01*
X321243Y140292D01*
X321111Y140337D01*
X321091Y140339D01*
X321072Y140345D01*
X320933Y140351D01*
X320794Y140362D01*
X320774Y140359D01*
X320754Y140360D01*
X320618Y140332D01*
X320481Y140308D01*
X320462Y140299D01*
X320442Y140295D01*
X320317Y140234D01*
X320191Y140177D01*
X320175Y140165D01*
X320157Y140156D01*
X320051Y140065D01*
X319942Y139979D01*
X319930Y139962D01*
X319915Y139949D01*
X319835Y139836D01*
X319751Y139725D01*
X319739Y139699D01*
X319732Y139689D01*
X319724Y139670D01*
X319680Y139580D01*
X318489Y136705D01*
X315059Y133275D01*
X310578Y131419D01*
X305727Y131419D01*
X301246Y133275D01*
X297816Y136705D01*
X296618Y139598D01*
X296603Y139623D01*
X296594Y139652D01*
X296525Y139762D01*
X296461Y139874D01*
X296440Y139895D01*
X296424Y139921D01*
X296330Y140009D01*
X296239Y140102D01*
X296214Y140118D01*
X296192Y140138D01*
X296079Y140201D01*
X295968Y140269D01*
X295940Y140277D01*
X295913Y140292D01*
X295788Y140324D01*
X295664Y140362D01*
X295634Y140364D01*
X295605Y140371D01*
X295476Y140371D01*
X295347Y140377D01*
X295317Y140371D01*
X295287Y140371D01*
X295162Y140339D01*
X295035Y140313D01*
X295008Y140300D01*
X294979Y140292D01*
X294866Y140230D01*
X294749Y140173D01*
X294727Y140154D01*
X294701Y140140D01*
X294606Y140051D01*
X294507Y139967D01*
X294490Y139942D01*
X294468Y139922D01*
X294399Y139813D01*
X294324Y139707D01*
X294314Y139679D01*
X294298Y139654D01*
X294238Y139504D01*
X294052Y138931D01*
X293181Y137221D01*
X292053Y135669D01*
X290696Y134311D01*
X289143Y133183D01*
X287433Y132312D01*
X285608Y131719D01*
X285292Y131669D01*
X285292Y142341D01*
X285277Y142460D01*
X285270Y142578D01*
X285257Y142617D01*
X285252Y142657D01*
X285208Y142768D01*
X285172Y142881D01*
X285150Y142915D01*
X285135Y142953D01*
X285065Y143049D01*
X285001Y143150D01*
X284972Y143177D01*
X284948Y143210D01*
X284857Y143286D01*
X284770Y143368D01*
X284734Y143387D01*
X284703Y143413D01*
X284596Y143464D01*
X284491Y143521D01*
X284452Y143531D01*
X284416Y143548D01*
X284299Y143571D01*
X284183Y143600D01*
X284123Y143604D01*
X284103Y143608D01*
X284083Y143607D01*
X284023Y143611D01*
X282752Y143611D01*
X282752Y143612D01*
X284023Y143612D01*
X284141Y143627D01*
X284260Y143635D01*
X284298Y143647D01*
X284338Y143652D01*
X284449Y143696D01*
X284562Y143733D01*
X284596Y143754D01*
X284634Y143769D01*
X284730Y143839D01*
X284831Y143903D01*
X284859Y143932D01*
X284891Y143956D01*
X284967Y144048D01*
X285049Y144135D01*
X285068Y144170D01*
X285094Y144201D01*
X285145Y144309D01*
X285202Y144413D01*
X285212Y144452D01*
X285230Y144489D01*
X285252Y144606D01*
X285282Y144721D01*
X285286Y144781D01*
X285289Y144801D01*
X285288Y144822D01*
X285292Y144882D01*
X285292Y155554D01*
X285608Y155504D01*
X287433Y154911D01*
X289143Y154040D01*
X290696Y152912D01*
X292053Y151555D01*
X293181Y150002D01*
X294052Y148292D01*
X294238Y147719D01*
X294251Y147692D01*
X294258Y147663D01*
X294281Y147619D01*
X294294Y147579D01*
X294333Y147519D01*
X294374Y147431D01*
X294393Y147408D01*
X294407Y147382D01*
X294448Y147337D01*
X294464Y147311D01*
X294506Y147272D01*
X294576Y147186D01*
X294601Y147169D01*
X294621Y147147D01*
X294681Y147107D01*
X294696Y147093D01*
X294733Y147072D01*
X294834Y146999D01*
X294861Y146988D01*
X294886Y146972D01*
X294963Y146945D01*
X294974Y146939D01*
X295001Y146932D01*
X295009Y146930D01*
X295129Y146882D01*
X295159Y146878D01*
X295187Y146869D01*
X295276Y146862D01*
X295282Y146860D01*
X295327Y146857D01*
X295445Y146842D01*
X295474Y146846D01*
X295504Y146843D01*
X295632Y146866D01*
X295760Y146882D01*
X295788Y146893D01*
X295818Y146898D01*
X295936Y146951D01*
X296056Y146999D01*
X296080Y147016D01*
X296108Y147028D01*
X296209Y147109D01*
X296314Y147185D01*
X296333Y147208D01*
X296356Y147227D01*
X296434Y147330D01*
X296516Y147430D01*
X296529Y147457D01*
X296547Y147481D01*
X296618Y147626D01*
X297816Y150518D01*
X301246Y153948D01*
X305727Y155804D01*
X310578Y155804D01*
X312890Y154847D01*
X312919Y154839D01*
X312945Y154825D01*
X313072Y154797D01*
X313197Y154763D01*
X313227Y154762D01*
X313256Y154756D01*
X313385Y154760D01*
X313515Y154758D01*
X313544Y154764D01*
X313573Y154765D01*
X313698Y154801D01*
X313824Y154832D01*
X313851Y154846D01*
X313879Y154854D01*
X313990Y154919D01*
X314106Y154980D01*
X314127Y155000D01*
X314153Y155015D01*
X314274Y155122D01*
X327961Y168809D01*
X410802Y168809D01*
X410940Y168827D01*
X411078Y168840D01*
X411097Y168846D01*
X411117Y168849D01*
X411247Y168900D01*
X411377Y168947D01*
X411394Y168959D01*
X411413Y168966D01*
X411526Y169048D01*
X411641Y169126D01*
X411654Y169141D01*
X411670Y169153D01*
X411759Y169260D01*
X411851Y169364D01*
X411860Y169382D01*
X411873Y169398D01*
X411932Y169524D01*
X411996Y169647D01*
X412000Y169667D01*
X412009Y169686D01*
X412035Y169821D01*
X412065Y169958D01*
X412065Y169978D01*
X412068Y169998D01*
X412060Y170137D01*
X412056Y170276D01*
X412050Y170295D01*
X412049Y170315D01*
X412006Y170448D01*
X411967Y170581D01*
X411957Y170599D01*
X411951Y170618D01*
X411876Y170735D01*
X411806Y170855D01*
X411787Y170876D01*
X411781Y170886D01*
X411766Y170901D01*
X411699Y170976D01*
X411251Y171425D01*
X410288Y173748D01*
X410288Y176264D01*
X411251Y178588D01*
X413029Y180366D01*
X413201Y180437D01*
X413262Y180472D01*
X413327Y180498D01*
X413399Y180550D01*
X413477Y180595D01*
X413528Y180643D01*
X413584Y180684D01*
X413641Y180754D01*
X413706Y180816D01*
X413742Y180876D01*
X413787Y180929D01*
X413825Y181011D01*
X413872Y181087D01*
X413893Y181154D01*
X413922Y181217D01*
X413939Y181305D01*
X413966Y181391D01*
X413969Y181461D01*
X413982Y181530D01*
X413977Y181619D01*
X413981Y181709D01*
X413967Y181777D01*
X413962Y181847D01*
X413935Y181932D01*
X413917Y182020D01*
X413886Y182083D01*
X413864Y182149D01*
X413816Y182225D01*
X413777Y182306D01*
X413732Y182359D01*
X413694Y182418D01*
X413629Y182480D01*
X413571Y182548D01*
X413514Y182588D01*
X413463Y182636D01*
X413384Y182679D01*
X413311Y182731D01*
X413245Y182756D01*
X413184Y182790D01*
X413097Y182812D01*
X413013Y182844D01*
X412944Y182852D01*
X412876Y182869D01*
X412716Y182879D01*
X24482Y182879D01*
X21878Y185483D01*
X17204Y190157D01*
X17094Y190242D01*
X16987Y190331D01*
X16969Y190339D01*
X16953Y190352D01*
X16825Y190407D01*
X16700Y190466D01*
X16680Y190470D01*
X16661Y190478D01*
X16523Y190500D01*
X16387Y190526D01*
X16367Y190525D01*
X16347Y190528D01*
X16208Y190515D01*
X16070Y190506D01*
X16051Y190500D01*
X16030Y190498D01*
X15899Y190451D01*
X15767Y190408D01*
X15750Y190398D01*
X15731Y190391D01*
X15616Y190313D01*
X15499Y190238D01*
X15485Y190223D01*
X15468Y190212D01*
X15376Y190108D01*
X15281Y190007D01*
X15271Y189989D01*
X15258Y189974D01*
X15194Y189850D01*
X15127Y189728D01*
X15122Y189709D01*
X15113Y189690D01*
X15082Y189555D01*
X15048Y189420D01*
X15046Y189392D01*
X15043Y189380D01*
X15044Y189360D01*
X15038Y189259D01*
X15038Y66214D01*
X15050Y66116D01*
X15053Y66017D01*
X15070Y65958D01*
X15077Y65898D01*
X15114Y65806D01*
X15141Y65711D01*
X15172Y65659D01*
X15194Y65603D01*
X15253Y65523D01*
X15303Y65437D01*
X15369Y65362D01*
X15381Y65345D01*
X15391Y65337D01*
X15409Y65316D01*
X55766Y24960D01*
X55844Y24899D01*
X55916Y24831D01*
X55969Y24802D01*
X56017Y24765D01*
X56108Y24725D01*
X56195Y24678D01*
X56253Y24662D01*
X56309Y24638D01*
X56407Y24623D01*
X56503Y24598D01*
X56603Y24592D01*
X56623Y24589D01*
X56635Y24590D01*
X56663Y24588D01*
X180525Y24588D01*
X180623Y24600D01*
G37*
G36*
X626441Y233541D02*
X626441Y233541D01*
X626540Y233544D01*
X626598Y233561D01*
X626658Y233568D01*
X626750Y233605D01*
X626845Y233632D01*
X626897Y233663D01*
X626954Y233685D01*
X627034Y233743D01*
X627119Y233794D01*
X627195Y233860D01*
X627211Y233872D01*
X627219Y233881D01*
X627240Y233900D01*
X650934Y257594D01*
X650995Y257673D01*
X651063Y257745D01*
X651092Y257798D01*
X651129Y257846D01*
X651169Y257937D01*
X651216Y258023D01*
X651231Y258082D01*
X651256Y258137D01*
X651271Y258235D01*
X651296Y258331D01*
X651302Y258431D01*
X651305Y258452D01*
X651304Y258464D01*
X651306Y258492D01*
X651306Y437929D01*
X651289Y438067D01*
X651276Y438205D01*
X651269Y438224D01*
X651266Y438244D01*
X651215Y438374D01*
X651168Y438505D01*
X651157Y438521D01*
X651149Y438540D01*
X651068Y438652D01*
X650989Y438768D01*
X650974Y438781D01*
X650962Y438798D01*
X650855Y438886D01*
X650751Y438978D01*
X650733Y438987D01*
X650717Y439000D01*
X650592Y439060D01*
X650468Y439123D01*
X650448Y439127D01*
X650430Y439136D01*
X650293Y439162D01*
X650157Y439192D01*
X650137Y439192D01*
X650117Y439196D01*
X649979Y439187D01*
X649840Y439183D01*
X649820Y439177D01*
X649800Y439176D01*
X649668Y439133D01*
X649534Y439094D01*
X649517Y439084D01*
X649497Y439078D01*
X649380Y439004D01*
X649260Y438933D01*
X649239Y438914D01*
X649229Y438908D01*
X649215Y438893D01*
X649139Y438826D01*
X648284Y437971D01*
X645960Y437009D01*
X643445Y437009D01*
X641121Y437971D01*
X639343Y439750D01*
X638380Y442074D01*
X638380Y443739D01*
X638368Y443838D01*
X638365Y443937D01*
X638348Y443995D01*
X638340Y444055D01*
X638304Y444147D01*
X638276Y444242D01*
X638245Y444294D01*
X638223Y444351D01*
X638165Y444431D01*
X638115Y444516D01*
X638048Y444591D01*
X638036Y444608D01*
X638027Y444616D01*
X638008Y444637D01*
X637146Y445499D01*
X637068Y445560D01*
X636996Y445628D01*
X636943Y445657D01*
X636895Y445694D01*
X636804Y445733D01*
X636717Y445781D01*
X636659Y445796D01*
X636603Y445820D01*
X636505Y445836D01*
X636409Y445861D01*
X636309Y445867D01*
X636289Y445870D01*
X636277Y445869D01*
X636249Y445871D01*
X593209Y445871D01*
X593111Y445858D01*
X593012Y445855D01*
X592954Y445839D01*
X592894Y445831D01*
X592802Y445795D01*
X592707Y445767D01*
X592655Y445736D01*
X592598Y445714D01*
X592518Y445656D01*
X592433Y445606D01*
X592357Y445539D01*
X592341Y445527D01*
X592333Y445518D01*
X592312Y445499D01*
X591134Y444321D01*
X588810Y443359D01*
X586295Y443359D01*
X583971Y444321D01*
X582193Y446100D01*
X581230Y448424D01*
X581230Y450939D01*
X582193Y453263D01*
X583971Y455042D01*
X586295Y456004D01*
X588810Y456004D01*
X591134Y455042D01*
X592312Y453864D01*
X592390Y453803D01*
X592462Y453736D01*
X592515Y453706D01*
X592563Y453669D01*
X592654Y453630D01*
X592741Y453582D01*
X592799Y453567D01*
X592855Y453543D01*
X592953Y453527D01*
X593049Y453503D01*
X593149Y453496D01*
X593169Y453493D01*
X593181Y453494D01*
X593209Y453492D01*
X639931Y453492D01*
X643397Y450026D01*
X643476Y449965D01*
X643548Y449898D01*
X643601Y449868D01*
X643649Y449831D01*
X643740Y449792D01*
X643826Y449744D01*
X643885Y449729D01*
X643941Y449705D01*
X644039Y449689D01*
X644134Y449665D01*
X644234Y449658D01*
X644255Y449655D01*
X644267Y449656D01*
X644295Y449654D01*
X645960Y449654D01*
X648284Y448692D01*
X649139Y447837D01*
X649249Y447752D01*
X649356Y447663D01*
X649375Y447654D01*
X649391Y447642D01*
X649518Y447587D01*
X649644Y447527D01*
X649664Y447524D01*
X649682Y447515D01*
X649820Y447494D01*
X649956Y447468D01*
X649976Y447469D01*
X649997Y447466D01*
X650136Y447479D01*
X650274Y447487D01*
X650293Y447494D01*
X650313Y447495D01*
X650444Y447543D01*
X650576Y447585D01*
X650593Y447596D01*
X650612Y447603D01*
X650727Y447681D01*
X650845Y447755D01*
X650859Y447770D01*
X650876Y447782D01*
X650967Y447886D01*
X651063Y447987D01*
X651073Y448005D01*
X651086Y448020D01*
X651149Y448144D01*
X651216Y448266D01*
X651221Y448285D01*
X651231Y448303D01*
X651261Y448439D01*
X651296Y448574D01*
X651298Y448602D01*
X651300Y448614D01*
X651300Y448634D01*
X651306Y448734D01*
X651306Y451387D01*
X651294Y451486D01*
X651291Y451585D01*
X651274Y451643D01*
X651266Y451703D01*
X651230Y451795D01*
X651202Y451890D01*
X651171Y451942D01*
X651149Y451999D01*
X651091Y452079D01*
X651041Y452164D01*
X650974Y452239D01*
X650962Y452256D01*
X650953Y452264D01*
X650934Y452285D01*
X649564Y453655D01*
X649486Y453716D01*
X649414Y453784D01*
X649361Y453813D01*
X649313Y453850D01*
X649222Y453889D01*
X649135Y453937D01*
X649077Y453952D01*
X649021Y453976D01*
X648923Y453992D01*
X648827Y454017D01*
X648727Y454023D01*
X648707Y454026D01*
X648695Y454025D01*
X648667Y454027D01*
X647001Y454027D01*
X644677Y454989D01*
X642899Y456768D01*
X641936Y459092D01*
X641936Y461607D01*
X642899Y463931D01*
X644677Y465710D01*
X647001Y466672D01*
X649516Y466672D01*
X651840Y465710D01*
X653619Y463931D01*
X654582Y461607D01*
X654582Y459942D01*
X654594Y459844D01*
X654597Y459745D01*
X654614Y459686D01*
X654621Y459626D01*
X654658Y459534D01*
X654685Y459439D01*
X654716Y459387D01*
X654738Y459331D01*
X654797Y459251D01*
X654847Y459165D01*
X654913Y459090D01*
X654925Y459073D01*
X654935Y459065D01*
X654953Y459044D01*
X657775Y456222D01*
X657885Y456137D01*
X657992Y456048D01*
X658011Y456040D01*
X658027Y456027D01*
X658155Y455972D01*
X658280Y455913D01*
X658300Y455909D01*
X658318Y455901D01*
X658456Y455879D01*
X658592Y455853D01*
X658612Y455854D01*
X658633Y455851D01*
X658772Y455864D01*
X658910Y455873D01*
X658929Y455879D01*
X658949Y455881D01*
X659080Y455928D01*
X659212Y455971D01*
X659229Y455982D01*
X659248Y455989D01*
X659363Y456067D01*
X659481Y456141D01*
X659495Y456156D01*
X659512Y456167D01*
X659604Y456271D01*
X659699Y456373D01*
X659709Y456390D01*
X659722Y456406D01*
X659785Y456530D01*
X659852Y456651D01*
X659857Y456671D01*
X659867Y456689D01*
X659897Y456825D01*
X659932Y456959D01*
X659934Y456987D01*
X659936Y456999D01*
X659936Y457020D01*
X659942Y457120D01*
X659942Y466627D01*
X659930Y466726D01*
X659927Y466825D01*
X659910Y466883D01*
X659902Y466943D01*
X659866Y467035D01*
X659838Y467130D01*
X659807Y467182D01*
X659785Y467239D01*
X659727Y467319D01*
X659677Y467404D01*
X659610Y467479D01*
X659598Y467496D01*
X659589Y467504D01*
X659570Y467525D01*
X643496Y483599D01*
X643418Y483660D01*
X643346Y483728D01*
X643293Y483757D01*
X643245Y483794D01*
X643154Y483833D01*
X643067Y483881D01*
X643009Y483896D01*
X642953Y483920D01*
X642855Y483936D01*
X642759Y483961D01*
X642659Y483967D01*
X642639Y483970D01*
X642627Y483969D01*
X642599Y483971D01*
X555109Y483971D01*
X555011Y483958D01*
X554912Y483955D01*
X554854Y483939D01*
X554794Y483931D01*
X554702Y483895D01*
X554607Y483867D01*
X554555Y483836D01*
X554498Y483814D01*
X554418Y483756D01*
X554333Y483706D01*
X554257Y483639D01*
X554241Y483627D01*
X554233Y483618D01*
X554212Y483599D01*
X553034Y482421D01*
X551775Y481900D01*
X551732Y481875D01*
X551686Y481859D01*
X551595Y481797D01*
X551499Y481742D01*
X551464Y481708D01*
X551422Y481680D01*
X551350Y481597D01*
X551271Y481521D01*
X551245Y481479D01*
X551212Y481442D01*
X551162Y481344D01*
X551105Y481250D01*
X551090Y481203D01*
X551067Y481158D01*
X551043Y481051D01*
X551011Y480946D01*
X551009Y480897D01*
X550998Y480848D01*
X551001Y480738D01*
X550996Y480628D01*
X551006Y480580D01*
X551007Y480530D01*
X551038Y480425D01*
X551060Y480317D01*
X551082Y480272D01*
X551096Y480225D01*
X551151Y480130D01*
X551200Y480031D01*
X551232Y479993D01*
X551257Y479951D01*
X551364Y479830D01*
X576059Y455134D01*
X578664Y452530D01*
X578664Y441829D01*
X578667Y441799D01*
X578665Y441770D01*
X578687Y441642D01*
X578703Y441513D01*
X578714Y441486D01*
X578719Y441456D01*
X578773Y441338D01*
X578820Y441217D01*
X578838Y441193D01*
X578850Y441167D01*
X578931Y441065D01*
X579007Y440960D01*
X579030Y440941D01*
X579048Y440918D01*
X579152Y440840D01*
X579252Y440757D01*
X579279Y440745D01*
X579303Y440727D01*
X579447Y440656D01*
X581759Y439698D01*
X585189Y436268D01*
X586380Y433393D01*
X586449Y433273D01*
X586514Y433150D01*
X586528Y433135D01*
X586538Y433117D01*
X586634Y433017D01*
X586728Y432914D01*
X586745Y432903D01*
X586759Y432889D01*
X586877Y432816D01*
X586994Y432739D01*
X587013Y432733D01*
X587030Y432722D01*
X587163Y432681D01*
X587294Y432636D01*
X587315Y432635D01*
X587334Y432629D01*
X587472Y432622D01*
X587611Y432611D01*
X587632Y432615D01*
X587652Y432614D01*
X587787Y432642D01*
X587925Y432665D01*
X587943Y432674D01*
X587963Y432678D01*
X588088Y432739D01*
X588215Y432796D01*
X588231Y432809D01*
X588249Y432818D01*
X588355Y432908D01*
X588463Y432995D01*
X588475Y433011D01*
X588491Y433024D01*
X588571Y433138D01*
X588654Y433249D01*
X588667Y433274D01*
X588674Y433284D01*
X588681Y433303D01*
X588725Y433393D01*
X589916Y436268D01*
X593346Y439698D01*
X597827Y441554D01*
X602678Y441554D01*
X607159Y439698D01*
X610589Y436268D01*
X612446Y431787D01*
X612446Y426936D01*
X610589Y422455D01*
X607159Y419025D01*
X602678Y417169D01*
X597827Y417169D01*
X593346Y419025D01*
X589916Y422455D01*
X588725Y425330D01*
X588717Y425345D01*
X588714Y425355D01*
X588690Y425393D01*
X588657Y425451D01*
X588592Y425574D01*
X588578Y425589D01*
X588568Y425606D01*
X588471Y425706D01*
X588378Y425809D01*
X588361Y425820D01*
X588347Y425835D01*
X588228Y425907D01*
X588112Y425984D01*
X588093Y425990D01*
X588075Y426001D01*
X587943Y426042D01*
X587811Y426087D01*
X587791Y426089D01*
X587772Y426095D01*
X587633Y426101D01*
X587494Y426112D01*
X587474Y426109D01*
X587454Y426110D01*
X587318Y426082D01*
X587181Y426058D01*
X587162Y426049D01*
X587142Y426045D01*
X587017Y425984D01*
X586891Y425927D01*
X586875Y425915D01*
X586857Y425906D01*
X586751Y425815D01*
X586642Y425729D01*
X586630Y425712D01*
X586615Y425699D01*
X586535Y425586D01*
X586451Y425475D01*
X586439Y425449D01*
X586432Y425439D01*
X586424Y425420D01*
X586380Y425330D01*
X585189Y422455D01*
X581759Y419025D01*
X577278Y417169D01*
X572427Y417169D01*
X567946Y419025D01*
X564516Y422455D01*
X563325Y425330D01*
X563317Y425345D01*
X563314Y425355D01*
X563290Y425393D01*
X563257Y425451D01*
X563192Y425574D01*
X563178Y425589D01*
X563168Y425606D01*
X563071Y425706D01*
X562978Y425809D01*
X562961Y425820D01*
X562947Y425835D01*
X562828Y425907D01*
X562712Y425984D01*
X562693Y425990D01*
X562675Y426001D01*
X562543Y426042D01*
X562411Y426087D01*
X562391Y426089D01*
X562372Y426095D01*
X562233Y426101D01*
X562094Y426112D01*
X562074Y426109D01*
X562054Y426110D01*
X561918Y426082D01*
X561781Y426058D01*
X561762Y426049D01*
X561742Y426045D01*
X561617Y425984D01*
X561491Y425927D01*
X561475Y425915D01*
X561457Y425906D01*
X561351Y425815D01*
X561242Y425729D01*
X561230Y425712D01*
X561215Y425699D01*
X561135Y425586D01*
X561051Y425475D01*
X561039Y425449D01*
X561032Y425439D01*
X561024Y425420D01*
X560980Y425330D01*
X559789Y422455D01*
X556359Y419025D01*
X555842Y418811D01*
X555799Y418786D01*
X555752Y418769D01*
X555661Y418708D01*
X555566Y418653D01*
X555530Y418619D01*
X555489Y418591D01*
X555416Y418508D01*
X555337Y418432D01*
X555311Y418390D01*
X555278Y418352D01*
X555229Y418255D01*
X555171Y418161D01*
X555156Y418113D01*
X555134Y418069D01*
X555110Y417962D01*
X555077Y417857D01*
X555075Y417807D01*
X555064Y417759D01*
X555068Y417649D01*
X555062Y417539D01*
X555072Y417491D01*
X555074Y417441D01*
X555104Y417335D01*
X555127Y417228D01*
X555148Y417183D01*
X555162Y417135D01*
X555218Y417041D01*
X555266Y416942D01*
X555299Y416904D01*
X555324Y416861D01*
X555430Y416741D01*
X556129Y416042D01*
X557328Y413148D01*
X557328Y295715D01*
X556129Y292821D01*
X553891Y290583D01*
X553854Y290562D01*
X553731Y290497D01*
X553716Y290484D01*
X553699Y290474D01*
X553599Y290377D01*
X553496Y290283D01*
X553485Y290266D01*
X553470Y290252D01*
X553398Y290134D01*
X553321Y290018D01*
X553314Y289999D01*
X553304Y289981D01*
X553263Y289849D01*
X553218Y289717D01*
X553216Y289697D01*
X553210Y289677D01*
X553204Y289539D01*
X553193Y289400D01*
X553196Y289380D01*
X553195Y289360D01*
X553223Y289224D01*
X553247Y289086D01*
X553255Y289068D01*
X553259Y289048D01*
X553321Y288923D01*
X553378Y288796D01*
X553390Y288781D01*
X553399Y288763D01*
X553489Y288657D01*
X553576Y288548D01*
X553592Y288536D01*
X553605Y288521D01*
X553719Y288441D01*
X553830Y288357D01*
X553855Y288344D01*
X553865Y288337D01*
X553884Y288330D01*
X553975Y288286D01*
X556359Y287298D01*
X559789Y283868D01*
X560987Y280976D01*
X561002Y280950D01*
X561011Y280921D01*
X561081Y280812D01*
X561145Y280699D01*
X561166Y280678D01*
X561182Y280653D01*
X561276Y280564D01*
X561366Y280471D01*
X561392Y280455D01*
X561414Y280435D01*
X561527Y280372D01*
X561637Y280305D01*
X561666Y280296D01*
X561692Y280281D01*
X561818Y280249D01*
X561941Y280211D01*
X561971Y280210D01*
X562000Y280202D01*
X562130Y280202D01*
X562259Y280196D01*
X562288Y280202D01*
X562318Y280202D01*
X562444Y280234D01*
X562570Y280260D01*
X562597Y280273D01*
X562626Y280281D01*
X562740Y280343D01*
X562856Y280400D01*
X562879Y280419D01*
X562905Y280434D01*
X562999Y280522D01*
X563098Y280606D01*
X563115Y280631D01*
X563137Y280651D01*
X563207Y280760D01*
X563281Y280866D01*
X563292Y280894D01*
X563308Y280919D01*
X563367Y281069D01*
X563553Y281642D01*
X564425Y283352D01*
X565553Y284905D01*
X566910Y286262D01*
X568462Y287390D01*
X570172Y288261D01*
X571998Y288854D01*
X572353Y288910D01*
X572353Y278192D01*
X572368Y278074D01*
X572376Y277955D01*
X572388Y277916D01*
X572393Y277876D01*
X572437Y277766D01*
X572474Y277652D01*
X572495Y277618D01*
X572510Y277581D01*
X572580Y277484D01*
X572644Y277384D01*
X572673Y277356D01*
X572697Y277323D01*
X572789Y277247D01*
X572876Y277166D01*
X572911Y277146D01*
X572942Y277120D01*
X573050Y277070D01*
X573154Y277012D01*
X573193Y277002D01*
X573230Y276985D01*
X573336Y276964D01*
X573307Y276961D01*
X573196Y276917D01*
X573083Y276880D01*
X573049Y276859D01*
X573012Y276844D01*
X572915Y276774D01*
X572815Y276710D01*
X572787Y276681D01*
X572754Y276657D01*
X572678Y276565D01*
X572597Y276479D01*
X572577Y276443D01*
X572551Y276412D01*
X572501Y276304D01*
X572443Y276200D01*
X572433Y276161D01*
X572416Y276124D01*
X572393Y276007D01*
X572364Y275892D01*
X572360Y275832D01*
X572356Y275812D01*
X572357Y275792D01*
X572353Y275731D01*
X572353Y265013D01*
X571998Y265069D01*
X570172Y265662D01*
X568462Y266533D01*
X566910Y267661D01*
X565553Y269019D01*
X564425Y270571D01*
X563553Y272281D01*
X563367Y272854D01*
X563355Y272881D01*
X563348Y272910D01*
X563287Y273025D01*
X563232Y273142D01*
X563213Y273165D01*
X563199Y273191D01*
X563112Y273287D01*
X563029Y273387D01*
X563005Y273404D01*
X562985Y273427D01*
X562876Y273498D01*
X562772Y273574D01*
X562744Y273585D01*
X562719Y273601D01*
X562596Y273644D01*
X562476Y273691D01*
X562447Y273695D01*
X562418Y273705D01*
X562289Y273715D01*
X562161Y273731D01*
X562131Y273727D01*
X562101Y273730D01*
X561974Y273708D01*
X561845Y273691D01*
X561817Y273680D01*
X561788Y273675D01*
X561670Y273622D01*
X561549Y273575D01*
X561525Y273557D01*
X561498Y273545D01*
X561397Y273464D01*
X561292Y273388D01*
X561273Y273365D01*
X561250Y273346D01*
X561172Y273243D01*
X561089Y273143D01*
X561076Y273116D01*
X561058Y273092D01*
X560987Y272948D01*
X559789Y270055D01*
X556359Y266625D01*
X551878Y264769D01*
X547027Y264769D01*
X542546Y266625D01*
X539116Y270055D01*
X537925Y272930D01*
X537857Y273051D01*
X537792Y273174D01*
X537778Y273189D01*
X537768Y273206D01*
X537671Y273306D01*
X537578Y273409D01*
X537561Y273420D01*
X537547Y273435D01*
X537428Y273507D01*
X537312Y273584D01*
X537293Y273590D01*
X537275Y273601D01*
X537143Y273642D01*
X537011Y273687D01*
X536991Y273689D01*
X536972Y273695D01*
X536833Y273701D01*
X536694Y273712D01*
X536674Y273709D01*
X536654Y273710D01*
X536518Y273682D01*
X536381Y273658D01*
X536362Y273649D01*
X536342Y273645D01*
X536217Y273584D01*
X536091Y273527D01*
X536075Y273515D01*
X536057Y273506D01*
X535951Y273415D01*
X535842Y273329D01*
X535830Y273312D01*
X535815Y273299D01*
X535735Y273186D01*
X535651Y273075D01*
X535639Y273049D01*
X535632Y273039D01*
X535624Y273020D01*
X535580Y272930D01*
X534389Y270055D01*
X530959Y266625D01*
X526478Y264769D01*
X521627Y264769D01*
X519351Y265712D01*
X519323Y265720D01*
X519296Y265733D01*
X519169Y265761D01*
X519044Y265796D01*
X519015Y265796D01*
X518986Y265803D01*
X518856Y265799D01*
X518726Y265801D01*
X518698Y265794D01*
X518668Y265793D01*
X518543Y265757D01*
X518417Y265727D01*
X518391Y265713D01*
X518363Y265705D01*
X518251Y265639D01*
X518136Y265578D01*
X518114Y265558D01*
X518089Y265543D01*
X517968Y265437D01*
X511340Y258809D01*
X511255Y258699D01*
X511166Y258592D01*
X511158Y258574D01*
X511145Y258558D01*
X511090Y258430D01*
X511031Y258304D01*
X511027Y258285D01*
X511019Y258266D01*
X510997Y258128D01*
X510971Y257992D01*
X510972Y257972D01*
X510969Y257952D01*
X510982Y257813D01*
X510991Y257675D01*
X510997Y257655D01*
X510999Y257635D01*
X511046Y257504D01*
X511089Y257372D01*
X511100Y257355D01*
X511107Y257336D01*
X511185Y257221D01*
X511259Y257103D01*
X511274Y257090D01*
X511285Y257073D01*
X511389Y256981D01*
X511491Y256886D01*
X511508Y256876D01*
X511524Y256862D01*
X511647Y256799D01*
X511769Y256732D01*
X511789Y256727D01*
X511807Y256718D01*
X511943Y256687D01*
X512077Y256653D01*
X512105Y256651D01*
X512117Y256648D01*
X512138Y256649D01*
X512238Y256642D01*
X604499Y256642D01*
X604597Y256655D01*
X604696Y256658D01*
X604754Y256675D01*
X604814Y256682D01*
X604906Y256719D01*
X605001Y256746D01*
X605053Y256777D01*
X605110Y256799D01*
X605190Y256857D01*
X605275Y256908D01*
X605351Y256974D01*
X605367Y256986D01*
X605375Y256995D01*
X605396Y257014D01*
X621470Y273088D01*
X621531Y273167D01*
X621599Y273239D01*
X621628Y273292D01*
X621665Y273340D01*
X621705Y273431D01*
X621752Y273517D01*
X621767Y273576D01*
X621792Y273631D01*
X621807Y273729D01*
X621832Y273825D01*
X621838Y273925D01*
X621841Y273946D01*
X621840Y273958D01*
X621842Y273986D01*
X621842Y296959D01*
X621830Y297057D01*
X621827Y297156D01*
X621810Y297214D01*
X621802Y297274D01*
X621766Y297367D01*
X621738Y297462D01*
X621707Y297514D01*
X621685Y297570D01*
X621627Y297650D01*
X621577Y297736D01*
X621510Y297811D01*
X621498Y297827D01*
X621489Y297835D01*
X621470Y297856D01*
X619785Y299542D01*
X618822Y301866D01*
X618822Y304381D01*
X619785Y306705D01*
X621563Y308484D01*
X623887Y309446D01*
X626402Y309446D01*
X628726Y308484D01*
X630505Y306705D01*
X631468Y304381D01*
X631468Y301866D01*
X630505Y299542D01*
X629835Y298872D01*
X629775Y298794D01*
X629707Y298722D01*
X629677Y298669D01*
X629640Y298621D01*
X629601Y298530D01*
X629553Y298444D01*
X629538Y298385D01*
X629514Y298329D01*
X629498Y298231D01*
X629474Y298136D01*
X629467Y298036D01*
X629464Y298015D01*
X629465Y298003D01*
X629464Y297975D01*
X629464Y270303D01*
X608181Y249021D01*
X419604Y249021D01*
X403174Y265452D01*
X403150Y265470D01*
X403131Y265492D01*
X403025Y265567D01*
X402922Y265646D01*
X402895Y265658D01*
X402871Y265675D01*
X402750Y265721D01*
X402631Y265773D01*
X402601Y265777D01*
X402574Y265788D01*
X402445Y265802D01*
X402316Y265823D01*
X402287Y265820D01*
X402258Y265823D01*
X402129Y265805D01*
X402000Y265793D01*
X401972Y265783D01*
X401943Y265779D01*
X401790Y265727D01*
X399478Y264769D01*
X394627Y264769D01*
X391317Y266140D01*
X391249Y266159D01*
X391185Y266186D01*
X391096Y266201D01*
X391010Y266224D01*
X390940Y266225D01*
X390871Y266236D01*
X390782Y266228D01*
X390692Y266229D01*
X390624Y266213D01*
X390555Y266206D01*
X390470Y266176D01*
X390383Y266155D01*
X390321Y266123D01*
X390255Y266099D01*
X390181Y266048D01*
X390101Y266006D01*
X390050Y265960D01*
X389992Y265920D01*
X389933Y265853D01*
X389866Y265793D01*
X389828Y265734D01*
X389782Y265682D01*
X389741Y265602D01*
X389691Y265527D01*
X389669Y265461D01*
X389637Y265399D01*
X389617Y265311D01*
X389588Y265226D01*
X389583Y265156D01*
X389567Y265088D01*
X389570Y264999D01*
X389563Y264909D01*
X389575Y264840D01*
X389577Y264770D01*
X389602Y264684D01*
X389617Y264596D01*
X389646Y264532D01*
X389665Y264465D01*
X389711Y264388D01*
X389748Y264306D01*
X389791Y264251D01*
X389827Y264191D01*
X389933Y264070D01*
X409689Y244314D01*
X409768Y244253D01*
X409840Y244186D01*
X409893Y244156D01*
X409941Y244119D01*
X410032Y244080D01*
X410118Y244032D01*
X410177Y244017D01*
X410233Y243993D01*
X410331Y243977D01*
X410426Y243953D01*
X410526Y243946D01*
X410547Y243943D01*
X410559Y243944D01*
X410587Y243942D01*
X607296Y243942D01*
X607394Y243955D01*
X607493Y243958D01*
X607552Y243975D01*
X607612Y243982D01*
X607704Y244019D01*
X607799Y244046D01*
X607851Y244077D01*
X607907Y244099D01*
X607987Y244157D01*
X608073Y244208D01*
X608148Y244274D01*
X608165Y244286D01*
X608172Y244295D01*
X608194Y244314D01*
X609371Y245492D01*
X611695Y246454D01*
X614210Y246454D01*
X616534Y245492D01*
X618313Y243713D01*
X619276Y241389D01*
X619276Y238874D01*
X618313Y236550D01*
X617458Y235695D01*
X617373Y235586D01*
X617284Y235478D01*
X617275Y235460D01*
X617263Y235444D01*
X617208Y235316D01*
X617149Y235190D01*
X617145Y235171D01*
X617137Y235152D01*
X617115Y235014D01*
X617089Y234878D01*
X617090Y234858D01*
X617087Y234838D01*
X617100Y234699D01*
X617108Y234561D01*
X617115Y234541D01*
X617117Y234521D01*
X617164Y234390D01*
X617207Y234258D01*
X617217Y234241D01*
X617224Y234222D01*
X617302Y234107D01*
X617377Y233989D01*
X617391Y233976D01*
X617403Y233959D01*
X617507Y233867D01*
X617608Y233772D01*
X617626Y233762D01*
X617641Y233748D01*
X617765Y233685D01*
X617887Y233618D01*
X617906Y233613D01*
X617924Y233604D01*
X618060Y233573D01*
X618195Y233539D01*
X618223Y233537D01*
X618235Y233534D01*
X618255Y233535D01*
X618355Y233528D01*
X626343Y233528D01*
X626441Y233541D01*
G37*
G36*
X702782Y5978D02*
X702782Y5978D01*
X702903Y5985D01*
X702940Y5997D01*
X702978Y6002D01*
X703091Y6046D01*
X703205Y6083D01*
X703238Y6104D01*
X703274Y6118D01*
X703372Y6189D01*
X703474Y6253D01*
X703501Y6282D01*
X703532Y6305D01*
X703609Y6397D01*
X703692Y6485D01*
X703711Y6519D01*
X703736Y6549D01*
X703787Y6658D01*
X703845Y6764D01*
X703855Y6801D01*
X703872Y6837D01*
X703895Y6955D01*
X703925Y7071D01*
X703928Y7129D01*
X703932Y7149D01*
X703931Y7169D01*
X703935Y7232D01*
X703935Y114634D01*
X703918Y114772D01*
X703904Y114911D01*
X703898Y114930D01*
X703895Y114950D01*
X703844Y115079D01*
X703797Y115210D01*
X703785Y115227D01*
X703778Y115246D01*
X703697Y115358D01*
X703618Y115473D01*
X703603Y115487D01*
X703591Y115503D01*
X703484Y115591D01*
X703380Y115684D01*
X703362Y115693D01*
X703346Y115706D01*
X703221Y115765D01*
X703097Y115828D01*
X703077Y115833D01*
X703058Y115841D01*
X702922Y115867D01*
X702786Y115898D01*
X702766Y115897D01*
X702746Y115901D01*
X702608Y115892D01*
X702468Y115888D01*
X702449Y115882D01*
X702429Y115881D01*
X702297Y115838D01*
X702163Y115800D01*
X702145Y115789D01*
X702126Y115783D01*
X702009Y115709D01*
X701889Y115638D01*
X701868Y115620D01*
X701858Y115613D01*
X701844Y115598D01*
X701768Y115532D01*
X644567Y58331D01*
X641963Y55727D01*
X583307Y55727D01*
X583209Y55714D01*
X583110Y55711D01*
X583052Y55695D01*
X582991Y55687D01*
X582899Y55651D01*
X582804Y55623D01*
X582752Y55592D01*
X582696Y55570D01*
X582616Y55512D01*
X582530Y55462D01*
X582455Y55395D01*
X582438Y55383D01*
X582431Y55374D01*
X582409Y55355D01*
X571859Y44805D01*
X488946Y44805D01*
X481190Y52561D01*
X481112Y52622D01*
X481040Y52690D01*
X480987Y52719D01*
X480939Y52756D01*
X480848Y52795D01*
X480761Y52843D01*
X480703Y52858D01*
X480647Y52882D01*
X480549Y52898D01*
X480453Y52923D01*
X480353Y52929D01*
X480333Y52932D01*
X480321Y52931D01*
X480293Y52933D01*
X464431Y52933D01*
X464294Y52916D01*
X464155Y52902D01*
X464136Y52896D01*
X464116Y52893D01*
X463987Y52842D01*
X463856Y52795D01*
X463839Y52783D01*
X463820Y52776D01*
X463708Y52694D01*
X463593Y52616D01*
X463579Y52601D01*
X463563Y52589D01*
X463474Y52482D01*
X463382Y52378D01*
X463373Y52360D01*
X463360Y52344D01*
X463301Y52218D01*
X463238Y52095D01*
X463233Y52075D01*
X463224Y52056D01*
X463198Y51920D01*
X463168Y51784D01*
X463169Y51764D01*
X463165Y51744D01*
X463173Y51606D01*
X463178Y51466D01*
X463183Y51447D01*
X463184Y51427D01*
X463227Y51295D01*
X463266Y51161D01*
X463276Y51143D01*
X463282Y51124D01*
X463357Y51006D01*
X463428Y50887D01*
X463446Y50866D01*
X463453Y50855D01*
X463460Y50849D01*
X463460Y50848D01*
X463470Y50839D01*
X463534Y50766D01*
X465151Y49149D01*
X466113Y46825D01*
X466113Y45668D01*
X466126Y45570D01*
X466129Y45471D01*
X466146Y45412D01*
X466153Y45352D01*
X466190Y45260D01*
X466217Y45165D01*
X466248Y45113D01*
X466270Y45057D01*
X466328Y44977D01*
X466379Y44891D01*
X466445Y44816D01*
X466457Y44799D01*
X466467Y44791D01*
X466485Y44770D01*
X469379Y41876D01*
X469458Y41815D01*
X469530Y41748D01*
X469583Y41718D01*
X469631Y41681D01*
X469722Y41642D01*
X469808Y41594D01*
X469867Y41579D01*
X469923Y41555D01*
X470021Y41539D01*
X470116Y41515D01*
X470216Y41508D01*
X470237Y41505D01*
X470249Y41506D01*
X470277Y41504D01*
X621012Y41504D01*
X621110Y41517D01*
X621209Y41520D01*
X621268Y41537D01*
X621328Y41544D01*
X621420Y41581D01*
X621515Y41608D01*
X621567Y41639D01*
X621623Y41661D01*
X621703Y41719D01*
X621789Y41770D01*
X621864Y41836D01*
X621881Y41848D01*
X621888Y41857D01*
X621910Y41876D01*
X623087Y43054D01*
X625411Y44016D01*
X627926Y44016D01*
X630250Y43054D01*
X632029Y41275D01*
X632992Y38951D01*
X632992Y36436D01*
X632029Y34112D01*
X630250Y32333D01*
X627926Y31371D01*
X625411Y31371D01*
X623087Y32333D01*
X621910Y33511D01*
X621831Y33572D01*
X621759Y33640D01*
X621706Y33669D01*
X621658Y33706D01*
X621567Y33745D01*
X621481Y33793D01*
X621422Y33808D01*
X621366Y33832D01*
X621268Y33848D01*
X621173Y33873D01*
X621073Y33879D01*
X621052Y33882D01*
X621040Y33881D01*
X621012Y33883D01*
X466594Y33883D01*
X461604Y38873D01*
X461526Y38934D01*
X461454Y39002D01*
X461401Y39031D01*
X461353Y39068D01*
X461262Y39107D01*
X461175Y39155D01*
X461117Y39170D01*
X461061Y39194D01*
X460963Y39210D01*
X460867Y39235D01*
X460767Y39241D01*
X460747Y39244D01*
X460735Y39243D01*
X460707Y39245D01*
X458533Y39245D01*
X456209Y40207D01*
X454431Y41986D01*
X453468Y44310D01*
X453468Y46825D01*
X454431Y49149D01*
X456048Y50766D01*
X456133Y50876D01*
X456221Y50983D01*
X456230Y51001D01*
X456243Y51017D01*
X456298Y51145D01*
X456357Y51271D01*
X456361Y51291D01*
X456369Y51309D01*
X456391Y51447D01*
X456417Y51583D01*
X456416Y51603D01*
X456419Y51623D01*
X456406Y51762D01*
X456397Y51901D01*
X456391Y51920D01*
X456389Y51940D01*
X456342Y52071D01*
X456299Y52203D01*
X456288Y52220D01*
X456281Y52239D01*
X456203Y52354D01*
X456129Y52472D01*
X456114Y52486D01*
X456103Y52502D01*
X455998Y52594D01*
X455897Y52690D01*
X455880Y52699D01*
X455864Y52713D01*
X455740Y52776D01*
X455619Y52843D01*
X455599Y52848D01*
X455581Y52857D01*
X455445Y52888D01*
X455311Y52923D01*
X455283Y52924D01*
X455271Y52927D01*
X455250Y52926D01*
X455150Y52933D01*
X436241Y52933D01*
X436143Y52920D01*
X436044Y52917D01*
X435986Y52901D01*
X435925Y52893D01*
X435833Y52857D01*
X435738Y52829D01*
X435686Y52798D01*
X435630Y52776D01*
X435550Y52718D01*
X435464Y52668D01*
X435389Y52601D01*
X435372Y52589D01*
X435368Y52584D01*
X435365Y52581D01*
X435360Y52575D01*
X435343Y52561D01*
X405743Y22961D01*
X261489Y22961D01*
X261391Y22948D01*
X261292Y22945D01*
X261234Y22929D01*
X261173Y22921D01*
X261081Y22885D01*
X260986Y22857D01*
X260934Y22826D01*
X260878Y22804D01*
X260798Y22746D01*
X260712Y22696D01*
X260637Y22629D01*
X260620Y22617D01*
X260613Y22608D01*
X260591Y22589D01*
X259475Y21473D01*
X259415Y21395D01*
X259347Y21323D01*
X259317Y21270D01*
X259280Y21222D01*
X259241Y21131D01*
X259193Y21044D01*
X259178Y20985D01*
X259154Y20930D01*
X259138Y20832D01*
X259114Y20736D01*
X259107Y20636D01*
X259104Y20616D01*
X259105Y20603D01*
X259103Y20575D01*
X259103Y18910D01*
X258141Y16586D01*
X256362Y14807D01*
X254038Y13845D01*
X251523Y13845D01*
X249199Y14807D01*
X247421Y16586D01*
X246458Y18910D01*
X246458Y21425D01*
X247421Y23749D01*
X249199Y25528D01*
X251579Y26513D01*
X251639Y26548D01*
X251704Y26574D01*
X251777Y26626D01*
X251855Y26671D01*
X251905Y26719D01*
X251962Y26760D01*
X252019Y26830D01*
X252083Y26892D01*
X252120Y26952D01*
X252164Y27005D01*
X252203Y27087D01*
X252250Y27163D01*
X252270Y27230D01*
X252300Y27293D01*
X252317Y27381D01*
X252343Y27467D01*
X252347Y27537D01*
X252360Y27606D01*
X252354Y27695D01*
X252358Y27785D01*
X252344Y27853D01*
X252340Y27923D01*
X252312Y28008D01*
X252294Y28096D01*
X252263Y28159D01*
X252242Y28225D01*
X252194Y28301D01*
X252154Y28382D01*
X252109Y28435D01*
X252072Y28494D01*
X252006Y28556D01*
X251948Y28624D01*
X251891Y28664D01*
X251840Y28712D01*
X251762Y28755D01*
X251688Y28807D01*
X251623Y28832D01*
X251562Y28866D01*
X251475Y28888D01*
X251391Y28920D01*
X251321Y28928D01*
X251254Y28945D01*
X251093Y28955D01*
X189341Y28955D01*
X189272Y28947D01*
X189202Y28948D01*
X189115Y28927D01*
X189026Y28915D01*
X188961Y28890D01*
X188893Y28873D01*
X188814Y28831D01*
X188730Y28798D01*
X188674Y28757D01*
X188612Y28725D01*
X188546Y28664D01*
X188473Y28612D01*
X188428Y28558D01*
X188377Y28511D01*
X188327Y28436D01*
X188270Y28367D01*
X188240Y28303D01*
X188202Y28245D01*
X188173Y28160D01*
X188134Y28079D01*
X188121Y28010D01*
X188099Y27944D01*
X188092Y27855D01*
X188075Y27767D01*
X188079Y27697D01*
X188073Y27627D01*
X188089Y27539D01*
X188094Y27449D01*
X188116Y27383D01*
X188128Y27314D01*
X188165Y27232D01*
X188192Y27147D01*
X188230Y27088D01*
X188258Y27024D01*
X188315Y26954D01*
X188363Y26878D01*
X188413Y26830D01*
X188457Y26776D01*
X188529Y26721D01*
X188594Y26660D01*
X188655Y26626D01*
X188711Y26584D01*
X188856Y26513D01*
X189764Y26137D01*
X191542Y24359D01*
X192505Y22035D01*
X192505Y19519D01*
X191542Y17196D01*
X189764Y15417D01*
X187440Y14454D01*
X184924Y14454D01*
X182600Y15417D01*
X181423Y16595D01*
X181345Y16655D01*
X181272Y16723D01*
X181219Y16752D01*
X181172Y16790D01*
X181081Y16829D01*
X180994Y16877D01*
X180935Y16892D01*
X180880Y16916D01*
X180782Y16932D01*
X180686Y16956D01*
X180586Y16963D01*
X180566Y16966D01*
X180553Y16965D01*
X180525Y16966D01*
X52981Y16966D01*
X50377Y19570D01*
X8822Y61125D01*
X8712Y61210D01*
X8605Y61299D01*
X8587Y61307D01*
X8571Y61320D01*
X8443Y61375D01*
X8318Y61434D01*
X8298Y61438D01*
X8279Y61446D01*
X8141Y61468D01*
X8005Y61494D01*
X7985Y61493D01*
X7965Y61496D01*
X7826Y61483D01*
X7688Y61474D01*
X7669Y61468D01*
X7648Y61466D01*
X7517Y61419D01*
X7385Y61376D01*
X7368Y61365D01*
X7349Y61359D01*
X7234Y61281D01*
X7117Y61206D01*
X7103Y61191D01*
X7086Y61180D01*
X6994Y61076D01*
X6899Y60975D01*
X6889Y60957D01*
X6876Y60942D01*
X6812Y60818D01*
X6745Y60696D01*
X6740Y60676D01*
X6731Y60658D01*
X6700Y60523D01*
X6666Y60388D01*
X6664Y60360D01*
X6661Y60348D01*
X6662Y60328D01*
X6656Y60227D01*
X6656Y8770D01*
X6670Y8653D01*
X6677Y8536D01*
X6690Y8496D01*
X6695Y8454D01*
X6739Y8345D01*
X6775Y8233D01*
X6797Y8197D01*
X6812Y8159D01*
X6882Y8063D01*
X6944Y7964D01*
X6975Y7935D01*
X6999Y7901D01*
X7090Y7826D01*
X7175Y7745D01*
X7212Y7725D01*
X7244Y7698D01*
X7351Y7648D01*
X7454Y7591D01*
X7494Y7581D01*
X7532Y7563D01*
X7647Y7541D01*
X7761Y7511D01*
X7824Y7507D01*
X7844Y7503D01*
X7864Y7504D01*
X7922Y7501D01*
X702663Y5963D01*
X702782Y5978D01*
G37*
G36*
X462255Y190513D02*
X462255Y190513D01*
X462354Y190516D01*
X462412Y190533D01*
X462473Y190541D01*
X462565Y190577D01*
X462660Y190605D01*
X462712Y190635D01*
X462768Y190658D01*
X462848Y190716D01*
X462934Y190766D01*
X463009Y190832D01*
X463026Y190844D01*
X463033Y190854D01*
X463054Y190872D01*
X491958Y219776D01*
X492019Y219855D01*
X492087Y219927D01*
X492116Y219980D01*
X492153Y220028D01*
X492193Y220119D01*
X492240Y220205D01*
X492255Y220264D01*
X492280Y220319D01*
X492295Y220417D01*
X492320Y220513D01*
X492326Y220613D01*
X492329Y220634D01*
X492328Y220646D01*
X492330Y220674D01*
X492330Y222339D01*
X493081Y224152D01*
X493094Y224200D01*
X493115Y224245D01*
X493136Y224353D01*
X493165Y224459D01*
X493166Y224508D01*
X493175Y224557D01*
X493168Y224667D01*
X493170Y224777D01*
X493158Y224825D01*
X493155Y224875D01*
X493121Y224979D01*
X493096Y225086D01*
X493072Y225130D01*
X493057Y225177D01*
X492998Y225270D01*
X492947Y225367D01*
X492914Y225404D01*
X492887Y225446D01*
X492807Y225521D01*
X492733Y225602D01*
X492692Y225630D01*
X492655Y225664D01*
X492559Y225717D01*
X492467Y225777D01*
X492420Y225793D01*
X492377Y225817D01*
X492271Y225845D01*
X492167Y225880D01*
X492117Y225884D01*
X492069Y225897D01*
X491908Y225907D01*
X488053Y225907D01*
X487955Y225894D01*
X487856Y225891D01*
X487798Y225875D01*
X487738Y225867D01*
X487646Y225831D01*
X487551Y225803D01*
X487499Y225772D01*
X487442Y225750D01*
X487362Y225692D01*
X487277Y225642D01*
X487201Y225575D01*
X487185Y225563D01*
X487177Y225554D01*
X487156Y225535D01*
X485978Y224357D01*
X483654Y223395D01*
X481139Y223395D01*
X478815Y224357D01*
X477037Y226136D01*
X476074Y228460D01*
X476074Y230975D01*
X477037Y233299D01*
X477892Y234154D01*
X477976Y234263D01*
X478066Y234371D01*
X478074Y234389D01*
X478087Y234405D01*
X478142Y234533D01*
X478201Y234659D01*
X478205Y234679D01*
X478213Y234697D01*
X478235Y234835D01*
X478261Y234971D01*
X478260Y234991D01*
X478263Y235011D01*
X478250Y235150D01*
X478241Y235289D01*
X478235Y235308D01*
X478233Y235328D01*
X478186Y235459D01*
X478143Y235591D01*
X478132Y235608D01*
X478125Y235627D01*
X478047Y235742D01*
X477973Y235860D01*
X477958Y235874D01*
X477947Y235890D01*
X477843Y235982D01*
X477741Y236078D01*
X477723Y236087D01*
X477708Y236101D01*
X477585Y236164D01*
X477463Y236231D01*
X477443Y236236D01*
X477425Y236245D01*
X477289Y236276D01*
X477155Y236311D01*
X477127Y236312D01*
X477115Y236315D01*
X477094Y236314D01*
X476994Y236321D01*
X406904Y236321D01*
X377774Y265452D01*
X377750Y265470D01*
X377731Y265492D01*
X377625Y265567D01*
X377522Y265646D01*
X377495Y265658D01*
X377471Y265675D01*
X377350Y265721D01*
X377231Y265773D01*
X377201Y265777D01*
X377174Y265788D01*
X377045Y265802D01*
X376916Y265823D01*
X376887Y265820D01*
X376858Y265823D01*
X376729Y265805D01*
X376600Y265793D01*
X376572Y265783D01*
X376543Y265779D01*
X376390Y265727D01*
X374078Y264769D01*
X369227Y264769D01*
X364746Y266625D01*
X361316Y270055D01*
X360125Y272930D01*
X360057Y273051D01*
X359992Y273174D01*
X359978Y273189D01*
X359968Y273206D01*
X359871Y273306D01*
X359778Y273409D01*
X359761Y273420D01*
X359747Y273435D01*
X359628Y273507D01*
X359512Y273584D01*
X359493Y273590D01*
X359475Y273601D01*
X359343Y273642D01*
X359211Y273687D01*
X359191Y273689D01*
X359172Y273695D01*
X359033Y273701D01*
X358894Y273712D01*
X358874Y273709D01*
X358854Y273710D01*
X358718Y273682D01*
X358581Y273658D01*
X358562Y273649D01*
X358542Y273645D01*
X358417Y273584D01*
X358291Y273527D01*
X358275Y273515D01*
X358257Y273506D01*
X358150Y273415D01*
X358042Y273329D01*
X358030Y273313D01*
X358015Y273299D01*
X357934Y273185D01*
X357851Y273075D01*
X357839Y273049D01*
X357832Y273039D01*
X357824Y273020D01*
X357780Y272930D01*
X356589Y270055D01*
X353159Y266625D01*
X350847Y265667D01*
X350821Y265653D01*
X350793Y265644D01*
X350684Y265574D01*
X350571Y265510D01*
X350550Y265489D01*
X350525Y265473D01*
X350436Y265379D01*
X350342Y265288D01*
X350327Y265263D01*
X350307Y265242D01*
X350244Y265128D01*
X350176Y265017D01*
X350167Y264989D01*
X350153Y264963D01*
X350121Y264838D01*
X350083Y264713D01*
X350081Y264684D01*
X350074Y264655D01*
X350064Y264495D01*
X350064Y244903D01*
X347459Y242299D01*
X343476Y238315D01*
X340872Y235711D01*
X337715Y235711D01*
X337477Y235949D01*
X337399Y236010D01*
X337327Y236078D01*
X337274Y236107D01*
X337226Y236144D01*
X337135Y236183D01*
X337048Y236231D01*
X336989Y236246D01*
X336934Y236270D01*
X336836Y236286D01*
X336740Y236311D01*
X336640Y236317D01*
X336620Y236320D01*
X336607Y236319D01*
X336579Y236321D01*
X312077Y236321D01*
X312028Y236315D01*
X311978Y236317D01*
X311871Y236295D01*
X311762Y236281D01*
X311715Y236263D01*
X311667Y236253D01*
X311568Y236204D01*
X311466Y236164D01*
X311426Y236135D01*
X311381Y236113D01*
X311298Y236042D01*
X311209Y235977D01*
X311177Y235939D01*
X311139Y235907D01*
X311076Y235817D01*
X311006Y235732D01*
X310985Y235687D01*
X310956Y235647D01*
X310917Y235544D01*
X310870Y235444D01*
X310861Y235396D01*
X310843Y235349D01*
X310831Y235240D01*
X310811Y235132D01*
X310814Y235083D01*
X310808Y235033D01*
X310823Y234924D01*
X310830Y234815D01*
X310846Y234767D01*
X310853Y234718D01*
X310905Y234566D01*
X311529Y233058D01*
X311529Y230543D01*
X310567Y228219D01*
X308788Y226440D01*
X306464Y225478D01*
X304799Y225478D01*
X304700Y225465D01*
X304601Y225462D01*
X304543Y225445D01*
X304483Y225438D01*
X304391Y225401D01*
X304296Y225374D01*
X304244Y225343D01*
X304187Y225321D01*
X304107Y225263D01*
X304022Y225212D01*
X303947Y225146D01*
X303930Y225134D01*
X303922Y225125D01*
X303901Y225106D01*
X301451Y222656D01*
X281806Y222656D01*
X281707Y222643D01*
X281608Y222640D01*
X281550Y222623D01*
X281490Y222616D01*
X281398Y222579D01*
X281303Y222552D01*
X281251Y222521D01*
X281194Y222499D01*
X281114Y222441D01*
X281029Y222390D01*
X280954Y222324D01*
X280937Y222312D01*
X280929Y222302D01*
X280908Y222284D01*
X279638Y221014D01*
X279553Y220905D01*
X279464Y220797D01*
X279455Y220779D01*
X279443Y220763D01*
X279388Y220635D01*
X279329Y220509D01*
X279325Y220489D01*
X279317Y220471D01*
X279295Y220333D01*
X279269Y220197D01*
X279270Y220177D01*
X279267Y220157D01*
X279280Y220018D01*
X279288Y219879D01*
X279295Y219860D01*
X279297Y219840D01*
X279344Y219709D01*
X279387Y219577D01*
X279397Y219560D01*
X279404Y219541D01*
X279482Y219426D01*
X279557Y219308D01*
X279571Y219294D01*
X279583Y219278D01*
X279687Y219186D01*
X279788Y219090D01*
X279806Y219081D01*
X279821Y219067D01*
X279945Y219004D01*
X280067Y218937D01*
X280086Y218932D01*
X280104Y218923D01*
X280240Y218892D01*
X280375Y218857D01*
X280403Y218856D01*
X280415Y218853D01*
X280435Y218853D01*
X280535Y218847D01*
X292154Y218847D01*
X303037Y207964D01*
X303116Y207903D01*
X303188Y207836D01*
X303241Y207806D01*
X303289Y207769D01*
X303380Y207730D01*
X303466Y207682D01*
X303525Y207667D01*
X303581Y207643D01*
X303679Y207627D01*
X303774Y207603D01*
X303874Y207596D01*
X303895Y207593D01*
X303907Y207594D01*
X303935Y207592D01*
X305600Y207592D01*
X307924Y206630D01*
X309703Y204851D01*
X310666Y202527D01*
X310666Y200012D01*
X309703Y197688D01*
X307924Y195909D01*
X305600Y194947D01*
X303085Y194947D01*
X300761Y195909D01*
X298983Y197688D01*
X298020Y200012D01*
X298020Y201677D01*
X298008Y201776D01*
X298005Y201875D01*
X297988Y201933D01*
X297980Y201993D01*
X297944Y202085D01*
X297916Y202180D01*
X297885Y202232D01*
X297863Y202289D01*
X297805Y202369D01*
X297755Y202454D01*
X297688Y202529D01*
X297676Y202546D01*
X297667Y202554D01*
X297648Y202575D01*
X289369Y210854D01*
X289291Y210915D01*
X289219Y210982D01*
X289166Y211012D01*
X289118Y211049D01*
X289027Y211088D01*
X288940Y211136D01*
X288882Y211151D01*
X288826Y211175D01*
X288728Y211191D01*
X288632Y211215D01*
X288532Y211222D01*
X288512Y211225D01*
X288500Y211224D01*
X288472Y211226D01*
X81863Y211226D01*
X75270Y217819D01*
X75192Y217879D01*
X75120Y217947D01*
X75067Y217976D01*
X75019Y218014D01*
X74928Y218053D01*
X74841Y218101D01*
X74783Y218116D01*
X74727Y218140D01*
X74629Y218156D01*
X74533Y218180D01*
X74433Y218187D01*
X74413Y218190D01*
X74401Y218189D01*
X74373Y218190D01*
X72707Y218190D01*
X70383Y219153D01*
X68605Y220932D01*
X67642Y223255D01*
X67642Y225771D01*
X68605Y228095D01*
X70383Y229873D01*
X72707Y230836D01*
X75222Y230836D01*
X77546Y229873D01*
X79325Y228095D01*
X80288Y225771D01*
X80288Y224105D01*
X80300Y224007D01*
X80303Y223908D01*
X80320Y223850D01*
X80327Y223790D01*
X80364Y223698D01*
X80391Y223603D01*
X80422Y223550D01*
X80444Y223494D01*
X80503Y223414D01*
X80553Y223329D01*
X80619Y223253D01*
X80631Y223237D01*
X80641Y223229D01*
X80659Y223208D01*
X84648Y219219D01*
X84727Y219158D01*
X84799Y219090D01*
X84852Y219061D01*
X84900Y219024D01*
X84991Y218985D01*
X85077Y218937D01*
X85136Y218922D01*
X85191Y218898D01*
X85289Y218882D01*
X85385Y218857D01*
X85485Y218851D01*
X85506Y218848D01*
X85518Y218849D01*
X85546Y218847D01*
X271762Y218847D01*
X271900Y218864D01*
X272039Y218878D01*
X272058Y218884D01*
X272078Y218887D01*
X272207Y218938D01*
X272338Y218985D01*
X272355Y218997D01*
X272373Y219004D01*
X272486Y219086D01*
X272601Y219164D01*
X272614Y219179D01*
X272631Y219191D01*
X272720Y219298D01*
X272811Y219402D01*
X272821Y219420D01*
X272834Y219436D01*
X272893Y219562D01*
X272956Y219685D01*
X272960Y219705D01*
X272969Y219724D01*
X272995Y219860D01*
X273026Y219996D01*
X273025Y220016D01*
X273029Y220036D01*
X273020Y220174D01*
X273016Y220314D01*
X273010Y220333D01*
X273009Y220353D01*
X272966Y220485D01*
X272928Y220619D01*
X272917Y220637D01*
X272911Y220656D01*
X272837Y220774D01*
X272766Y220893D01*
X272748Y220914D01*
X272741Y220924D01*
X272726Y220939D01*
X272660Y221014D01*
X270789Y222885D01*
X269826Y225209D01*
X269826Y227724D01*
X270789Y230048D01*
X272567Y231827D01*
X274891Y232789D01*
X277407Y232789D01*
X279730Y231827D01*
X280908Y230649D01*
X280986Y230588D01*
X281058Y230520D01*
X281111Y230491D01*
X281159Y230454D01*
X281250Y230415D01*
X281337Y230367D01*
X281395Y230352D01*
X281451Y230328D01*
X281549Y230312D01*
X281645Y230287D01*
X281745Y230281D01*
X281765Y230278D01*
X281778Y230279D01*
X281806Y230277D01*
X297614Y230277D01*
X297733Y230292D01*
X297851Y230299D01*
X297890Y230312D01*
X297930Y230317D01*
X298041Y230361D01*
X298154Y230397D01*
X298188Y230419D01*
X298226Y230434D01*
X298322Y230504D01*
X298423Y230568D01*
X298450Y230597D01*
X298483Y230621D01*
X298559Y230713D01*
X298640Y230799D01*
X298660Y230835D01*
X298686Y230866D01*
X298737Y230973D01*
X298794Y231078D01*
X298804Y231117D01*
X298821Y231154D01*
X298844Y231270D01*
X298873Y231386D01*
X298877Y231446D01*
X298881Y231466D01*
X298880Y231486D01*
X298884Y231546D01*
X298884Y233058D01*
X299508Y234566D01*
X299521Y234614D01*
X299543Y234659D01*
X299563Y234767D01*
X299592Y234873D01*
X299593Y234922D01*
X299602Y234971D01*
X299595Y235081D01*
X299597Y235191D01*
X299586Y235239D01*
X299583Y235289D01*
X299549Y235393D01*
X299523Y235500D01*
X299500Y235544D01*
X299485Y235591D01*
X299426Y235684D01*
X299374Y235781D01*
X299341Y235818D01*
X299314Y235860D01*
X299234Y235935D01*
X299160Y236016D01*
X299119Y236044D01*
X299083Y236078D01*
X298987Y236131D01*
X298895Y236191D01*
X298848Y236207D01*
X298804Y236231D01*
X298698Y236259D01*
X298594Y236294D01*
X298544Y236298D01*
X298496Y236311D01*
X298336Y236321D01*
X48815Y236321D01*
X47127Y238009D01*
X47049Y238070D01*
X46977Y238138D01*
X46924Y238167D01*
X46876Y238204D01*
X46785Y238243D01*
X46698Y238291D01*
X46639Y238306D01*
X46584Y238330D01*
X46486Y238346D01*
X46390Y238371D01*
X46290Y238377D01*
X46270Y238380D01*
X46257Y238379D01*
X46229Y238381D01*
X44564Y238381D01*
X42240Y239343D01*
X41842Y239741D01*
X41732Y239826D01*
X41625Y239915D01*
X41607Y239924D01*
X41591Y239936D01*
X41463Y239992D01*
X41338Y240051D01*
X41318Y240054D01*
X41299Y240063D01*
X41161Y240084D01*
X41025Y240110D01*
X41005Y240109D01*
X40985Y240112D01*
X40846Y240099D01*
X40708Y240091D01*
X40689Y240084D01*
X40668Y240083D01*
X40538Y240036D01*
X40405Y239993D01*
X40388Y239982D01*
X40369Y239975D01*
X40254Y239897D01*
X40137Y239823D01*
X40123Y239808D01*
X40106Y239796D01*
X40014Y239692D01*
X39919Y239591D01*
X39909Y239573D01*
X39896Y239558D01*
X39832Y239434D01*
X39765Y239312D01*
X39760Y239293D01*
X39751Y239275D01*
X39720Y239139D01*
X39686Y239004D01*
X39684Y238976D01*
X39681Y238964D01*
X39682Y238944D01*
X39676Y238844D01*
X39676Y211498D01*
X39688Y211400D01*
X39691Y211301D01*
X39708Y211243D01*
X39715Y211183D01*
X39752Y211091D01*
X39779Y210996D01*
X39810Y210943D01*
X39832Y210887D01*
X39891Y210807D01*
X39941Y210722D01*
X40007Y210646D01*
X40019Y210630D01*
X40029Y210622D01*
X40047Y210601D01*
X41225Y209423D01*
X42188Y207099D01*
X42188Y204584D01*
X41225Y202260D01*
X40624Y201659D01*
X40539Y201550D01*
X40450Y201442D01*
X40441Y201424D01*
X40429Y201408D01*
X40374Y201280D01*
X40315Y201154D01*
X40311Y201135D01*
X40303Y201116D01*
X40281Y200978D01*
X40255Y200842D01*
X40256Y200822D01*
X40253Y200802D01*
X40266Y200663D01*
X40274Y200525D01*
X40281Y200505D01*
X40283Y200485D01*
X40330Y200354D01*
X40373Y200222D01*
X40383Y200205D01*
X40390Y200186D01*
X40468Y200071D01*
X40543Y199953D01*
X40557Y199940D01*
X40569Y199923D01*
X40673Y199831D01*
X40774Y199736D01*
X40792Y199726D01*
X40807Y199712D01*
X40931Y199649D01*
X41053Y199582D01*
X41072Y199577D01*
X41090Y199568D01*
X41226Y199537D01*
X41361Y199503D01*
X41389Y199501D01*
X41401Y199498D01*
X41421Y199499D01*
X41521Y199492D01*
X187208Y199492D01*
X187306Y199505D01*
X187405Y199508D01*
X187464Y199525D01*
X187524Y199532D01*
X187616Y199569D01*
X187711Y199596D01*
X187763Y199627D01*
X187819Y199649D01*
X187899Y199707D01*
X187985Y199758D01*
X188060Y199824D01*
X188077Y199836D01*
X188084Y199845D01*
X188106Y199864D01*
X188747Y200506D01*
X191071Y201468D01*
X193586Y201468D01*
X195910Y200506D01*
X197689Y198727D01*
X198652Y196403D01*
X198652Y193888D01*
X197975Y192256D01*
X197962Y192208D01*
X197941Y192163D01*
X197921Y192055D01*
X197891Y191949D01*
X197891Y191899D01*
X197881Y191850D01*
X197888Y191741D01*
X197886Y191631D01*
X197898Y191583D01*
X197901Y191533D01*
X197935Y191429D01*
X197961Y191322D01*
X197984Y191278D01*
X197999Y191231D01*
X198058Y191138D01*
X198109Y191041D01*
X198143Y191004D01*
X198169Y190962D01*
X198249Y190887D01*
X198323Y190805D01*
X198365Y190778D01*
X198401Y190744D01*
X198497Y190691D01*
X198589Y190631D01*
X198636Y190614D01*
X198679Y190590D01*
X198786Y190563D01*
X198890Y190527D01*
X198939Y190523D01*
X198987Y190511D01*
X199148Y190501D01*
X462157Y190501D01*
X462255Y190513D01*
G37*
G36*
X680362Y470088D02*
X680362Y470088D01*
X680500Y470097D01*
X680519Y470103D01*
X680539Y470105D01*
X680670Y470152D01*
X680802Y470195D01*
X680819Y470206D01*
X680838Y470213D01*
X680953Y470291D01*
X681071Y470365D01*
X681085Y470380D01*
X681102Y470391D01*
X681193Y470495D01*
X681289Y470597D01*
X681299Y470614D01*
X681312Y470630D01*
X681375Y470753D01*
X681442Y470875D01*
X681447Y470895D01*
X681457Y470913D01*
X681487Y471049D01*
X681522Y471183D01*
X681524Y471211D01*
X681526Y471223D01*
X681526Y471244D01*
X681532Y471344D01*
X681532Y479581D01*
X681520Y479680D01*
X681517Y479779D01*
X681500Y479837D01*
X681492Y479897D01*
X681456Y479989D01*
X681428Y480084D01*
X681397Y480136D01*
X681375Y480193D01*
X681317Y480273D01*
X681267Y480358D01*
X681200Y480433D01*
X681188Y480450D01*
X681179Y480458D01*
X681160Y480479D01*
X523354Y638285D01*
X523276Y638346D01*
X523204Y638414D01*
X523151Y638443D01*
X523103Y638480D01*
X523012Y638519D01*
X522925Y638567D01*
X522867Y638582D01*
X522811Y638606D01*
X522713Y638622D01*
X522617Y638647D01*
X522517Y638653D01*
X522497Y638656D01*
X522485Y638655D01*
X522457Y638657D01*
X509055Y638657D01*
X508917Y638640D01*
X508778Y638626D01*
X508759Y638620D01*
X508739Y638617D01*
X508610Y638566D01*
X508479Y638519D01*
X508462Y638507D01*
X508444Y638500D01*
X508331Y638418D01*
X508216Y638340D01*
X508203Y638325D01*
X508186Y638313D01*
X508097Y638206D01*
X508006Y638102D01*
X507996Y638084D01*
X507983Y638068D01*
X507924Y637942D01*
X507861Y637819D01*
X507857Y637799D01*
X507848Y637780D01*
X507822Y637644D01*
X507791Y637508D01*
X507792Y637488D01*
X507788Y637468D01*
X507797Y637330D01*
X507801Y637190D01*
X507807Y637171D01*
X507808Y637151D01*
X507851Y637019D01*
X507889Y636885D01*
X507900Y636867D01*
X507906Y636848D01*
X507981Y636730D01*
X508051Y636611D01*
X508070Y636590D01*
X508076Y636579D01*
X508091Y636565D01*
X508157Y636490D01*
X511529Y633118D01*
X513386Y628637D01*
X513386Y623786D01*
X511529Y619305D01*
X508099Y615875D01*
X503618Y614019D01*
X498767Y614019D01*
X494286Y615875D01*
X490856Y619305D01*
X489665Y622180D01*
X489597Y622301D01*
X489532Y622424D01*
X489518Y622439D01*
X489508Y622456D01*
X489411Y622556D01*
X489318Y622659D01*
X489301Y622670D01*
X489287Y622685D01*
X489168Y622757D01*
X489052Y622834D01*
X489033Y622840D01*
X489015Y622851D01*
X488883Y622892D01*
X488751Y622937D01*
X488731Y622939D01*
X488712Y622945D01*
X488573Y622951D01*
X488434Y622962D01*
X488414Y622959D01*
X488394Y622960D01*
X488258Y622932D01*
X488121Y622908D01*
X488102Y622899D01*
X488082Y622895D01*
X487957Y622834D01*
X487831Y622777D01*
X487815Y622765D01*
X487797Y622756D01*
X487691Y622665D01*
X487582Y622579D01*
X487570Y622562D01*
X487555Y622549D01*
X487475Y622436D01*
X487391Y622325D01*
X487379Y622299D01*
X487372Y622289D01*
X487364Y622270D01*
X487320Y622180D01*
X486129Y619305D01*
X482699Y615875D01*
X478218Y614019D01*
X473367Y614019D01*
X468886Y615875D01*
X465456Y619305D01*
X464265Y622180D01*
X464197Y622301D01*
X464132Y622424D01*
X464118Y622439D01*
X464108Y622456D01*
X464011Y622556D01*
X463918Y622659D01*
X463901Y622670D01*
X463887Y622685D01*
X463768Y622757D01*
X463652Y622834D01*
X463633Y622840D01*
X463615Y622851D01*
X463483Y622892D01*
X463351Y622937D01*
X463331Y622939D01*
X463312Y622945D01*
X463173Y622951D01*
X463034Y622962D01*
X463014Y622959D01*
X462994Y622960D01*
X462858Y622932D01*
X462721Y622908D01*
X462702Y622899D01*
X462682Y622895D01*
X462557Y622834D01*
X462431Y622777D01*
X462415Y622765D01*
X462397Y622756D01*
X462291Y622665D01*
X462182Y622579D01*
X462170Y622562D01*
X462155Y622549D01*
X462075Y622436D01*
X461991Y622325D01*
X461979Y622299D01*
X461972Y622289D01*
X461964Y622270D01*
X461920Y622180D01*
X460729Y619305D01*
X457299Y615875D01*
X452818Y614019D01*
X447967Y614019D01*
X443486Y615875D01*
X440056Y619305D01*
X438858Y622198D01*
X438843Y622223D01*
X438834Y622252D01*
X438765Y622362D01*
X438701Y622474D01*
X438680Y622495D01*
X438664Y622521D01*
X438570Y622609D01*
X438479Y622702D01*
X438454Y622718D01*
X438432Y622738D01*
X438319Y622801D01*
X438208Y622869D01*
X438180Y622877D01*
X438153Y622892D01*
X438028Y622924D01*
X437904Y622962D01*
X437874Y622964D01*
X437845Y622971D01*
X437716Y622971D01*
X437587Y622977D01*
X437557Y622971D01*
X437527Y622971D01*
X437402Y622939D01*
X437275Y622913D01*
X437248Y622900D01*
X437219Y622892D01*
X437106Y622830D01*
X436989Y622773D01*
X436967Y622754D01*
X436941Y622740D01*
X436846Y622651D01*
X436747Y622567D01*
X436730Y622542D01*
X436708Y622522D01*
X436639Y622413D01*
X436564Y622307D01*
X436554Y622279D01*
X436538Y622254D01*
X436478Y622104D01*
X436426Y621942D01*
X436292Y621531D01*
X435421Y619821D01*
X434293Y618269D01*
X432936Y616911D01*
X431383Y615783D01*
X429673Y614912D01*
X427848Y614319D01*
X427532Y614269D01*
X427532Y624941D01*
X427517Y625060D01*
X427510Y625178D01*
X427497Y625217D01*
X427492Y625257D01*
X427448Y625368D01*
X427412Y625481D01*
X427390Y625515D01*
X427375Y625553D01*
X427305Y625649D01*
X427241Y625750D01*
X427212Y625777D01*
X427188Y625810D01*
X427097Y625886D01*
X427010Y625968D01*
X426974Y625987D01*
X426943Y626013D01*
X426836Y626064D01*
X426731Y626121D01*
X426692Y626131D01*
X426656Y626148D01*
X426539Y626171D01*
X426423Y626200D01*
X426363Y626204D01*
X426343Y626208D01*
X426323Y626207D01*
X426263Y626211D01*
X423723Y626211D01*
X423605Y626196D01*
X423486Y626188D01*
X423447Y626176D01*
X423407Y626171D01*
X423297Y626127D01*
X423183Y626090D01*
X423149Y626069D01*
X423112Y626054D01*
X423015Y625984D01*
X422915Y625920D01*
X422887Y625891D01*
X422854Y625867D01*
X422778Y625775D01*
X422697Y625689D01*
X422677Y625653D01*
X422651Y625622D01*
X422601Y625514D01*
X422543Y625410D01*
X422533Y625371D01*
X422516Y625334D01*
X422494Y625218D01*
X422464Y625102D01*
X422460Y625042D01*
X422456Y625022D01*
X422457Y625002D01*
X422454Y624941D01*
X422454Y614269D01*
X422138Y614319D01*
X420312Y614912D01*
X419234Y615462D01*
X419122Y615502D01*
X419012Y615549D01*
X418973Y615556D01*
X418935Y615569D01*
X418816Y615581D01*
X418698Y615599D01*
X418658Y615595D01*
X418618Y615599D01*
X418501Y615581D01*
X418382Y615569D01*
X418344Y615556D01*
X418304Y615550D01*
X418195Y615502D01*
X418082Y615462D01*
X418049Y615439D01*
X418012Y615423D01*
X417918Y615350D01*
X417819Y615283D01*
X417793Y615253D01*
X417761Y615229D01*
X417688Y615134D01*
X417609Y615045D01*
X417590Y615009D01*
X417566Y614977D01*
X417518Y614868D01*
X417464Y614762D01*
X417455Y614722D01*
X417439Y614686D01*
X417421Y614568D01*
X417394Y614451D01*
X417396Y614411D01*
X417389Y614372D01*
X417400Y614253D01*
X417404Y614133D01*
X417415Y614095D01*
X417419Y614055D01*
X417459Y613943D01*
X417492Y613828D01*
X417513Y613793D01*
X417526Y613756D01*
X417593Y613657D01*
X417654Y613554D01*
X417693Y613509D01*
X417705Y613492D01*
X417720Y613479D01*
X417760Y613433D01*
X541501Y489692D01*
X541540Y489662D01*
X541574Y489625D01*
X541665Y489565D01*
X541752Y489498D01*
X541798Y489478D01*
X541839Y489451D01*
X541943Y489415D01*
X542044Y489371D01*
X542093Y489363D01*
X542140Y489347D01*
X542250Y489339D01*
X542358Y489321D01*
X542408Y489326D01*
X542457Y489322D01*
X542566Y489341D01*
X542675Y489351D01*
X542722Y489368D01*
X542771Y489376D01*
X542871Y489422D01*
X542974Y489459D01*
X543015Y489487D01*
X543061Y489507D01*
X543146Y489576D01*
X543237Y489637D01*
X543270Y489675D01*
X543309Y489706D01*
X543375Y489793D01*
X543448Y489876D01*
X543470Y489920D01*
X543500Y489960D01*
X543571Y490104D01*
X544093Y491363D01*
X545871Y493142D01*
X548195Y494104D01*
X550710Y494104D01*
X553034Y493142D01*
X554212Y491964D01*
X554290Y491903D01*
X554362Y491836D01*
X554415Y491806D01*
X554463Y491769D01*
X554554Y491730D01*
X554641Y491682D01*
X554699Y491667D01*
X554755Y491643D01*
X554853Y491627D01*
X554949Y491603D01*
X555049Y491596D01*
X555069Y491593D01*
X555081Y491594D01*
X555109Y491592D01*
X644377Y491592D01*
X644514Y491610D01*
X644653Y491623D01*
X644672Y491630D01*
X644692Y491632D01*
X644821Y491683D01*
X644952Y491730D01*
X644969Y491742D01*
X644988Y491749D01*
X645100Y491831D01*
X645215Y491909D01*
X645229Y491924D01*
X645245Y491936D01*
X645334Y492043D01*
X645426Y492147D01*
X645435Y492165D01*
X645448Y492181D01*
X645507Y492307D01*
X645570Y492431D01*
X645575Y492450D01*
X645584Y492469D01*
X645610Y492605D01*
X645640Y492741D01*
X645640Y492761D01*
X645643Y492781D01*
X645635Y492919D01*
X645630Y493059D01*
X645625Y493078D01*
X645624Y493098D01*
X645581Y493231D01*
X645542Y493364D01*
X645532Y493382D01*
X645526Y493401D01*
X645451Y493518D01*
X645381Y493638D01*
X645362Y493659D01*
X645355Y493670D01*
X645341Y493684D01*
X645274Y493759D01*
X542884Y596149D01*
X542806Y596210D01*
X542734Y596278D01*
X542681Y596307D01*
X542633Y596344D01*
X542542Y596383D01*
X542455Y596431D01*
X542397Y596446D01*
X542341Y596470D01*
X542243Y596486D01*
X542147Y596511D01*
X542047Y596517D01*
X542027Y596520D01*
X542015Y596519D01*
X541987Y596521D01*
X540321Y596521D01*
X537997Y597483D01*
X536219Y599262D01*
X535256Y601586D01*
X535256Y604101D01*
X536219Y606425D01*
X537997Y608204D01*
X540321Y609166D01*
X542836Y609166D01*
X545160Y608204D01*
X546939Y606425D01*
X547902Y604101D01*
X547902Y602436D01*
X547914Y602338D01*
X547917Y602239D01*
X547934Y602180D01*
X547941Y602120D01*
X547978Y602028D01*
X548005Y601933D01*
X548036Y601881D01*
X548058Y601825D01*
X548117Y601745D01*
X548167Y601659D01*
X548233Y601584D01*
X548245Y601567D01*
X548255Y601559D01*
X548273Y601538D01*
X679365Y470446D01*
X679475Y470361D01*
X679582Y470272D01*
X679601Y470264D01*
X679617Y470251D01*
X679745Y470196D01*
X679870Y470137D01*
X679890Y470133D01*
X679908Y470125D01*
X680046Y470103D01*
X680182Y470077D01*
X680202Y470078D01*
X680223Y470075D01*
X680362Y470088D01*
G37*
G36*
X644119Y80785D02*
X644119Y80785D01*
X644218Y80788D01*
X644276Y80805D01*
X644337Y80813D01*
X644429Y80849D01*
X644524Y80877D01*
X644576Y80907D01*
X644632Y80930D01*
X644712Y80988D01*
X644798Y81038D01*
X644873Y81104D01*
X644890Y81116D01*
X644897Y81126D01*
X644918Y81144D01*
X663634Y99860D01*
X663695Y99939D01*
X663763Y100011D01*
X663792Y100064D01*
X663829Y100112D01*
X663869Y100203D01*
X663916Y100289D01*
X663931Y100348D01*
X663956Y100403D01*
X663971Y100501D01*
X663996Y100597D01*
X664002Y100697D01*
X664005Y100718D01*
X664004Y100730D01*
X664006Y100758D01*
X664006Y156620D01*
X666610Y159224D01*
X687383Y179997D01*
X687444Y180076D01*
X687512Y180148D01*
X687541Y180201D01*
X687578Y180249D01*
X687618Y180340D01*
X687665Y180426D01*
X687680Y180485D01*
X687705Y180540D01*
X687720Y180638D01*
X687745Y180734D01*
X687751Y180834D01*
X687754Y180854D01*
X687753Y180867D01*
X687755Y180895D01*
X687755Y250346D01*
X687738Y250484D01*
X687725Y250623D01*
X687718Y250642D01*
X687715Y250662D01*
X687664Y250791D01*
X687617Y250922D01*
X687606Y250939D01*
X687598Y250958D01*
X687517Y251070D01*
X687438Y251185D01*
X687423Y251199D01*
X687411Y251215D01*
X687304Y251304D01*
X687200Y251396D01*
X687182Y251405D01*
X687166Y251418D01*
X687041Y251477D01*
X686917Y251540D01*
X686897Y251545D01*
X686879Y251553D01*
X686742Y251579D01*
X686606Y251610D01*
X686586Y251609D01*
X686566Y251613D01*
X686428Y251605D01*
X686289Y251600D01*
X686269Y251595D01*
X686249Y251593D01*
X686117Y251551D01*
X685983Y251512D01*
X685966Y251502D01*
X685946Y251495D01*
X685829Y251421D01*
X685709Y251350D01*
X685688Y251332D01*
X685678Y251325D01*
X685664Y251310D01*
X685588Y251244D01*
X683937Y249593D01*
X683877Y249515D01*
X683809Y249443D01*
X683779Y249390D01*
X683742Y249342D01*
X683703Y249251D01*
X683655Y249164D01*
X683640Y249105D01*
X683616Y249050D01*
X683600Y248952D01*
X683576Y248856D01*
X683569Y248756D01*
X683566Y248736D01*
X683567Y248723D01*
X683566Y248695D01*
X683566Y193849D01*
X669141Y179425D01*
X655947Y179425D01*
X655849Y179412D01*
X655750Y179409D01*
X655692Y179393D01*
X655632Y179385D01*
X655540Y179349D01*
X655445Y179321D01*
X655393Y179290D01*
X655336Y179268D01*
X655256Y179210D01*
X655171Y179160D01*
X655095Y179093D01*
X655079Y179081D01*
X655071Y179072D01*
X655050Y179053D01*
X653872Y177875D01*
X651548Y176913D01*
X649033Y176913D01*
X646709Y177875D01*
X644931Y179654D01*
X643968Y181978D01*
X643968Y182937D01*
X643951Y183075D01*
X643938Y183214D01*
X643931Y183233D01*
X643928Y183253D01*
X643877Y183382D01*
X643830Y183513D01*
X643819Y183530D01*
X643811Y183549D01*
X643730Y183661D01*
X643651Y183776D01*
X643636Y183790D01*
X643624Y183806D01*
X643517Y183895D01*
X643413Y183987D01*
X643395Y183996D01*
X643379Y184009D01*
X643254Y184068D01*
X643130Y184131D01*
X643110Y184136D01*
X643092Y184144D01*
X642955Y184170D01*
X642819Y184201D01*
X642799Y184200D01*
X642779Y184204D01*
X642641Y184196D01*
X642502Y184191D01*
X642482Y184186D01*
X642462Y184184D01*
X642330Y184142D01*
X642196Y184103D01*
X642179Y184093D01*
X642159Y184086D01*
X642042Y184012D01*
X641922Y183941D01*
X641901Y183923D01*
X641891Y183916D01*
X641877Y183901D01*
X641801Y183835D01*
X621961Y163995D01*
X621901Y163917D01*
X621833Y163845D01*
X621803Y163792D01*
X621766Y163744D01*
X621727Y163653D01*
X621679Y163566D01*
X621664Y163507D01*
X621640Y163452D01*
X621624Y163354D01*
X621600Y163258D01*
X621593Y163158D01*
X621590Y163138D01*
X621591Y163125D01*
X621590Y163097D01*
X621590Y93824D01*
X618985Y91220D01*
X611395Y83629D01*
X610705Y82939D01*
X610620Y82830D01*
X610531Y82723D01*
X610523Y82704D01*
X610510Y82688D01*
X610455Y82560D01*
X610396Y82435D01*
X610392Y82415D01*
X610384Y82396D01*
X610362Y82258D01*
X610336Y82122D01*
X610337Y82102D01*
X610334Y82082D01*
X610347Y81943D01*
X610356Y81805D01*
X610362Y81786D01*
X610364Y81766D01*
X610411Y81635D01*
X610454Y81503D01*
X610464Y81485D01*
X610471Y81466D01*
X610549Y81352D01*
X610624Y81234D01*
X610639Y81220D01*
X610650Y81203D01*
X610754Y81111D01*
X610855Y81016D01*
X610873Y81006D01*
X610888Y80993D01*
X611012Y80930D01*
X611134Y80862D01*
X611153Y80857D01*
X611172Y80848D01*
X611307Y80818D01*
X611442Y80783D01*
X611470Y80781D01*
X611482Y80778D01*
X611502Y80779D01*
X611603Y80773D01*
X644021Y80773D01*
X644119Y80785D01*
G37*
%LPC*%
G36*
X51727Y614019D02*
X51727Y614019D01*
X47246Y615875D01*
X43816Y619305D01*
X41960Y623786D01*
X41960Y628637D01*
X43816Y633118D01*
X47246Y636548D01*
X51727Y638404D01*
X56578Y638404D01*
X61059Y636548D01*
X64489Y633118D01*
X65680Y630243D01*
X65749Y630123D01*
X65814Y630000D01*
X65828Y629985D01*
X65838Y629967D01*
X65934Y629867D01*
X66028Y629764D01*
X66045Y629753D01*
X66059Y629739D01*
X66177Y629666D01*
X66294Y629589D01*
X66313Y629583D01*
X66330Y629572D01*
X66463Y629531D01*
X66594Y629486D01*
X66615Y629485D01*
X66634Y629479D01*
X66772Y629472D01*
X66911Y629461D01*
X66932Y629465D01*
X66952Y629464D01*
X67087Y629492D01*
X67225Y629515D01*
X67243Y629524D01*
X67263Y629528D01*
X67388Y629589D01*
X67515Y629646D01*
X67531Y629659D01*
X67549Y629668D01*
X67655Y629758D01*
X67763Y629845D01*
X67775Y629861D01*
X67791Y629874D01*
X67871Y629988D01*
X67954Y630099D01*
X67967Y630124D01*
X67974Y630134D01*
X67981Y630153D01*
X68025Y630243D01*
X69216Y633118D01*
X72646Y636548D01*
X77127Y638404D01*
X81978Y638404D01*
X86459Y636548D01*
X89889Y633118D01*
X91080Y630243D01*
X91149Y630123D01*
X91214Y630000D01*
X91228Y629985D01*
X91238Y629967D01*
X91334Y629867D01*
X91428Y629764D01*
X91445Y629753D01*
X91459Y629739D01*
X91577Y629666D01*
X91694Y629589D01*
X91713Y629583D01*
X91730Y629572D01*
X91863Y629531D01*
X91994Y629486D01*
X92015Y629485D01*
X92034Y629479D01*
X92172Y629472D01*
X92311Y629461D01*
X92332Y629465D01*
X92352Y629464D01*
X92487Y629492D01*
X92625Y629515D01*
X92643Y629524D01*
X92663Y629528D01*
X92788Y629589D01*
X92915Y629646D01*
X92931Y629659D01*
X92949Y629668D01*
X93055Y629758D01*
X93163Y629845D01*
X93175Y629861D01*
X93191Y629874D01*
X93271Y629988D01*
X93354Y630099D01*
X93367Y630124D01*
X93374Y630134D01*
X93381Y630153D01*
X93425Y630243D01*
X94616Y633118D01*
X98046Y636548D01*
X102527Y638404D01*
X107378Y638404D01*
X111859Y636548D01*
X115289Y633118D01*
X116480Y630243D01*
X116549Y630123D01*
X116614Y630000D01*
X116628Y629985D01*
X116638Y629967D01*
X116734Y629867D01*
X116828Y629764D01*
X116845Y629753D01*
X116859Y629739D01*
X116977Y629666D01*
X117094Y629589D01*
X117113Y629583D01*
X117130Y629572D01*
X117263Y629531D01*
X117394Y629486D01*
X117415Y629485D01*
X117434Y629479D01*
X117572Y629472D01*
X117711Y629461D01*
X117732Y629465D01*
X117752Y629464D01*
X117887Y629492D01*
X118025Y629515D01*
X118043Y629524D01*
X118063Y629528D01*
X118188Y629589D01*
X118315Y629646D01*
X118331Y629659D01*
X118349Y629668D01*
X118455Y629758D01*
X118563Y629845D01*
X118575Y629861D01*
X118591Y629874D01*
X118671Y629988D01*
X118754Y630099D01*
X118767Y630124D01*
X118774Y630134D01*
X118781Y630153D01*
X118825Y630243D01*
X120016Y633118D01*
X123446Y636548D01*
X127927Y638404D01*
X132778Y638404D01*
X137259Y636548D01*
X140689Y633118D01*
X141880Y630243D01*
X141949Y630123D01*
X142014Y630000D01*
X142028Y629985D01*
X142038Y629967D01*
X142134Y629867D01*
X142228Y629764D01*
X142245Y629753D01*
X142259Y629739D01*
X142377Y629666D01*
X142494Y629589D01*
X142513Y629583D01*
X142530Y629572D01*
X142663Y629531D01*
X142794Y629486D01*
X142815Y629485D01*
X142834Y629479D01*
X142972Y629472D01*
X143111Y629461D01*
X143132Y629465D01*
X143152Y629464D01*
X143287Y629492D01*
X143425Y629515D01*
X143443Y629524D01*
X143463Y629528D01*
X143588Y629589D01*
X143715Y629646D01*
X143731Y629659D01*
X143749Y629668D01*
X143855Y629758D01*
X143963Y629845D01*
X143975Y629861D01*
X143991Y629874D01*
X144071Y629988D01*
X144154Y630099D01*
X144167Y630124D01*
X144174Y630134D01*
X144181Y630153D01*
X144225Y630243D01*
X145416Y633118D01*
X148846Y636548D01*
X153327Y638404D01*
X158178Y638404D01*
X162659Y636548D01*
X166089Y633118D01*
X167280Y630243D01*
X167349Y630123D01*
X167414Y630000D01*
X167428Y629985D01*
X167438Y629967D01*
X167534Y629867D01*
X167628Y629764D01*
X167645Y629753D01*
X167659Y629739D01*
X167777Y629666D01*
X167894Y629589D01*
X167913Y629583D01*
X167930Y629572D01*
X168063Y629531D01*
X168194Y629486D01*
X168215Y629485D01*
X168234Y629479D01*
X168372Y629472D01*
X168511Y629461D01*
X168532Y629465D01*
X168552Y629464D01*
X168687Y629492D01*
X168825Y629515D01*
X168843Y629524D01*
X168863Y629528D01*
X168988Y629589D01*
X169115Y629646D01*
X169131Y629659D01*
X169149Y629668D01*
X169255Y629758D01*
X169363Y629845D01*
X169375Y629861D01*
X169391Y629874D01*
X169471Y629988D01*
X169554Y630099D01*
X169567Y630124D01*
X169574Y630134D01*
X169581Y630153D01*
X169625Y630243D01*
X170816Y633118D01*
X174246Y636548D01*
X178727Y638404D01*
X183578Y638404D01*
X188059Y636548D01*
X191489Y633118D01*
X192680Y630243D01*
X192749Y630123D01*
X192814Y630000D01*
X192828Y629985D01*
X192838Y629967D01*
X192934Y629867D01*
X193028Y629764D01*
X193045Y629753D01*
X193059Y629739D01*
X193177Y629666D01*
X193294Y629589D01*
X193313Y629583D01*
X193330Y629572D01*
X193463Y629531D01*
X193594Y629486D01*
X193615Y629485D01*
X193634Y629479D01*
X193772Y629472D01*
X193911Y629461D01*
X193932Y629465D01*
X193952Y629464D01*
X194087Y629492D01*
X194225Y629515D01*
X194243Y629524D01*
X194263Y629528D01*
X194388Y629589D01*
X194515Y629646D01*
X194531Y629659D01*
X194549Y629668D01*
X194655Y629758D01*
X194763Y629845D01*
X194775Y629861D01*
X194791Y629874D01*
X194871Y629988D01*
X194954Y630099D01*
X194967Y630124D01*
X194974Y630134D01*
X194981Y630153D01*
X195025Y630243D01*
X196216Y633118D01*
X199646Y636548D01*
X204127Y638404D01*
X208978Y638404D01*
X213459Y636548D01*
X216889Y633118D01*
X218080Y630243D01*
X218149Y630123D01*
X218214Y630000D01*
X218228Y629985D01*
X218238Y629967D01*
X218334Y629867D01*
X218428Y629764D01*
X218445Y629753D01*
X218459Y629739D01*
X218578Y629666D01*
X218694Y629589D01*
X218713Y629583D01*
X218730Y629572D01*
X218863Y629531D01*
X218994Y629486D01*
X219015Y629485D01*
X219034Y629479D01*
X219172Y629472D01*
X219312Y629461D01*
X219332Y629465D01*
X219352Y629464D01*
X219487Y629492D01*
X219625Y629515D01*
X219643Y629524D01*
X219663Y629528D01*
X219788Y629589D01*
X219915Y629646D01*
X219931Y629659D01*
X219949Y629668D01*
X220055Y629758D01*
X220163Y629845D01*
X220175Y629861D01*
X220191Y629874D01*
X220271Y629988D01*
X220355Y630099D01*
X220367Y630124D01*
X220374Y630134D01*
X220381Y630153D01*
X220425Y630243D01*
X221616Y633118D01*
X225046Y636548D01*
X229527Y638404D01*
X234378Y638404D01*
X238859Y636548D01*
X242289Y633118D01*
X244146Y628637D01*
X244146Y623786D01*
X242289Y619305D01*
X238859Y615875D01*
X234378Y614019D01*
X229527Y614019D01*
X225046Y615875D01*
X221616Y619305D01*
X220425Y622180D01*
X220357Y622301D01*
X220292Y622424D01*
X220278Y622439D01*
X220268Y622456D01*
X220171Y622556D01*
X220078Y622659D01*
X220061Y622670D01*
X220047Y622685D01*
X219928Y622757D01*
X219812Y622834D01*
X219793Y622840D01*
X219775Y622851D01*
X219643Y622892D01*
X219511Y622937D01*
X219491Y622939D01*
X219472Y622945D01*
X219333Y622951D01*
X219194Y622962D01*
X219174Y622959D01*
X219154Y622960D01*
X219018Y622932D01*
X218881Y622908D01*
X218862Y622899D01*
X218842Y622895D01*
X218717Y622834D01*
X218591Y622777D01*
X218575Y622765D01*
X218557Y622756D01*
X218450Y622665D01*
X218342Y622579D01*
X218330Y622563D01*
X218315Y622549D01*
X218234Y622435D01*
X218151Y622325D01*
X218139Y622299D01*
X218132Y622289D01*
X218124Y622270D01*
X218080Y622180D01*
X216889Y619305D01*
X213459Y615875D01*
X208978Y614019D01*
X204127Y614019D01*
X199646Y615875D01*
X196216Y619305D01*
X195025Y622180D01*
X194957Y622301D01*
X194892Y622424D01*
X194878Y622439D01*
X194868Y622456D01*
X194771Y622556D01*
X194678Y622659D01*
X194661Y622670D01*
X194647Y622685D01*
X194528Y622757D01*
X194412Y622834D01*
X194393Y622840D01*
X194375Y622851D01*
X194243Y622892D01*
X194111Y622937D01*
X194091Y622939D01*
X194072Y622945D01*
X193933Y622951D01*
X193794Y622962D01*
X193774Y622959D01*
X193754Y622960D01*
X193618Y622932D01*
X193481Y622908D01*
X193462Y622899D01*
X193442Y622895D01*
X193317Y622834D01*
X193191Y622777D01*
X193175Y622765D01*
X193157Y622756D01*
X193051Y622665D01*
X192942Y622579D01*
X192930Y622562D01*
X192915Y622549D01*
X192835Y622436D01*
X192751Y622325D01*
X192739Y622299D01*
X192732Y622289D01*
X192724Y622270D01*
X192680Y622180D01*
X191489Y619305D01*
X188059Y615875D01*
X183578Y614019D01*
X178727Y614019D01*
X174246Y615875D01*
X170816Y619305D01*
X169625Y622180D01*
X169557Y622301D01*
X169492Y622424D01*
X169478Y622439D01*
X169468Y622456D01*
X169371Y622556D01*
X169278Y622659D01*
X169261Y622670D01*
X169247Y622685D01*
X169128Y622757D01*
X169012Y622834D01*
X168993Y622840D01*
X168975Y622851D01*
X168843Y622892D01*
X168711Y622937D01*
X168691Y622939D01*
X168672Y622945D01*
X168533Y622951D01*
X168394Y622962D01*
X168374Y622959D01*
X168354Y622960D01*
X168218Y622932D01*
X168081Y622908D01*
X168062Y622899D01*
X168042Y622895D01*
X167917Y622834D01*
X167791Y622777D01*
X167775Y622765D01*
X167757Y622756D01*
X167651Y622665D01*
X167542Y622579D01*
X167530Y622562D01*
X167515Y622549D01*
X167435Y622436D01*
X167351Y622325D01*
X167339Y622299D01*
X167332Y622289D01*
X167324Y622270D01*
X167280Y622180D01*
X166089Y619305D01*
X162659Y615875D01*
X158178Y614019D01*
X153327Y614019D01*
X148846Y615875D01*
X145416Y619305D01*
X144225Y622180D01*
X144157Y622301D01*
X144092Y622424D01*
X144078Y622439D01*
X144068Y622456D01*
X143971Y622556D01*
X143878Y622659D01*
X143861Y622670D01*
X143847Y622685D01*
X143728Y622757D01*
X143612Y622834D01*
X143593Y622840D01*
X143575Y622851D01*
X143443Y622892D01*
X143311Y622937D01*
X143291Y622939D01*
X143272Y622945D01*
X143133Y622951D01*
X142994Y622962D01*
X142974Y622959D01*
X142954Y622960D01*
X142818Y622932D01*
X142681Y622908D01*
X142662Y622899D01*
X142642Y622895D01*
X142517Y622834D01*
X142391Y622777D01*
X142375Y622765D01*
X142357Y622756D01*
X142251Y622665D01*
X142142Y622579D01*
X142130Y622562D01*
X142115Y622549D01*
X142035Y622436D01*
X141951Y622325D01*
X141939Y622299D01*
X141932Y622289D01*
X141924Y622270D01*
X141880Y622180D01*
X140689Y619305D01*
X137259Y615875D01*
X132778Y614019D01*
X127927Y614019D01*
X123446Y615875D01*
X120016Y619305D01*
X118825Y622180D01*
X118757Y622301D01*
X118692Y622424D01*
X118678Y622439D01*
X118668Y622456D01*
X118571Y622556D01*
X118478Y622659D01*
X118461Y622670D01*
X118447Y622685D01*
X118328Y622757D01*
X118212Y622834D01*
X118193Y622840D01*
X118175Y622851D01*
X118043Y622892D01*
X117911Y622937D01*
X117891Y622939D01*
X117872Y622945D01*
X117733Y622951D01*
X117594Y622962D01*
X117574Y622959D01*
X117554Y622960D01*
X117418Y622932D01*
X117281Y622908D01*
X117262Y622899D01*
X117242Y622895D01*
X117117Y622834D01*
X116991Y622777D01*
X116975Y622765D01*
X116957Y622756D01*
X116851Y622665D01*
X116742Y622579D01*
X116730Y622562D01*
X116715Y622549D01*
X116635Y622436D01*
X116551Y622325D01*
X116539Y622299D01*
X116532Y622289D01*
X116524Y622270D01*
X116480Y622180D01*
X115289Y619305D01*
X111859Y615875D01*
X107378Y614019D01*
X102527Y614019D01*
X98046Y615875D01*
X94616Y619305D01*
X93425Y622180D01*
X93357Y622301D01*
X93292Y622424D01*
X93278Y622439D01*
X93268Y622456D01*
X93171Y622556D01*
X93078Y622659D01*
X93061Y622670D01*
X93047Y622685D01*
X92928Y622757D01*
X92812Y622834D01*
X92793Y622840D01*
X92775Y622851D01*
X92643Y622892D01*
X92511Y622937D01*
X92491Y622939D01*
X92472Y622945D01*
X92333Y622951D01*
X92194Y622962D01*
X92174Y622959D01*
X92154Y622960D01*
X92018Y622932D01*
X91881Y622908D01*
X91862Y622899D01*
X91842Y622895D01*
X91717Y622834D01*
X91591Y622777D01*
X91575Y622765D01*
X91557Y622756D01*
X91451Y622665D01*
X91342Y622579D01*
X91330Y622562D01*
X91315Y622549D01*
X91235Y622436D01*
X91151Y622325D01*
X91139Y622299D01*
X91132Y622289D01*
X91124Y622270D01*
X91080Y622180D01*
X89889Y619305D01*
X86459Y615875D01*
X81978Y614019D01*
X77127Y614019D01*
X72646Y615875D01*
X69216Y619305D01*
X68025Y622180D01*
X67957Y622301D01*
X67892Y622424D01*
X67878Y622439D01*
X67868Y622456D01*
X67771Y622556D01*
X67678Y622659D01*
X67661Y622670D01*
X67647Y622685D01*
X67528Y622757D01*
X67412Y622834D01*
X67393Y622840D01*
X67375Y622851D01*
X67243Y622892D01*
X67111Y622937D01*
X67091Y622939D01*
X67072Y622945D01*
X66933Y622951D01*
X66794Y622962D01*
X66774Y622959D01*
X66754Y622960D01*
X66618Y622932D01*
X66481Y622908D01*
X66462Y622899D01*
X66442Y622895D01*
X66317Y622834D01*
X66191Y622777D01*
X66175Y622765D01*
X66157Y622756D01*
X66051Y622665D01*
X65942Y622579D01*
X65930Y622562D01*
X65915Y622549D01*
X65835Y622436D01*
X65751Y622325D01*
X65739Y622299D01*
X65732Y622289D01*
X65724Y622270D01*
X65680Y622180D01*
X64489Y619305D01*
X61059Y615875D01*
X56578Y614019D01*
X51727Y614019D01*
G37*
%LPD*%
%LPC*%
G36*
X51727Y131419D02*
X51727Y131419D01*
X47246Y133275D01*
X43816Y136705D01*
X41960Y141186D01*
X41960Y146037D01*
X43816Y150518D01*
X47246Y153948D01*
X51727Y155804D01*
X56578Y155804D01*
X61059Y153948D01*
X64489Y150518D01*
X65680Y147643D01*
X65749Y147523D01*
X65814Y147400D01*
X65828Y147385D01*
X65838Y147367D01*
X65934Y147267D01*
X66028Y147164D01*
X66045Y147153D01*
X66059Y147139D01*
X66178Y147066D01*
X66294Y146989D01*
X66313Y146983D01*
X66330Y146972D01*
X66463Y146931D01*
X66594Y146886D01*
X66615Y146885D01*
X66634Y146879D01*
X66772Y146872D01*
X66912Y146861D01*
X66932Y146865D01*
X66952Y146864D01*
X67087Y146892D01*
X67225Y146915D01*
X67243Y146924D01*
X67263Y146928D01*
X67388Y146989D01*
X67515Y147046D01*
X67531Y147059D01*
X67549Y147068D01*
X67655Y147158D01*
X67763Y147245D01*
X67775Y147261D01*
X67791Y147274D01*
X67871Y147388D01*
X67955Y147499D01*
X67967Y147524D01*
X67974Y147534D01*
X67981Y147553D01*
X68025Y147643D01*
X69216Y150518D01*
X72646Y153948D01*
X77127Y155804D01*
X81978Y155804D01*
X86459Y153948D01*
X89889Y150518D01*
X91080Y147643D01*
X91149Y147523D01*
X91214Y147400D01*
X91228Y147385D01*
X91238Y147367D01*
X91334Y147267D01*
X91428Y147164D01*
X91445Y147153D01*
X91459Y147139D01*
X91578Y147066D01*
X91694Y146989D01*
X91713Y146983D01*
X91730Y146972D01*
X91863Y146931D01*
X91994Y146886D01*
X92015Y146885D01*
X92034Y146879D01*
X92172Y146872D01*
X92312Y146861D01*
X92332Y146865D01*
X92352Y146864D01*
X92487Y146892D01*
X92625Y146915D01*
X92643Y146924D01*
X92663Y146928D01*
X92788Y146989D01*
X92915Y147046D01*
X92931Y147059D01*
X92949Y147068D01*
X93055Y147158D01*
X93163Y147245D01*
X93175Y147261D01*
X93191Y147274D01*
X93271Y147388D01*
X93355Y147499D01*
X93367Y147524D01*
X93374Y147534D01*
X93381Y147553D01*
X93425Y147643D01*
X94616Y150518D01*
X98046Y153948D01*
X102527Y155804D01*
X107378Y155804D01*
X111859Y153948D01*
X115289Y150518D01*
X116480Y147643D01*
X116549Y147523D01*
X116614Y147400D01*
X116628Y147385D01*
X116638Y147367D01*
X116734Y147267D01*
X116828Y147164D01*
X116845Y147153D01*
X116859Y147139D01*
X116978Y147066D01*
X117094Y146989D01*
X117113Y146983D01*
X117130Y146972D01*
X117263Y146931D01*
X117394Y146886D01*
X117415Y146885D01*
X117434Y146879D01*
X117572Y146872D01*
X117712Y146861D01*
X117732Y146865D01*
X117752Y146864D01*
X117887Y146892D01*
X118025Y146915D01*
X118043Y146924D01*
X118063Y146928D01*
X118188Y146989D01*
X118315Y147046D01*
X118331Y147059D01*
X118349Y147068D01*
X118455Y147158D01*
X118563Y147245D01*
X118575Y147261D01*
X118591Y147274D01*
X118671Y147388D01*
X118755Y147499D01*
X118767Y147524D01*
X118774Y147534D01*
X118781Y147553D01*
X118825Y147643D01*
X120016Y150518D01*
X123446Y153948D01*
X127927Y155804D01*
X132778Y155804D01*
X137259Y153948D01*
X140689Y150518D01*
X141880Y147643D01*
X141949Y147523D01*
X142014Y147400D01*
X142028Y147385D01*
X142038Y147367D01*
X142134Y147267D01*
X142228Y147164D01*
X142245Y147153D01*
X142259Y147139D01*
X142378Y147066D01*
X142494Y146989D01*
X142513Y146983D01*
X142530Y146972D01*
X142663Y146931D01*
X142794Y146886D01*
X142815Y146885D01*
X142834Y146879D01*
X142972Y146872D01*
X143112Y146861D01*
X143132Y146865D01*
X143152Y146864D01*
X143287Y146892D01*
X143425Y146915D01*
X143443Y146924D01*
X143463Y146928D01*
X143588Y146989D01*
X143715Y147046D01*
X143731Y147059D01*
X143749Y147068D01*
X143855Y147158D01*
X143963Y147245D01*
X143975Y147261D01*
X143991Y147274D01*
X144071Y147388D01*
X144155Y147499D01*
X144167Y147524D01*
X144174Y147534D01*
X144181Y147553D01*
X144225Y147643D01*
X145416Y150518D01*
X148846Y153948D01*
X153327Y155804D01*
X158178Y155804D01*
X162659Y153948D01*
X166089Y150518D01*
X167280Y147643D01*
X167349Y147523D01*
X167414Y147400D01*
X167428Y147385D01*
X167438Y147367D01*
X167534Y147267D01*
X167628Y147164D01*
X167645Y147153D01*
X167659Y147139D01*
X167778Y147066D01*
X167894Y146989D01*
X167913Y146983D01*
X167930Y146972D01*
X168063Y146931D01*
X168194Y146886D01*
X168215Y146885D01*
X168234Y146879D01*
X168372Y146872D01*
X168512Y146861D01*
X168532Y146865D01*
X168552Y146864D01*
X168687Y146892D01*
X168825Y146915D01*
X168843Y146924D01*
X168863Y146928D01*
X168988Y146989D01*
X169115Y147046D01*
X169131Y147059D01*
X169149Y147068D01*
X169255Y147158D01*
X169363Y147245D01*
X169375Y147261D01*
X169391Y147274D01*
X169471Y147388D01*
X169555Y147499D01*
X169567Y147524D01*
X169574Y147534D01*
X169581Y147553D01*
X169625Y147643D01*
X170816Y150518D01*
X174246Y153948D01*
X178727Y155804D01*
X183578Y155804D01*
X188059Y153948D01*
X191489Y150518D01*
X193346Y146037D01*
X193346Y141186D01*
X191489Y136705D01*
X188059Y133275D01*
X183578Y131419D01*
X178727Y131419D01*
X174246Y133275D01*
X170816Y136705D01*
X169625Y139580D01*
X169557Y139701D01*
X169492Y139824D01*
X169478Y139839D01*
X169468Y139856D01*
X169371Y139956D01*
X169278Y140059D01*
X169261Y140070D01*
X169247Y140085D01*
X169128Y140157D01*
X169012Y140234D01*
X168993Y140240D01*
X168975Y140251D01*
X168843Y140292D01*
X168711Y140337D01*
X168691Y140339D01*
X168672Y140345D01*
X168533Y140351D01*
X168394Y140362D01*
X168374Y140359D01*
X168354Y140360D01*
X168218Y140332D01*
X168081Y140308D01*
X168062Y140299D01*
X168042Y140295D01*
X167917Y140234D01*
X167791Y140177D01*
X167775Y140165D01*
X167757Y140156D01*
X167650Y140065D01*
X167542Y139979D01*
X167530Y139963D01*
X167515Y139949D01*
X167434Y139835D01*
X167351Y139725D01*
X167339Y139699D01*
X167332Y139689D01*
X167324Y139670D01*
X167280Y139580D01*
X166089Y136705D01*
X162659Y133275D01*
X158178Y131419D01*
X153327Y131419D01*
X148846Y133275D01*
X145416Y136705D01*
X144225Y139580D01*
X144157Y139701D01*
X144092Y139824D01*
X144078Y139839D01*
X144068Y139856D01*
X143971Y139956D01*
X143878Y140059D01*
X143861Y140070D01*
X143847Y140085D01*
X143728Y140157D01*
X143612Y140234D01*
X143593Y140240D01*
X143575Y140251D01*
X143443Y140292D01*
X143311Y140337D01*
X143291Y140339D01*
X143272Y140345D01*
X143133Y140351D01*
X142994Y140362D01*
X142974Y140359D01*
X142954Y140360D01*
X142818Y140332D01*
X142681Y140308D01*
X142662Y140299D01*
X142642Y140295D01*
X142517Y140234D01*
X142391Y140177D01*
X142375Y140165D01*
X142357Y140156D01*
X142250Y140065D01*
X142142Y139979D01*
X142130Y139963D01*
X142115Y139949D01*
X142034Y139835D01*
X141951Y139725D01*
X141939Y139699D01*
X141932Y139689D01*
X141924Y139670D01*
X141880Y139580D01*
X140689Y136705D01*
X137259Y133275D01*
X132778Y131419D01*
X127927Y131419D01*
X123446Y133275D01*
X120016Y136705D01*
X118825Y139580D01*
X118757Y139701D01*
X118692Y139824D01*
X118678Y139839D01*
X118668Y139856D01*
X118571Y139956D01*
X118478Y140059D01*
X118461Y140070D01*
X118447Y140085D01*
X118328Y140157D01*
X118212Y140234D01*
X118193Y140240D01*
X118175Y140251D01*
X118043Y140292D01*
X117911Y140337D01*
X117891Y140339D01*
X117872Y140345D01*
X117733Y140351D01*
X117594Y140362D01*
X117574Y140359D01*
X117554Y140360D01*
X117418Y140332D01*
X117281Y140308D01*
X117262Y140299D01*
X117242Y140295D01*
X117117Y140234D01*
X116991Y140177D01*
X116975Y140165D01*
X116957Y140156D01*
X116850Y140065D01*
X116742Y139979D01*
X116730Y139963D01*
X116715Y139949D01*
X116634Y139835D01*
X116551Y139725D01*
X116539Y139699D01*
X116532Y139689D01*
X116524Y139670D01*
X116480Y139580D01*
X115289Y136705D01*
X111859Y133275D01*
X107378Y131419D01*
X102527Y131419D01*
X98046Y133275D01*
X94616Y136705D01*
X93425Y139580D01*
X93357Y139701D01*
X93292Y139824D01*
X93278Y139839D01*
X93268Y139856D01*
X93171Y139956D01*
X93078Y140059D01*
X93061Y140070D01*
X93047Y140085D01*
X92928Y140157D01*
X92812Y140234D01*
X92793Y140240D01*
X92775Y140251D01*
X92643Y140292D01*
X92511Y140337D01*
X92491Y140339D01*
X92472Y140345D01*
X92333Y140351D01*
X92194Y140362D01*
X92174Y140359D01*
X92154Y140360D01*
X92018Y140332D01*
X91881Y140308D01*
X91862Y140299D01*
X91842Y140295D01*
X91717Y140234D01*
X91591Y140177D01*
X91575Y140165D01*
X91557Y140156D01*
X91450Y140065D01*
X91342Y139979D01*
X91330Y139963D01*
X91315Y139949D01*
X91234Y139835D01*
X91151Y139725D01*
X91139Y139699D01*
X91132Y139689D01*
X91124Y139670D01*
X91080Y139580D01*
X89889Y136705D01*
X86459Y133275D01*
X81978Y131419D01*
X77127Y131419D01*
X72646Y133275D01*
X69216Y136705D01*
X68025Y139580D01*
X67957Y139701D01*
X67892Y139824D01*
X67878Y139839D01*
X67868Y139856D01*
X67771Y139956D01*
X67678Y140059D01*
X67661Y140070D01*
X67647Y140085D01*
X67528Y140157D01*
X67412Y140234D01*
X67393Y140240D01*
X67375Y140251D01*
X67243Y140292D01*
X67111Y140337D01*
X67091Y140339D01*
X67072Y140345D01*
X66933Y140351D01*
X66794Y140362D01*
X66774Y140359D01*
X66754Y140360D01*
X66618Y140332D01*
X66481Y140308D01*
X66462Y140299D01*
X66442Y140295D01*
X66317Y140234D01*
X66191Y140177D01*
X66175Y140165D01*
X66157Y140156D01*
X66050Y140065D01*
X65942Y139979D01*
X65930Y139963D01*
X65915Y139949D01*
X65834Y139835D01*
X65751Y139725D01*
X65739Y139699D01*
X65732Y139689D01*
X65724Y139670D01*
X65680Y139580D01*
X64489Y136705D01*
X61059Y133275D01*
X56578Y131419D01*
X51727Y131419D01*
G37*
%LPD*%
G36*
X402159Y30595D02*
X402159Y30595D01*
X402258Y30598D01*
X402316Y30615D01*
X402376Y30622D01*
X402468Y30659D01*
X402563Y30686D01*
X402615Y30717D01*
X402672Y30739D01*
X402752Y30797D01*
X402837Y30848D01*
X402913Y30914D01*
X402929Y30926D01*
X402937Y30935D01*
X402958Y30954D01*
X432558Y60554D01*
X483975Y60554D01*
X491731Y52798D01*
X491810Y52737D01*
X491882Y52670D01*
X491935Y52640D01*
X491983Y52603D01*
X492074Y52564D01*
X492160Y52516D01*
X492219Y52501D01*
X492275Y52477D01*
X492373Y52461D01*
X492468Y52437D01*
X492568Y52430D01*
X492589Y52427D01*
X492601Y52428D01*
X492629Y52426D01*
X568177Y52426D01*
X568275Y52439D01*
X568374Y52442D01*
X568432Y52459D01*
X568492Y52466D01*
X568584Y52503D01*
X568679Y52530D01*
X568731Y52561D01*
X568788Y52583D01*
X568868Y52641D01*
X568953Y52692D01*
X569029Y52758D01*
X569045Y52770D01*
X569053Y52779D01*
X569074Y52798D01*
X579624Y63348D01*
X638281Y63348D01*
X638379Y63361D01*
X638478Y63364D01*
X638536Y63381D01*
X638596Y63388D01*
X638688Y63425D01*
X638783Y63452D01*
X638835Y63483D01*
X638892Y63505D01*
X638972Y63563D01*
X639057Y63614D01*
X639133Y63680D01*
X639149Y63692D01*
X639157Y63701D01*
X639178Y63720D01*
X646443Y70985D01*
X646528Y71094D01*
X646616Y71201D01*
X646625Y71220D01*
X646637Y71236D01*
X646693Y71364D01*
X646752Y71489D01*
X646756Y71509D01*
X646764Y71528D01*
X646786Y71666D01*
X646812Y71802D01*
X646810Y71822D01*
X646814Y71842D01*
X646801Y71981D01*
X646792Y72119D01*
X646786Y72138D01*
X646784Y72158D01*
X646737Y72290D01*
X646694Y72421D01*
X646683Y72439D01*
X646676Y72458D01*
X646598Y72573D01*
X646524Y72690D01*
X646509Y72704D01*
X646498Y72721D01*
X646393Y72813D01*
X646292Y72908D01*
X646274Y72918D01*
X646259Y72931D01*
X646135Y72995D01*
X646014Y73062D01*
X645994Y73067D01*
X645976Y73076D01*
X645840Y73106D01*
X645706Y73141D01*
X645678Y73143D01*
X645666Y73146D01*
X645645Y73145D01*
X645545Y73151D01*
X542261Y73151D01*
X542162Y73139D01*
X542063Y73136D01*
X542005Y73119D01*
X541945Y73111D01*
X541853Y73075D01*
X541758Y73047D01*
X541706Y73017D01*
X541649Y72994D01*
X541569Y72936D01*
X541484Y72886D01*
X541409Y72820D01*
X541392Y72808D01*
X541384Y72798D01*
X541363Y72780D01*
X532337Y63753D01*
X425217Y63753D01*
X425119Y63741D01*
X425020Y63738D01*
X424962Y63721D01*
X424902Y63713D01*
X424810Y63677D01*
X424715Y63649D01*
X424662Y63619D01*
X424606Y63596D01*
X424526Y63538D01*
X424441Y63488D01*
X424365Y63422D01*
X424349Y63410D01*
X424341Y63400D01*
X424320Y63382D01*
X393687Y32749D01*
X393602Y32639D01*
X393514Y32532D01*
X393505Y32514D01*
X393492Y32498D01*
X393437Y32370D01*
X393378Y32244D01*
X393374Y32225D01*
X393366Y32206D01*
X393344Y32068D01*
X393318Y31932D01*
X393319Y31912D01*
X393316Y31892D01*
X393329Y31753D01*
X393338Y31615D01*
X393344Y31595D01*
X393346Y31575D01*
X393393Y31444D01*
X393436Y31312D01*
X393447Y31295D01*
X393454Y31276D01*
X393532Y31161D01*
X393606Y31043D01*
X393621Y31030D01*
X393632Y31013D01*
X393736Y30921D01*
X393838Y30826D01*
X393856Y30816D01*
X393871Y30802D01*
X393995Y30739D01*
X394116Y30672D01*
X394136Y30667D01*
X394154Y30658D01*
X394290Y30627D01*
X394424Y30593D01*
X394452Y30591D01*
X394464Y30588D01*
X394485Y30589D01*
X394585Y30582D01*
X402061Y30582D01*
X402159Y30595D01*
G37*
%LPC*%
G36*
X167195Y513209D02*
X167195Y513209D01*
X164871Y514171D01*
X163093Y515950D01*
X162130Y518274D01*
X162130Y520789D01*
X163093Y523113D01*
X164871Y524892D01*
X167195Y525854D01*
X168861Y525854D01*
X168959Y525867D01*
X169058Y525870D01*
X169116Y525887D01*
X169176Y525894D01*
X169268Y525931D01*
X169363Y525958D01*
X169416Y525989D01*
X169472Y526011D01*
X169552Y526069D01*
X169637Y526120D01*
X169713Y526186D01*
X169729Y526198D01*
X169737Y526207D01*
X169758Y526226D01*
X176970Y533438D01*
X179574Y536042D01*
X267949Y536042D01*
X268047Y536055D01*
X268146Y536058D01*
X268204Y536075D01*
X268264Y536082D01*
X268356Y536119D01*
X268451Y536146D01*
X268503Y536177D01*
X268560Y536199D01*
X268640Y536257D01*
X268725Y536308D01*
X268801Y536374D01*
X268817Y536386D01*
X268825Y536395D01*
X268846Y536414D01*
X338324Y605892D01*
X340596Y605892D01*
X340694Y605905D01*
X340793Y605908D01*
X340852Y605925D01*
X340912Y605932D01*
X341004Y605969D01*
X341099Y605996D01*
X341151Y606027D01*
X341207Y606049D01*
X341287Y606107D01*
X341373Y606158D01*
X341448Y606224D01*
X341465Y606236D01*
X341472Y606245D01*
X341494Y606264D01*
X342671Y607442D01*
X344995Y608404D01*
X347510Y608404D01*
X349834Y607442D01*
X351613Y605663D01*
X352576Y603339D01*
X352576Y600824D01*
X351613Y598500D01*
X349834Y596721D01*
X347510Y595759D01*
X344995Y595759D01*
X342671Y596721D01*
X342199Y597194D01*
X342105Y597267D01*
X342016Y597345D01*
X341980Y597364D01*
X341948Y597389D01*
X341838Y597436D01*
X341732Y597490D01*
X341693Y597499D01*
X341656Y597515D01*
X341538Y597534D01*
X341422Y597560D01*
X341382Y597558D01*
X341342Y597565D01*
X341223Y597554D01*
X341104Y597550D01*
X341065Y597539D01*
X341025Y597535D01*
X340913Y597495D01*
X340799Y597462D01*
X340764Y597441D01*
X340726Y597427D01*
X340627Y597361D01*
X340525Y597300D01*
X340480Y597260D01*
X340463Y597249D01*
X340449Y597234D01*
X340404Y597194D01*
X274235Y531025D01*
X271631Y528421D01*
X183257Y528421D01*
X183159Y528408D01*
X183060Y528405D01*
X183002Y528389D01*
X182941Y528381D01*
X182849Y528345D01*
X182754Y528317D01*
X182702Y528286D01*
X182646Y528264D01*
X182566Y528206D01*
X182480Y528156D01*
X182405Y528089D01*
X182388Y528077D01*
X182381Y528068D01*
X182359Y528049D01*
X175147Y520837D01*
X175087Y520759D01*
X175019Y520687D01*
X174989Y520634D01*
X174952Y520586D01*
X174913Y520495D01*
X174865Y520408D01*
X174850Y520349D01*
X174826Y520294D01*
X174810Y520196D01*
X174786Y520100D01*
X174779Y520000D01*
X174776Y519980D01*
X174777Y519967D01*
X174776Y519939D01*
X174776Y518274D01*
X173813Y515950D01*
X172034Y514171D01*
X169710Y513209D01*
X167195Y513209D01*
G37*
%LPD*%
%LPC*%
G36*
X51879Y544451D02*
X51879Y544451D01*
X49555Y545413D01*
X47777Y547192D01*
X46814Y549516D01*
X46814Y552031D01*
X47777Y554355D01*
X49555Y556134D01*
X51879Y557096D01*
X54394Y557096D01*
X56718Y556134D01*
X58150Y554702D01*
X58228Y554641D01*
X58300Y554574D01*
X58353Y554544D01*
X58401Y554507D01*
X58492Y554468D01*
X58579Y554420D01*
X58637Y554405D01*
X58693Y554381D01*
X58791Y554365D01*
X58887Y554341D01*
X58987Y554334D01*
X59007Y554331D01*
X59019Y554332D01*
X59047Y554330D01*
X197337Y554330D01*
X197435Y554343D01*
X197534Y554346D01*
X197592Y554363D01*
X197652Y554370D01*
X197744Y554407D01*
X197839Y554434D01*
X197891Y554465D01*
X197948Y554487D01*
X198028Y554545D01*
X198113Y554596D01*
X198189Y554662D01*
X198205Y554674D01*
X198213Y554683D01*
X198234Y554702D01*
X199858Y556326D01*
X199919Y556405D01*
X199987Y556477D01*
X200016Y556530D01*
X200053Y556578D01*
X200093Y556669D01*
X200140Y556755D01*
X200155Y556814D01*
X200180Y556869D01*
X200195Y556967D01*
X200220Y557063D01*
X200226Y557163D01*
X200229Y557184D01*
X200228Y557196D01*
X200230Y557224D01*
X200230Y558889D01*
X201193Y561213D01*
X202971Y562992D01*
X205295Y563954D01*
X207810Y563954D01*
X210134Y562992D01*
X211913Y561213D01*
X212876Y558889D01*
X212876Y556374D01*
X211913Y554050D01*
X210134Y552271D01*
X207810Y551309D01*
X206145Y551309D01*
X206047Y551296D01*
X205948Y551293D01*
X205890Y551277D01*
X205829Y551269D01*
X205737Y551233D01*
X205642Y551205D01*
X205590Y551174D01*
X205534Y551152D01*
X205454Y551094D01*
X205368Y551044D01*
X205293Y550977D01*
X205276Y550965D01*
X205269Y550956D01*
X205247Y550937D01*
X201019Y546709D01*
X58539Y546709D01*
X58441Y546696D01*
X58342Y546693D01*
X58284Y546677D01*
X58224Y546669D01*
X58132Y546633D01*
X58037Y546605D01*
X57985Y546574D01*
X57928Y546552D01*
X57848Y546494D01*
X57763Y546444D01*
X57687Y546377D01*
X57671Y546365D01*
X57663Y546356D01*
X57642Y546337D01*
X56718Y545413D01*
X54394Y544451D01*
X51879Y544451D01*
G37*
%LPD*%
%LPC*%
G36*
X40195Y487809D02*
X40195Y487809D01*
X37871Y488771D01*
X36093Y490550D01*
X35130Y492874D01*
X35130Y495389D01*
X36093Y497713D01*
X37871Y499492D01*
X40195Y500454D01*
X42710Y500454D01*
X45034Y499492D01*
X46212Y498314D01*
X46290Y498253D01*
X46362Y498186D01*
X46415Y498156D01*
X46463Y498119D01*
X46554Y498080D01*
X46641Y498032D01*
X46699Y498017D01*
X46755Y497993D01*
X46853Y497977D01*
X46949Y497953D01*
X47049Y497946D01*
X47069Y497943D01*
X47081Y497944D01*
X47109Y497942D01*
X71607Y497942D01*
X71705Y497955D01*
X71804Y497958D01*
X71862Y497975D01*
X71922Y497982D01*
X72014Y498019D01*
X72109Y498046D01*
X72161Y498077D01*
X72218Y498099D01*
X72298Y498157D01*
X72383Y498208D01*
X72459Y498274D01*
X72475Y498286D01*
X72483Y498295D01*
X72504Y498314D01*
X89404Y515214D01*
X159109Y515214D01*
X161713Y512611D01*
X161713Y512610D01*
X173497Y500826D01*
X173576Y500765D01*
X173648Y500698D01*
X173701Y500668D01*
X173749Y500631D01*
X173840Y500592D01*
X173926Y500544D01*
X173985Y500529D01*
X174041Y500505D01*
X174139Y500489D01*
X174234Y500465D01*
X174334Y500458D01*
X174355Y500455D01*
X174367Y500456D01*
X174395Y500454D01*
X176060Y500454D01*
X178384Y499492D01*
X180163Y497713D01*
X181126Y495389D01*
X181126Y492874D01*
X180163Y490550D01*
X178384Y488771D01*
X176060Y487809D01*
X173545Y487809D01*
X171221Y488771D01*
X169443Y490550D01*
X168480Y492874D01*
X168480Y494539D01*
X168468Y494638D01*
X168465Y494737D01*
X168448Y494795D01*
X168440Y494855D01*
X168404Y494947D01*
X168376Y495042D01*
X168345Y495094D01*
X168323Y495151D01*
X168265Y495231D01*
X168215Y495316D01*
X168148Y495391D01*
X168136Y495408D01*
X168127Y495416D01*
X168108Y495437D01*
X156324Y507221D01*
X156246Y507282D01*
X156174Y507350D01*
X156121Y507379D01*
X156073Y507416D01*
X155982Y507455D01*
X155895Y507503D01*
X155837Y507518D01*
X155781Y507542D01*
X155683Y507558D01*
X155587Y507583D01*
X155487Y507589D01*
X155467Y507592D01*
X155455Y507591D01*
X155427Y507593D01*
X93087Y507593D01*
X92989Y507580D01*
X92890Y507577D01*
X92832Y507561D01*
X92771Y507553D01*
X92679Y507517D01*
X92584Y507489D01*
X92532Y507458D01*
X92476Y507436D01*
X92396Y507378D01*
X92310Y507328D01*
X92235Y507261D01*
X92218Y507249D01*
X92211Y507240D01*
X92189Y507221D01*
X75289Y490321D01*
X47109Y490321D01*
X47011Y490308D01*
X46912Y490305D01*
X46854Y490289D01*
X46794Y490281D01*
X46702Y490245D01*
X46607Y490217D01*
X46555Y490186D01*
X46498Y490164D01*
X46418Y490106D01*
X46333Y490056D01*
X46257Y489989D01*
X46241Y489977D01*
X46233Y489968D01*
X46212Y489949D01*
X45034Y488771D01*
X42710Y487809D01*
X40195Y487809D01*
G37*
%LPD*%
%LPC*%
G36*
X229527Y131419D02*
X229527Y131419D01*
X225046Y133275D01*
X221616Y136705D01*
X219760Y141186D01*
X219760Y146037D01*
X221616Y150518D01*
X225046Y153948D01*
X229527Y155804D01*
X234378Y155804D01*
X238859Y153948D01*
X242289Y150518D01*
X243487Y147626D01*
X243501Y147603D01*
X243508Y147579D01*
X243510Y147577D01*
X243511Y147571D01*
X243581Y147462D01*
X243645Y147349D01*
X243666Y147328D01*
X243682Y147303D01*
X243776Y147214D01*
X243866Y147121D01*
X243892Y147105D01*
X243914Y147085D01*
X244027Y147022D01*
X244137Y146955D01*
X244166Y146946D01*
X244192Y146931D01*
X244318Y146899D01*
X244441Y146861D01*
X244471Y146860D01*
X244500Y146852D01*
X244619Y146852D01*
X244657Y146850D01*
X244663Y146850D01*
X244668Y146850D01*
X244759Y146846D01*
X244788Y146852D01*
X244818Y146852D01*
X244944Y146884D01*
X244957Y146887D01*
X244978Y146889D01*
X244987Y146893D01*
X245070Y146910D01*
X245097Y146923D01*
X245126Y146931D01*
X245240Y146993D01*
X245274Y147007D01*
X245287Y147016D01*
X245356Y147050D01*
X245379Y147069D01*
X245405Y147084D01*
X245491Y147164D01*
X245531Y147193D01*
X245547Y147213D01*
X245598Y147256D01*
X245615Y147281D01*
X245637Y147301D01*
X245693Y147389D01*
X245734Y147438D01*
X245749Y147471D01*
X245781Y147516D01*
X245792Y147544D01*
X245808Y147569D01*
X245867Y147719D01*
X246053Y148292D01*
X246925Y150002D01*
X248053Y151555D01*
X249410Y152912D01*
X250962Y154040D01*
X252672Y154911D01*
X254498Y155504D01*
X254814Y155554D01*
X254814Y144882D01*
X254828Y144764D01*
X254836Y144645D01*
X254848Y144606D01*
X254853Y144566D01*
X254897Y144455D01*
X254934Y144342D01*
X254956Y144308D01*
X254970Y144271D01*
X255040Y144174D01*
X255104Y144074D01*
X255134Y144046D01*
X255157Y144013D01*
X255249Y143937D01*
X255336Y143856D01*
X255371Y143836D01*
X255402Y143810D01*
X255510Y143760D01*
X255614Y143702D01*
X255653Y143692D01*
X255690Y143675D01*
X255807Y143652D01*
X255922Y143623D01*
X255982Y143619D01*
X256002Y143615D01*
X256023Y143616D01*
X256083Y143612D01*
X257354Y143612D01*
X257354Y143611D01*
X256083Y143611D01*
X255965Y143596D01*
X255846Y143588D01*
X255807Y143576D01*
X255767Y143571D01*
X255657Y143527D01*
X255543Y143490D01*
X255509Y143469D01*
X255472Y143454D01*
X255375Y143384D01*
X255275Y143320D01*
X255247Y143291D01*
X255214Y143267D01*
X255138Y143175D01*
X255057Y143089D01*
X255037Y143053D01*
X255011Y143022D01*
X254961Y142914D01*
X254903Y142810D01*
X254893Y142771D01*
X254876Y142734D01*
X254854Y142618D01*
X254824Y142502D01*
X254820Y142442D01*
X254816Y142422D01*
X254817Y142402D01*
X254814Y142341D01*
X254814Y131669D01*
X254498Y131719D01*
X252672Y132312D01*
X250962Y133183D01*
X249410Y134311D01*
X248053Y135669D01*
X246925Y137221D01*
X246053Y138931D01*
X245867Y139504D01*
X245855Y139531D01*
X245848Y139560D01*
X245787Y139675D01*
X245732Y139792D01*
X245713Y139815D01*
X245699Y139841D01*
X245612Y139937D01*
X245529Y140037D01*
X245505Y140054D01*
X245485Y140077D01*
X245376Y140148D01*
X245272Y140224D01*
X245244Y140235D01*
X245219Y140251D01*
X245096Y140294D01*
X244976Y140341D01*
X244947Y140345D01*
X244918Y140355D01*
X244789Y140365D01*
X244661Y140381D01*
X244631Y140377D01*
X244601Y140380D01*
X244474Y140358D01*
X244345Y140341D01*
X244317Y140330D01*
X244288Y140325D01*
X244170Y140272D01*
X244049Y140225D01*
X244025Y140207D01*
X243998Y140195D01*
X243897Y140114D01*
X243792Y140038D01*
X243773Y140015D01*
X243750Y139996D01*
X243672Y139893D01*
X243589Y139793D01*
X243576Y139766D01*
X243558Y139742D01*
X243487Y139598D01*
X242289Y136705D01*
X238859Y133275D01*
X234378Y131419D01*
X229527Y131419D01*
G37*
%LPD*%
%LPC*%
G36*
X156576Y52120D02*
X156576Y52120D01*
X152842Y53667D01*
X149984Y56525D01*
X148437Y60260D01*
X148437Y64302D01*
X149984Y68036D01*
X152842Y70895D01*
X156576Y72442D01*
X160619Y72442D01*
X164353Y70895D01*
X167211Y68036D01*
X168758Y64302D01*
X168758Y60260D01*
X167211Y56525D01*
X164353Y53667D01*
X160619Y52120D01*
X156576Y52120D01*
G37*
%LPD*%
%LPC*%
G36*
X105776Y52120D02*
X105776Y52120D01*
X102042Y53667D01*
X99184Y56525D01*
X97637Y60260D01*
X97637Y64302D01*
X99184Y68036D01*
X102042Y70895D01*
X105776Y72442D01*
X109819Y72442D01*
X113553Y70895D01*
X116411Y68036D01*
X117958Y64302D01*
X117958Y60260D01*
X116411Y56525D01*
X113553Y53667D01*
X109819Y52120D01*
X105776Y52120D01*
G37*
%LPD*%
%LPC*%
G36*
X577352Y279461D02*
X577352Y279461D01*
X577352Y288910D01*
X577708Y288854D01*
X579533Y288261D01*
X581243Y287390D01*
X582796Y286262D01*
X584153Y284905D01*
X585281Y283352D01*
X586152Y281642D01*
X586346Y281047D01*
X586380Y280974D01*
X586404Y280899D01*
X586447Y280831D01*
X586481Y280759D01*
X586532Y280698D01*
X586574Y280630D01*
X586633Y280576D01*
X586684Y280514D01*
X586748Y280467D01*
X586806Y280412D01*
X586876Y280374D01*
X586941Y280327D01*
X587015Y280297D01*
X587085Y280259D01*
X587162Y280239D01*
X587237Y280210D01*
X587316Y280200D01*
X587393Y280180D01*
X587473Y280180D01*
X587552Y280170D01*
X587631Y280180D01*
X587711Y280179D01*
X587788Y280199D01*
X587868Y280209D01*
X587942Y280239D01*
X588019Y280258D01*
X588089Y280297D01*
X588163Y280326D01*
X588228Y280373D01*
X588298Y280411D01*
X588356Y280466D01*
X588421Y280513D01*
X588472Y280574D01*
X588530Y280629D01*
X588573Y280696D01*
X588624Y280758D01*
X588658Y280830D01*
X588701Y280897D01*
X588759Y281044D01*
X588759Y281045D01*
X588760Y281046D01*
X588760Y281047D01*
X588953Y281642D01*
X589825Y283352D01*
X590953Y284905D01*
X592310Y286262D01*
X593862Y287390D01*
X595572Y288261D01*
X597398Y288854D01*
X597753Y288910D01*
X597753Y279461D01*
X577352Y279461D01*
G37*
%LPD*%
%LPC*%
G36*
X597398Y265069D02*
X597398Y265069D01*
X595572Y265662D01*
X593862Y266533D01*
X592310Y267661D01*
X590953Y269019D01*
X589825Y270571D01*
X588953Y272281D01*
X588760Y272877D01*
X588726Y272949D01*
X588701Y273024D01*
X588659Y273092D01*
X588625Y273164D01*
X588574Y273226D01*
X588531Y273293D01*
X588473Y273348D01*
X588422Y273409D01*
X588357Y273456D01*
X588299Y273511D01*
X588229Y273549D01*
X588165Y273596D01*
X588091Y273626D01*
X588021Y273664D01*
X587943Y273684D01*
X587869Y273714D01*
X587790Y273724D01*
X587713Y273743D01*
X587633Y273744D01*
X587554Y273754D01*
X587474Y273744D01*
X587395Y273744D01*
X587317Y273724D01*
X587238Y273714D01*
X587164Y273685D01*
X587087Y273665D01*
X587017Y273626D01*
X586942Y273597D01*
X586878Y273550D01*
X586808Y273512D01*
X586750Y273457D01*
X586685Y273410D01*
X586634Y273349D01*
X586576Y273295D01*
X586533Y273227D01*
X586482Y273165D01*
X586448Y273093D01*
X586405Y273026D01*
X586347Y272879D01*
X586346Y272878D01*
X586346Y272877D01*
X586152Y272281D01*
X585281Y270571D01*
X584153Y269019D01*
X582796Y267661D01*
X581243Y266533D01*
X579533Y265662D01*
X577708Y265069D01*
X577352Y265013D01*
X577352Y274462D01*
X597753Y274462D01*
X597753Y265013D01*
X597398Y265069D01*
G37*
%LPD*%
%LPC*%
G36*
X259892Y146151D02*
X259892Y146151D01*
X259892Y155554D01*
X260208Y155504D01*
X262033Y154911D01*
X263743Y154040D01*
X265296Y152912D01*
X266653Y151555D01*
X267781Y150002D01*
X268652Y148292D01*
X268846Y147697D01*
X268879Y147625D01*
X268894Y147579D01*
X268904Y147549D01*
X268947Y147481D01*
X268981Y147409D01*
X269032Y147347D01*
X269075Y147280D01*
X269133Y147226D01*
X269184Y147164D01*
X269248Y147117D01*
X269306Y147062D01*
X269376Y147024D01*
X269441Y146977D01*
X269515Y146947D01*
X269585Y146909D01*
X269662Y146889D01*
X269737Y146860D01*
X269816Y146850D01*
X269893Y146830D01*
X269973Y146830D01*
X270052Y146820D01*
X270131Y146830D01*
X270211Y146829D01*
X270288Y146849D01*
X270368Y146859D01*
X270442Y146889D01*
X270519Y146908D01*
X270589Y146947D01*
X270663Y146976D01*
X270728Y147023D01*
X270798Y147061D01*
X270856Y147116D01*
X270921Y147163D01*
X270972Y147224D01*
X271030Y147279D01*
X271073Y147346D01*
X271124Y147408D01*
X271158Y147480D01*
X271201Y147547D01*
X271259Y147694D01*
X271260Y147695D01*
X271260Y147696D01*
X271260Y147697D01*
X271453Y148292D01*
X272325Y150002D01*
X273453Y151555D01*
X274810Y152912D01*
X276362Y154040D01*
X278072Y154911D01*
X279898Y155504D01*
X280214Y155554D01*
X280214Y146151D01*
X259892Y146151D01*
G37*
%LPD*%
%LPC*%
G36*
X279898Y131719D02*
X279898Y131719D01*
X278072Y132312D01*
X276362Y133183D01*
X274810Y134311D01*
X273453Y135669D01*
X272325Y137221D01*
X271453Y138931D01*
X271260Y139527D01*
X271226Y139599D01*
X271201Y139674D01*
X271159Y139742D01*
X271125Y139814D01*
X271074Y139876D01*
X271031Y139943D01*
X270973Y139998D01*
X270922Y140059D01*
X270857Y140106D01*
X270799Y140161D01*
X270729Y140199D01*
X270665Y140246D01*
X270591Y140276D01*
X270521Y140314D01*
X270443Y140334D01*
X270369Y140364D01*
X270290Y140374D01*
X270213Y140393D01*
X270133Y140394D01*
X270054Y140404D01*
X269974Y140394D01*
X269895Y140394D01*
X269817Y140374D01*
X269738Y140364D01*
X269664Y140335D01*
X269587Y140315D01*
X269517Y140276D01*
X269442Y140247D01*
X269378Y140200D01*
X269308Y140162D01*
X269250Y140107D01*
X269185Y140060D01*
X269134Y139999D01*
X269076Y139945D01*
X269033Y139877D01*
X268982Y139815D01*
X268948Y139743D01*
X268905Y139676D01*
X268847Y139529D01*
X268846Y139528D01*
X268846Y139527D01*
X268652Y138931D01*
X267781Y137221D01*
X266653Y135669D01*
X265296Y134311D01*
X263743Y133183D01*
X262033Y132312D01*
X260208Y131719D01*
X259892Y131669D01*
X259892Y141072D01*
X280214Y141072D01*
X280214Y131669D01*
X279898Y131719D01*
G37*
%LPD*%
%LPC*%
G36*
X602752Y279461D02*
X602752Y279461D01*
X602752Y288910D01*
X603108Y288854D01*
X604933Y288261D01*
X606643Y287390D01*
X608196Y286262D01*
X609553Y284905D01*
X610681Y283352D01*
X611552Y281642D01*
X612145Y279817D01*
X612202Y279461D01*
X602752Y279461D01*
G37*
%LPD*%
%LPC*%
G36*
X602752Y274462D02*
X602752Y274462D01*
X612202Y274462D01*
X612145Y274106D01*
X611552Y272281D01*
X610681Y270571D01*
X609553Y269019D01*
X608196Y267661D01*
X606643Y266533D01*
X604933Y265662D01*
X603108Y265069D01*
X602752Y265013D01*
X602752Y274462D01*
G37*
%LPD*%
%LPC*%
G36*
X135737Y64820D02*
X135737Y64820D01*
X135737Y72139D01*
X137098Y71697D01*
X138523Y70971D01*
X139817Y70031D01*
X140948Y68900D01*
X141888Y67606D01*
X142614Y66181D01*
X143056Y64820D01*
X135737Y64820D01*
G37*
%LPD*%
%LPC*%
G36*
X123339Y64820D02*
X123339Y64820D01*
X123781Y66181D01*
X124507Y67606D01*
X125447Y68900D01*
X126578Y70031D01*
X127872Y70971D01*
X129297Y71697D01*
X130658Y72139D01*
X130658Y64820D01*
X123339Y64820D01*
G37*
%LPD*%
%LPC*%
G36*
X135737Y59742D02*
X135737Y59742D01*
X143056Y59742D01*
X142614Y58380D01*
X141888Y56955D01*
X140948Y55662D01*
X139817Y54531D01*
X138523Y53591D01*
X137098Y52864D01*
X135737Y52422D01*
X135737Y59742D01*
G37*
%LPD*%
%LPC*%
G36*
X129297Y52864D02*
X129297Y52864D01*
X127872Y53591D01*
X126578Y54531D01*
X125447Y55662D01*
X124507Y56955D01*
X123781Y58380D01*
X123339Y59742D01*
X130658Y59742D01*
X130658Y52422D01*
X129297Y52864D01*
G37*
%LPD*%
%LPC*%
G36*
X133197Y62280D02*
X133197Y62280D01*
X133197Y62282D01*
X133198Y62282D01*
X133198Y62280D01*
X133197Y62280D01*
G37*
%LPD*%
D10*
X409753Y143612D03*
X384353Y143612D03*
X358953Y143612D03*
X333553Y143612D03*
X308153Y143612D03*
X282753Y143612D03*
X257353Y143612D03*
X231953Y143612D03*
X181153Y143612D03*
X155753Y143612D03*
X130353Y143612D03*
X104953Y143612D03*
X79553Y143612D03*
X54153Y143612D03*
X54153Y626212D03*
X79553Y626212D03*
X104953Y626212D03*
X130353Y626212D03*
X155753Y626212D03*
X181153Y626212D03*
X206553Y626212D03*
X231953Y626212D03*
X272593Y626212D03*
X297993Y626212D03*
X323393Y626212D03*
X348793Y626212D03*
X374193Y626212D03*
X399593Y626212D03*
X424993Y626212D03*
X450393Y626212D03*
X475793Y626212D03*
X501193Y626212D03*
X117653Y429362D03*
X143053Y429362D03*
X168453Y429362D03*
X193853Y429362D03*
X219253Y429362D03*
X244653Y429362D03*
X270053Y429362D03*
X295453Y429362D03*
X320853Y429362D03*
X346253Y429362D03*
X371653Y429362D03*
X397053Y429362D03*
X422453Y429362D03*
X447853Y429362D03*
X473253Y429362D03*
X498653Y429362D03*
X524053Y429362D03*
X549453Y429362D03*
X574853Y429362D03*
X600253Y429362D03*
X600253Y276962D03*
X574853Y276962D03*
X549453Y276962D03*
X524053Y276962D03*
X498653Y276962D03*
X473253Y276962D03*
X447853Y276962D03*
X422453Y276962D03*
X397053Y276962D03*
X371653Y276962D03*
X346253Y276962D03*
X320853Y276962D03*
X295453Y276962D03*
X270053Y276962D03*
X244653Y276962D03*
X219253Y276962D03*
X193853Y276962D03*
X168453Y276962D03*
X143053Y276962D03*
X117653Y276962D03*
D11*
X107798Y62281D03*
X82398Y62281D03*
X56998Y62281D03*
X133198Y62281D03*
X158598Y62281D03*
D12*
X66345Y252324D02*
X58014Y260655D01*
X226111Y252324D02*
X244653Y270866D01*
X244653Y276962D01*
D13*
X70663Y413614D03*
D12*
X70409Y413614D01*
X58014Y401218D01*
X58014Y260655D01*
X66345Y252324D02*
X226111Y252324D01*
D13*
X586283Y174752D03*
D12*
X586029Y175006D01*
D13*
X416611Y175006D03*
D12*
X586029Y175006D01*
X685343Y481686D02*
X524561Y642468D01*
D13*
X650291Y183236D03*
D12*
X297993Y626212D02*
X314249Y642468D01*
X524561Y642468D01*
X679755Y195428D02*
X667563Y183236D01*
X679755Y195428D02*
X679755Y250800D01*
X685343Y256388D01*
X667563Y183236D02*
X650291Y183236D01*
X685343Y256388D02*
X685343Y481686D01*
D13*
X276149Y226466D03*
D12*
X299872Y226466D01*
X305206Y231800D01*
D13*
X305206Y231800D03*
X206553Y557632D03*
D12*
X399593Y626212D02*
X574853Y450952D01*
X574853Y429362D01*
X206553Y557632D02*
X199441Y550520D01*
X53391Y550520D01*
X53137Y550774D01*
D13*
X53137Y550774D03*
X346253Y602082D03*
D12*
X339903Y602082D01*
X270053Y532232D01*
X181153Y532232D01*
X168453Y519532D01*
D13*
X168453Y519532D03*
D12*
X374193Y626212D02*
X549453Y450952D01*
X549453Y429362D01*
D13*
X212903Y506832D03*
D12*
X206553Y506832D01*
D13*
X54153Y411582D03*
D12*
X168453Y468732D02*
X206553Y506832D01*
X54153Y457556D02*
X54153Y411582D01*
X54153Y457556D02*
X65329Y468732D01*
X168453Y468732D01*
D13*
X251765Y122022D03*
D12*
X112573Y122022D01*
X104191Y113640D01*
D13*
X104191Y113640D03*
X426466Y203149D03*
X554685Y62230D03*
X651764Y158750D03*
X688594Y28550D03*
X587553Y125832D03*
D12*
X562153Y125832D01*
X522986Y164998D01*
X329540Y164998D01*
X308153Y143612D01*
D13*
X187503Y468732D03*
X73965Y224513D03*
D12*
X210363Y484226D02*
X338938Y484226D01*
X210363Y484226D02*
X194869Y468732D01*
X187503Y468732D01*
X153467Y444348D02*
X168453Y429362D01*
X153467Y444348D02*
X95555Y444348D01*
X86919Y435712D01*
X86919Y373990D01*
X71933Y359004D02*
X71425Y359004D01*
D13*
X71425Y359004D03*
D12*
X71933Y359004D02*
X86919Y373990D01*
X73965Y224513D02*
X83442Y215036D01*
D13*
X304343Y201270D03*
D12*
X290576Y215036D02*
X83442Y215036D01*
X290576Y215036D02*
X304343Y201270D01*
D13*
X389839Y550570D03*
D12*
X352501Y513232D01*
X352501Y497789D02*
X338938Y484226D01*
X352501Y497789D02*
X352501Y513232D01*
D13*
X24435Y362560D03*
D12*
X24435Y260960D01*
X320853Y429362D02*
X320853Y443078D01*
X313233Y450698D01*
X90475Y450698D01*
X78029Y438252D01*
X78029Y376530D01*
X77775Y376276D01*
D13*
X77775Y376276D03*
D12*
X24435Y260960D02*
X24435Y203048D01*
X31801Y195682D01*
X191793Y195682D01*
X192329Y195146D01*
D13*
X192329Y195146D03*
X61197Y424282D03*
X14247Y418186D03*
D12*
X11227Y415166D01*
X11227Y64110D01*
X61011Y424468D02*
X61011Y452222D01*
X61011Y424468D02*
X61197Y424282D01*
X71171Y462382D02*
X159309Y462382D01*
X71171Y462382D02*
X61011Y452222D01*
X346253Y440030D02*
X346253Y429362D01*
X346253Y440030D02*
X330251Y456032D01*
X165659Y456032D01*
X159309Y462382D01*
X11227Y64110D02*
X54559Y20777D01*
X186182Y20777D01*
D13*
X186182Y20777D03*
X675945Y259944D03*
D12*
X675945Y468478D01*
X626669Y37694D02*
X468173Y37694D01*
X460299Y45568D01*
X459791Y45568D01*
D13*
X459791Y45568D03*
X541579Y602844D03*
D12*
X675945Y468478D01*
D13*
X626669Y37694D03*
X549453Y487782D03*
D12*
X644703Y487782D01*
D13*
X473253Y481432D03*
X238303Y475082D03*
D12*
X644703Y487782D02*
X663753Y468732D01*
X473253Y481432D02*
X466903Y475082D01*
X238303Y475082D01*
X617779Y95402D02*
X607212Y84836D01*
X617779Y95402D02*
X617779Y165202D01*
X663753Y211176D01*
X663753Y468732D01*
X607212Y84836D02*
X531012Y84836D01*
X530758Y84582D01*
D13*
X530758Y84582D03*
X482397Y229718D03*
D12*
X628447Y229718D01*
X655117Y256388D01*
X655117Y453492D01*
X648259Y460350D01*
D13*
X648259Y460350D03*
D12*
X473253Y436982D02*
X473253Y429362D01*
D13*
X162103Y475776D03*
D12*
X61197Y475776D01*
X35865Y450444D01*
X206553Y462382D02*
X208077Y460858D01*
D13*
X206553Y462382D03*
D12*
X449377Y460858D02*
X473253Y436982D01*
X449377Y460858D02*
X208077Y460858D01*
D13*
X35865Y205842D03*
D12*
X35865Y450444D01*
X638353Y449682D02*
X644703Y443332D01*
X638353Y449682D02*
X587553Y449682D01*
D13*
X587553Y449682D03*
X644703Y443332D03*
D12*
X625653Y271882D02*
X606603Y252832D01*
X421183Y252832D01*
X397053Y276962D01*
X625653Y271882D02*
X625653Y302616D01*
X625145Y303124D01*
D13*
X625145Y303124D03*
X612953Y240132D03*
D12*
X408483Y240132D01*
X371653Y276962D01*
X346253Y246482D02*
X339293Y239522D01*
X346253Y246482D02*
X346253Y276962D01*
X50394Y240132D02*
X45822Y244704D01*
D13*
X45822Y244704D03*
D12*
X50394Y240132D02*
X338684Y240132D01*
X339293Y239522D01*
X320853Y252832D02*
X314503Y246482D01*
X320853Y252832D02*
X320853Y276962D01*
X50444Y258826D02*
X50444Y314147D01*
X50444Y258826D02*
X62789Y246482D01*
X314503Y246482D01*
D13*
X50444Y314147D03*
D12*
X422453Y276962D02*
X438658Y260756D01*
X507898Y260756D01*
X524053Y276911D02*
X524053Y276962D01*
X524053Y276911D02*
X507898Y260756D01*
D13*
X447853Y138532D03*
D12*
X447853Y113640D02*
X396799Y62586D01*
X396799Y54204D01*
D13*
X396799Y54204D03*
D12*
X447853Y113640D02*
X447853Y138532D01*
X464261Y186690D02*
X498653Y221082D01*
D13*
X498653Y221082D03*
D12*
X15799Y196952D02*
X15799Y406756D01*
X15799Y196952D02*
X26060Y186690D01*
X464261Y186690D01*
D13*
X24435Y433426D03*
D12*
X24435Y415392D01*
X15799Y406756D01*
D13*
X479603Y468732D03*
D12*
X333553Y468732D01*
D13*
X333553Y468732D03*
X174803Y494132D03*
X41453Y494132D03*
D12*
X157531Y511404D02*
X174803Y494132D01*
X157531Y511404D02*
X90983Y511404D01*
X73711Y494132D01*
X41453Y494132D01*
X348793Y626212D02*
X524053Y450952D01*
X524053Y429362D01*
D13*
X611175Y580746D03*
D12*
X680771Y580746D01*
X699567Y561950D01*
X699567Y118720D01*
X640385Y59538D01*
X581203Y59538D01*
X490525Y48616D02*
X482397Y56744D01*
X434137Y56744D01*
X404165Y26772D01*
X570281Y48616D02*
X581203Y59538D01*
X570281Y48616D02*
X490525Y48616D01*
X404165Y26772D02*
X259385Y26772D01*
X252781Y20168D01*
D13*
X252781Y20168D03*
X196748Y84074D03*
D12*
X103378Y41300D02*
X82398Y62281D01*
X174600Y41300D02*
X187096Y53797D01*
X187096Y73711D01*
X196748Y83363D02*
X196748Y84074D01*
X174600Y41300D02*
X103378Y41300D01*
X187096Y73711D02*
X196748Y83363D01*
D13*
X615239Y571094D03*
D12*
X675945Y571094D01*
X691566Y555473D01*
X646125Y76962D02*
X540156Y76962D01*
X530758Y67564D01*
X423113Y67564D01*
X388315Y32766D01*
X646125Y76962D02*
X667817Y98654D01*
X667817Y155042D01*
X691566Y178791D01*
X691566Y555473D01*
X66599Y32766D02*
X56540Y42824D01*
X56998Y43282D01*
X56998Y62281D01*
X66599Y32766D02*
X388315Y32766D01*
M02*
