%
M48
M72
T01C0.0394
T02C0.0400
%
T01
X800Y1500
X4800Y1500
X7700Y1000
X8700Y1600
X7700Y5000
X12700Y1600
X20700Y1100
X20700Y5100
X24700Y5100
X24700Y1100
X21600Y11050
X20600Y11050
X19600Y11050
X18600Y11050
X17600Y11050
X16600Y11050
X15600Y11050
X14600Y11050
X13600Y11050
X12600Y11050
X11600Y11050
X10600Y11050
X9600Y11050
X8600Y11050
X7600Y11050
X6600Y11050
X5600Y11050
X4600Y11050
X3600Y11050
X2600Y11050
X2600Y17050
X3600Y17050
X4600Y17050
X5600Y17050
X6600Y17050
X7600Y17050
X8600Y17050
X9600Y17050
X10600Y17050
X11600Y17050
X12600Y17050
X13600Y17050
X14600Y17050
X15600Y17050
X16600Y17050
X17600Y17050
X18600Y17050
X19600Y17050
X20600Y17050
X21600Y17050
X26100Y18600
X26100Y22600
X26400Y24800
X23600Y25900
X22400Y24800
X19600Y25900
X15200Y18200
X11200Y18200
T02
X10700Y24800
X11700Y24800
X12700Y24800
X13700Y24800
X14700Y24800
X15700Y24800
X16700Y24800
X17700Y24800
X18700Y24800
X19700Y24800
X9100Y24800
X8100Y24800
X7100Y24800
X6100Y24800
X5100Y24800
X4100Y24800
X3100Y24800
X2100Y24800
X2100Y5800
X3100Y5800
X4100Y5800
X5100Y5800
X6100Y5800
X7100Y5800
X9100Y5800
X10100Y5800
X11100Y5800
X12100Y5800
X13100Y5800
X14100Y5800
X15100Y5800
X16100Y5800
M30
