G04 EAGLE Gerber RS-274X export*
G75*
%MOMM*%
%FSLAX34Y34*%
%LPD*%
%INSolder side*%
%IPPOS*%
%AMOC8*
5,1,8,0,0,1.08239X$1,22.5*%
G01*
%ADD10C,1.320800*%
%ADD11C,1.524000*%
%ADD12C,0.254000*%
%ADD13C,0.756400*%

G36*
X343373Y10173D02*
X343373Y10173D01*
X343503Y10175D01*
X343586Y10193D01*
X343669Y10201D01*
X343794Y10237D01*
X343921Y10263D01*
X343999Y10296D01*
X344080Y10319D01*
X344196Y10378D01*
X344316Y10428D01*
X344386Y10474D01*
X344461Y10512D01*
X344564Y10591D01*
X344673Y10662D01*
X344733Y10721D01*
X344800Y10772D01*
X344886Y10869D01*
X344979Y10959D01*
X345028Y11028D01*
X345084Y11091D01*
X345151Y11202D01*
X345226Y11308D01*
X345261Y11385D01*
X345304Y11457D01*
X345349Y11578D01*
X345403Y11697D01*
X345423Y11778D01*
X345452Y11857D01*
X345474Y11985D01*
X345505Y12112D01*
X345512Y12213D01*
X345523Y12278D01*
X345522Y12344D01*
X345529Y12446D01*
X345529Y237554D01*
X345517Y237683D01*
X345515Y237813D01*
X345497Y237896D01*
X345489Y237979D01*
X345453Y238104D01*
X345427Y238231D01*
X345394Y238309D01*
X345371Y238390D01*
X345312Y238506D01*
X345262Y238626D01*
X345216Y238696D01*
X345178Y238771D01*
X345099Y238874D01*
X345028Y238983D01*
X344969Y239043D01*
X344918Y239110D01*
X344821Y239196D01*
X344731Y239289D01*
X344662Y239338D01*
X344599Y239394D01*
X344488Y239461D01*
X344382Y239536D01*
X344305Y239571D01*
X344233Y239614D01*
X344112Y239659D01*
X343993Y239713D01*
X343912Y239733D01*
X343833Y239762D01*
X343705Y239784D01*
X343578Y239815D01*
X343477Y239822D01*
X343412Y239833D01*
X343346Y239832D01*
X343244Y239839D01*
X12446Y239839D01*
X12317Y239827D01*
X12187Y239825D01*
X12104Y239807D01*
X12021Y239799D01*
X11896Y239763D01*
X11769Y239737D01*
X11691Y239704D01*
X11610Y239681D01*
X11494Y239622D01*
X11374Y239572D01*
X11304Y239526D01*
X11229Y239488D01*
X11126Y239409D01*
X11017Y239338D01*
X10957Y239279D01*
X10890Y239228D01*
X10804Y239131D01*
X10711Y239041D01*
X10662Y238972D01*
X10606Y238909D01*
X10539Y238798D01*
X10464Y238692D01*
X10429Y238615D01*
X10386Y238543D01*
X10341Y238422D01*
X10287Y238303D01*
X10267Y238222D01*
X10238Y238143D01*
X10216Y238015D01*
X10185Y237888D01*
X10178Y237787D01*
X10167Y237722D01*
X10168Y237656D01*
X10161Y237554D01*
X10161Y12446D01*
X10173Y12317D01*
X10175Y12187D01*
X10193Y12104D01*
X10201Y12021D01*
X10237Y11896D01*
X10263Y11769D01*
X10296Y11691D01*
X10319Y11610D01*
X10378Y11494D01*
X10428Y11374D01*
X10474Y11304D01*
X10512Y11229D01*
X10591Y11126D01*
X10662Y11017D01*
X10721Y10957D01*
X10772Y10890D01*
X10869Y10804D01*
X10959Y10711D01*
X11028Y10662D01*
X11091Y10606D01*
X11202Y10539D01*
X11308Y10464D01*
X11385Y10429D01*
X11457Y10386D01*
X11578Y10341D01*
X11697Y10287D01*
X11778Y10267D01*
X11857Y10238D01*
X11985Y10216D01*
X12112Y10185D01*
X12213Y10178D01*
X12278Y10167D01*
X12344Y10168D01*
X12446Y10161D01*
X343244Y10161D01*
X343373Y10173D01*
G37*
%LPC*%
G36*
X124474Y107695D02*
X124474Y107695D01*
X119806Y109629D01*
X116233Y113202D01*
X114299Y117870D01*
X114299Y136130D01*
X116233Y140798D01*
X119806Y144371D01*
X124474Y146305D01*
X129526Y146305D01*
X134194Y144371D01*
X138084Y140481D01*
X138184Y140399D01*
X138278Y140309D01*
X138348Y140263D01*
X138413Y140209D01*
X138527Y140146D01*
X138636Y140075D01*
X138713Y140043D01*
X138787Y140003D01*
X138910Y139962D01*
X139030Y139912D01*
X139113Y139895D01*
X139193Y139869D01*
X139322Y139852D01*
X139449Y139826D01*
X139533Y139825D01*
X139616Y139814D01*
X139746Y139821D01*
X139876Y139819D01*
X139959Y139833D01*
X140043Y139838D01*
X140169Y139869D01*
X140297Y139891D01*
X140375Y139921D01*
X140457Y139941D01*
X140575Y139995D01*
X140697Y140041D01*
X140769Y140085D01*
X140845Y140120D01*
X140951Y140195D01*
X141062Y140262D01*
X141139Y140329D01*
X141193Y140367D01*
X141239Y140415D01*
X141316Y140481D01*
X144216Y143382D01*
X144299Y143482D01*
X144389Y143575D01*
X144414Y143614D01*
X144433Y143635D01*
X144452Y143666D01*
X144488Y143710D01*
X144551Y143824D01*
X144622Y143933D01*
X144644Y143987D01*
X144653Y144001D01*
X144661Y144023D01*
X144695Y144084D01*
X144736Y144208D01*
X144785Y144328D01*
X144799Y144396D01*
X144801Y144402D01*
X144803Y144414D01*
X144828Y144490D01*
X144845Y144619D01*
X144871Y144746D01*
X144873Y144830D01*
X144884Y144914D01*
X144876Y145043D01*
X144879Y145173D01*
X144864Y145256D01*
X144860Y145340D01*
X144828Y145466D01*
X144806Y145594D01*
X144777Y145673D01*
X144756Y145754D01*
X144702Y145872D01*
X144656Y145994D01*
X144613Y146066D01*
X144578Y146142D01*
X144503Y146248D01*
X144435Y146360D01*
X144368Y146437D01*
X144330Y146490D01*
X144283Y146536D01*
X144216Y146613D01*
X144025Y146804D01*
X142521Y150435D01*
X142521Y150914D01*
X142513Y151002D01*
X142514Y151090D01*
X142493Y151214D01*
X142481Y151339D01*
X142457Y151424D01*
X142442Y151511D01*
X142398Y151629D01*
X142363Y151750D01*
X142323Y151828D01*
X142292Y151911D01*
X142227Y152019D01*
X142170Y152131D01*
X142117Y152201D01*
X142071Y152276D01*
X141960Y152405D01*
X141910Y152470D01*
X141884Y152493D01*
X141852Y152530D01*
X120755Y173627D01*
X119633Y176335D01*
X119633Y202922D01*
X119625Y203010D01*
X119626Y203098D01*
X119605Y203222D01*
X119593Y203347D01*
X119569Y203432D01*
X119554Y203519D01*
X119510Y203637D01*
X119475Y203757D01*
X119435Y203836D01*
X119404Y203919D01*
X119339Y204027D01*
X119282Y204139D01*
X119229Y204208D01*
X119183Y204284D01*
X119072Y204413D01*
X119022Y204477D01*
X118996Y204501D01*
X118964Y204538D01*
X115371Y208130D01*
X113283Y213172D01*
X113283Y218628D01*
X115372Y223670D01*
X119230Y227528D01*
X124272Y229617D01*
X129728Y229617D01*
X134770Y227528D01*
X138084Y224214D01*
X138184Y224131D01*
X138278Y224041D01*
X138348Y223995D01*
X138413Y223942D01*
X138527Y223879D01*
X138636Y223808D01*
X138713Y223776D01*
X138787Y223735D01*
X138910Y223695D01*
X139031Y223645D01*
X139113Y223628D01*
X139193Y223602D01*
X139321Y223585D01*
X139449Y223559D01*
X139533Y223557D01*
X139616Y223546D01*
X139746Y223554D01*
X139876Y223552D01*
X139959Y223566D01*
X140043Y223571D01*
X140169Y223602D01*
X140297Y223624D01*
X140375Y223654D01*
X140457Y223674D01*
X140575Y223728D01*
X140697Y223774D01*
X140769Y223817D01*
X140845Y223852D01*
X140951Y223928D01*
X141062Y223995D01*
X141139Y224062D01*
X141193Y224100D01*
X141239Y224148D01*
X141316Y224214D01*
X144630Y227529D01*
X149672Y229617D01*
X155128Y229617D01*
X160170Y227528D01*
X163484Y224214D01*
X163584Y224131D01*
X163678Y224041D01*
X163748Y223995D01*
X163813Y223942D01*
X163927Y223879D01*
X164036Y223808D01*
X164113Y223776D01*
X164187Y223735D01*
X164310Y223695D01*
X164431Y223645D01*
X164513Y223628D01*
X164593Y223602D01*
X164721Y223585D01*
X164849Y223559D01*
X164933Y223557D01*
X165016Y223546D01*
X165146Y223554D01*
X165276Y223552D01*
X165359Y223566D01*
X165443Y223571D01*
X165569Y223602D01*
X165697Y223624D01*
X165775Y223654D01*
X165857Y223674D01*
X165975Y223728D01*
X166097Y223774D01*
X166169Y223817D01*
X166245Y223852D01*
X166351Y223928D01*
X166462Y223995D01*
X166539Y224062D01*
X166593Y224100D01*
X166639Y224148D01*
X166716Y224214D01*
X170030Y227529D01*
X175072Y229617D01*
X180528Y229617D01*
X185570Y227528D01*
X189428Y223670D01*
X190368Y221400D01*
X190407Y221327D01*
X190437Y221251D01*
X190507Y221139D01*
X190568Y221023D01*
X190620Y220958D01*
X190663Y220888D01*
X190753Y220792D01*
X190834Y220689D01*
X190897Y220635D01*
X190953Y220575D01*
X191059Y220496D01*
X191158Y220411D01*
X191230Y220369D01*
X191296Y220320D01*
X191414Y220263D01*
X191528Y220197D01*
X191606Y220170D01*
X191681Y220134D01*
X191807Y220100D01*
X191932Y220056D01*
X192013Y220044D01*
X192093Y220023D01*
X192224Y220013D01*
X192354Y219993D01*
X192437Y219996D01*
X192519Y219990D01*
X192649Y220005D01*
X192781Y220010D01*
X192861Y220028D01*
X192943Y220037D01*
X193069Y220076D01*
X193197Y220105D01*
X193273Y220138D01*
X193352Y220163D01*
X193468Y220224D01*
X193588Y220277D01*
X193656Y220323D01*
X193729Y220362D01*
X193832Y220443D01*
X193941Y220518D01*
X193999Y220576D01*
X194064Y220628D01*
X194149Y220727D01*
X194242Y220820D01*
X194289Y220889D01*
X194342Y220951D01*
X194437Y221107D01*
X194482Y221174D01*
X194495Y221202D01*
X194503Y221216D01*
X195450Y222519D01*
X196581Y223650D01*
X197874Y224590D01*
X199300Y225316D01*
X200661Y225759D01*
X200661Y216154D01*
X200673Y216025D01*
X200675Y215895D01*
X200678Y215882D01*
X200678Y215878D01*
X200667Y215813D01*
X200668Y215748D01*
X200661Y215646D01*
X200661Y206041D01*
X199300Y206484D01*
X197874Y207210D01*
X196581Y208150D01*
X195450Y209281D01*
X194498Y210591D01*
X194472Y210632D01*
X194436Y210706D01*
X194358Y210812D01*
X194288Y210923D01*
X194231Y210983D01*
X194182Y211050D01*
X194086Y211139D01*
X193996Y211235D01*
X193929Y211284D01*
X193869Y211340D01*
X193757Y211410D01*
X193651Y211487D01*
X193577Y211523D01*
X193507Y211566D01*
X193385Y211614D01*
X193266Y211671D01*
X193186Y211692D01*
X193109Y211722D01*
X192980Y211746D01*
X192853Y211780D01*
X192770Y211785D01*
X192689Y211801D01*
X192558Y211800D01*
X192427Y211810D01*
X192345Y211800D01*
X192262Y211800D01*
X192133Y211775D01*
X192002Y211760D01*
X191924Y211735D01*
X191843Y211720D01*
X191720Y211671D01*
X191595Y211632D01*
X191522Y211593D01*
X191445Y211563D01*
X191334Y211493D01*
X191218Y211431D01*
X191154Y211379D01*
X191084Y211335D01*
X190988Y211245D01*
X190886Y211162D01*
X190832Y211100D01*
X190772Y211043D01*
X190694Y210937D01*
X190609Y210837D01*
X190568Y210766D01*
X190519Y210699D01*
X190437Y210536D01*
X190397Y210466D01*
X190387Y210437D01*
X190368Y210400D01*
X189428Y208130D01*
X185570Y204272D01*
X180528Y202183D01*
X175072Y202183D01*
X170030Y204271D01*
X166716Y207586D01*
X166616Y207669D01*
X166522Y207759D01*
X166452Y207805D01*
X166387Y207858D01*
X166273Y207921D01*
X166164Y207992D01*
X166087Y208024D01*
X166013Y208065D01*
X165890Y208105D01*
X165770Y208155D01*
X165687Y208172D01*
X165607Y208198D01*
X165478Y208215D01*
X165351Y208241D01*
X165267Y208243D01*
X165184Y208254D01*
X165054Y208246D01*
X164924Y208248D01*
X164841Y208234D01*
X164757Y208229D01*
X164631Y208198D01*
X164503Y208176D01*
X164425Y208146D01*
X164343Y208126D01*
X164225Y208072D01*
X164103Y208026D01*
X164031Y207983D01*
X163955Y207948D01*
X163849Y207872D01*
X163738Y207805D01*
X163661Y207738D01*
X163607Y207700D01*
X163561Y207652D01*
X163484Y207586D01*
X160436Y204538D01*
X160380Y204470D01*
X160317Y204409D01*
X160244Y204306D01*
X160164Y204209D01*
X160121Y204132D01*
X160070Y204060D01*
X160018Y203945D01*
X159957Y203835D01*
X159930Y203751D01*
X159893Y203671D01*
X159863Y203549D01*
X159824Y203429D01*
X159812Y203342D01*
X159791Y203256D01*
X159779Y203086D01*
X159768Y203006D01*
X159770Y202970D01*
X159767Y202922D01*
X159767Y181798D01*
X159775Y181710D01*
X159774Y181622D01*
X159795Y181498D01*
X159807Y181373D01*
X159831Y181288D01*
X159846Y181201D01*
X159890Y181083D01*
X159925Y180962D01*
X159965Y180884D01*
X159996Y180801D01*
X160061Y180693D01*
X160118Y180581D01*
X160171Y180511D01*
X160217Y180436D01*
X160328Y180307D01*
X160378Y180242D01*
X160404Y180219D01*
X160436Y180182D01*
X177670Y162948D01*
X177738Y162892D01*
X177799Y162829D01*
X177902Y162756D01*
X177999Y162676D01*
X178076Y162633D01*
X178148Y162582D01*
X178263Y162530D01*
X178373Y162469D01*
X178456Y162442D01*
X178537Y162405D01*
X178659Y162375D01*
X178779Y162336D01*
X178866Y162324D01*
X178952Y162303D01*
X179121Y162291D01*
X179202Y162280D01*
X179238Y162282D01*
X179286Y162279D01*
X179765Y162279D01*
X183396Y160775D01*
X186175Y157996D01*
X187679Y154365D01*
X187679Y150435D01*
X186175Y146804D01*
X185984Y146613D01*
X185901Y146513D01*
X185811Y146420D01*
X185765Y146349D01*
X185712Y146285D01*
X185649Y146171D01*
X185578Y146062D01*
X185546Y145984D01*
X185505Y145911D01*
X185465Y145787D01*
X185415Y145667D01*
X185398Y145585D01*
X185372Y145505D01*
X185355Y145376D01*
X185329Y145249D01*
X185327Y145165D01*
X185316Y145081D01*
X185324Y144951D01*
X185321Y144822D01*
X185336Y144739D01*
X185340Y144655D01*
X185372Y144529D01*
X185394Y144401D01*
X185421Y144328D01*
X185424Y144313D01*
X185427Y144306D01*
X185444Y144241D01*
X185498Y144123D01*
X185544Y144001D01*
X185578Y143943D01*
X185588Y143919D01*
X185599Y143903D01*
X185622Y143853D01*
X185697Y143747D01*
X185765Y143635D01*
X185807Y143587D01*
X185823Y143562D01*
X185845Y143540D01*
X185870Y143505D01*
X185917Y143459D01*
X185984Y143382D01*
X188884Y140481D01*
X188984Y140399D01*
X189078Y140309D01*
X189148Y140263D01*
X189213Y140209D01*
X189327Y140146D01*
X189436Y140075D01*
X189513Y140043D01*
X189587Y140003D01*
X189710Y139962D01*
X189830Y139912D01*
X189913Y139895D01*
X189993Y139869D01*
X190122Y139852D01*
X190249Y139826D01*
X190333Y139825D01*
X190416Y139814D01*
X190546Y139821D01*
X190676Y139819D01*
X190759Y139833D01*
X190843Y139838D01*
X190969Y139869D01*
X191097Y139891D01*
X191175Y139921D01*
X191257Y139941D01*
X191375Y139995D01*
X191497Y140041D01*
X191569Y140085D01*
X191645Y140120D01*
X191751Y140195D01*
X191862Y140262D01*
X191939Y140329D01*
X191993Y140367D01*
X192039Y140415D01*
X192116Y140481D01*
X196006Y144371D01*
X200674Y146305D01*
X205726Y146305D01*
X210394Y144371D01*
X213967Y140798D01*
X215718Y136570D01*
X215741Y136528D01*
X215757Y136483D01*
X215841Y136339D01*
X215918Y136193D01*
X215948Y136155D01*
X215972Y136114D01*
X216081Y135988D01*
X216184Y135859D01*
X216221Y135828D01*
X216252Y135791D01*
X216383Y135688D01*
X216508Y135580D01*
X216550Y135556D01*
X216587Y135527D01*
X216735Y135450D01*
X216878Y135367D01*
X216923Y135351D01*
X216966Y135329D01*
X217125Y135281D01*
X217282Y135226D01*
X217329Y135219D01*
X217375Y135205D01*
X217540Y135188D01*
X217704Y135163D01*
X217752Y135165D01*
X217799Y135160D01*
X217965Y135173D01*
X218131Y135179D01*
X218177Y135190D01*
X218225Y135194D01*
X218385Y135238D01*
X218547Y135275D01*
X218591Y135294D01*
X218637Y135307D01*
X218786Y135380D01*
X218938Y135446D01*
X218978Y135473D01*
X219021Y135495D01*
X219154Y135594D01*
X219291Y135688D01*
X219325Y135722D01*
X219363Y135750D01*
X219475Y135873D01*
X219592Y135990D01*
X219619Y136030D01*
X219652Y136065D01*
X219739Y136206D01*
X219832Y136343D01*
X219851Y136387D01*
X219876Y136428D01*
X219997Y136725D01*
X220002Y136735D01*
X220002Y136737D01*
X220003Y136739D01*
X220125Y137114D01*
X220779Y138397D01*
X221625Y139561D01*
X222643Y140579D01*
X223807Y141425D01*
X225090Y142079D01*
X226315Y142477D01*
X226315Y127000D01*
X226315Y111523D01*
X225090Y111921D01*
X223807Y112575D01*
X222643Y113421D01*
X221625Y114439D01*
X220779Y115603D01*
X220125Y116886D01*
X220003Y117261D01*
X219984Y117305D01*
X219972Y117352D01*
X219900Y117501D01*
X219834Y117653D01*
X219807Y117693D01*
X219786Y117736D01*
X219687Y117870D01*
X219594Y118007D01*
X219561Y118041D01*
X219532Y118080D01*
X219410Y118192D01*
X219293Y118310D01*
X219254Y118337D01*
X219219Y118370D01*
X219078Y118458D01*
X218941Y118552D01*
X218897Y118571D01*
X218857Y118597D01*
X218702Y118657D01*
X218550Y118724D01*
X218504Y118735D01*
X218459Y118752D01*
X218296Y118783D01*
X218134Y118820D01*
X218086Y118822D01*
X218039Y118831D01*
X217873Y118831D01*
X217707Y118837D01*
X217660Y118830D01*
X217612Y118830D01*
X217449Y118799D01*
X217285Y118775D01*
X217240Y118759D01*
X217193Y118750D01*
X217038Y118689D01*
X216882Y118634D01*
X216840Y118611D01*
X216795Y118593D01*
X216655Y118504D01*
X216511Y118422D01*
X216475Y118390D01*
X216434Y118365D01*
X216313Y118252D01*
X216187Y118144D01*
X216157Y118106D01*
X216122Y118074D01*
X216024Y117940D01*
X215920Y117810D01*
X215898Y117768D01*
X215869Y117729D01*
X215725Y117444D01*
X215720Y117433D01*
X215719Y117431D01*
X215718Y117430D01*
X213967Y113202D01*
X210394Y109629D01*
X205726Y107695D01*
X200674Y107695D01*
X196006Y109629D01*
X192116Y113519D01*
X192016Y113601D01*
X191922Y113691D01*
X191852Y113737D01*
X191787Y113791D01*
X191673Y113854D01*
X191564Y113925D01*
X191487Y113957D01*
X191413Y113997D01*
X191290Y114038D01*
X191169Y114088D01*
X191087Y114105D01*
X191007Y114131D01*
X190879Y114148D01*
X190751Y114174D01*
X190667Y114175D01*
X190584Y114186D01*
X190454Y114179D01*
X190324Y114181D01*
X190241Y114167D01*
X190157Y114162D01*
X190031Y114131D01*
X189903Y114109D01*
X189825Y114079D01*
X189743Y114059D01*
X189625Y114005D01*
X189503Y113959D01*
X189431Y113915D01*
X189355Y113880D01*
X189249Y113805D01*
X189138Y113738D01*
X189061Y113671D01*
X189007Y113633D01*
X188961Y113585D01*
X188884Y113519D01*
X184994Y109629D01*
X180326Y107695D01*
X175274Y107695D01*
X170606Y109629D01*
X166716Y113519D01*
X166616Y113601D01*
X166522Y113691D01*
X166452Y113737D01*
X166387Y113791D01*
X166273Y113854D01*
X166164Y113925D01*
X166087Y113957D01*
X166013Y113997D01*
X165890Y114038D01*
X165769Y114088D01*
X165687Y114105D01*
X165607Y114131D01*
X165479Y114148D01*
X165351Y114174D01*
X165267Y114175D01*
X165184Y114186D01*
X165054Y114179D01*
X164924Y114181D01*
X164841Y114167D01*
X164757Y114162D01*
X164631Y114131D01*
X164503Y114109D01*
X164425Y114079D01*
X164343Y114059D01*
X164225Y114005D01*
X164103Y113959D01*
X164031Y113915D01*
X163955Y113880D01*
X163849Y113805D01*
X163738Y113738D01*
X163661Y113671D01*
X163607Y113633D01*
X163561Y113585D01*
X163484Y113519D01*
X159594Y109629D01*
X154926Y107695D01*
X149874Y107695D01*
X145206Y109629D01*
X141316Y113519D01*
X141216Y113601D01*
X141122Y113691D01*
X141052Y113737D01*
X140987Y113791D01*
X140873Y113854D01*
X140764Y113925D01*
X140687Y113957D01*
X140613Y113997D01*
X140490Y114038D01*
X140369Y114088D01*
X140287Y114105D01*
X140207Y114131D01*
X140079Y114148D01*
X139951Y114174D01*
X139867Y114175D01*
X139784Y114186D01*
X139654Y114179D01*
X139524Y114181D01*
X139441Y114167D01*
X139357Y114162D01*
X139231Y114131D01*
X139103Y114109D01*
X139025Y114079D01*
X138943Y114059D01*
X138825Y114005D01*
X138703Y113959D01*
X138631Y113915D01*
X138555Y113880D01*
X138449Y113805D01*
X138338Y113738D01*
X138261Y113671D01*
X138207Y113633D01*
X138161Y113585D01*
X138084Y113519D01*
X134194Y109629D01*
X129526Y107695D01*
X124474Y107695D01*
G37*
%LPD*%
%LPC*%
G36*
X225872Y202183D02*
X225872Y202183D01*
X220830Y204272D01*
X216972Y208130D01*
X216031Y210399D01*
X215993Y210472D01*
X215963Y210549D01*
X215893Y210661D01*
X215832Y210777D01*
X215780Y210842D01*
X215737Y210911D01*
X215648Y211008D01*
X215566Y211111D01*
X215503Y211165D01*
X215447Y211225D01*
X215341Y211304D01*
X215242Y211389D01*
X215170Y211431D01*
X215104Y211480D01*
X214986Y211537D01*
X214872Y211603D01*
X214794Y211630D01*
X214720Y211666D01*
X214593Y211700D01*
X214468Y211743D01*
X214387Y211756D01*
X214307Y211777D01*
X214176Y211787D01*
X214046Y211807D01*
X213964Y211804D01*
X213881Y211810D01*
X213751Y211795D01*
X213619Y211790D01*
X213539Y211772D01*
X213457Y211763D01*
X213331Y211724D01*
X213203Y211695D01*
X213127Y211662D01*
X213049Y211637D01*
X212932Y211576D01*
X212812Y211523D01*
X212744Y211477D01*
X212671Y211438D01*
X212568Y211356D01*
X212459Y211282D01*
X212401Y211224D01*
X212337Y211173D01*
X212251Y211073D01*
X212158Y210980D01*
X212111Y210911D01*
X212058Y210849D01*
X211963Y210693D01*
X211918Y210626D01*
X211905Y210598D01*
X211897Y210584D01*
X210950Y209281D01*
X209819Y208150D01*
X208526Y207210D01*
X207100Y206484D01*
X205739Y206041D01*
X205739Y215646D01*
X205727Y215775D01*
X205725Y215905D01*
X205722Y215918D01*
X205722Y215922D01*
X205733Y215987D01*
X205732Y216052D01*
X205739Y216154D01*
X205739Y225759D01*
X207100Y225316D01*
X208526Y224590D01*
X209819Y223650D01*
X210950Y222519D01*
X211902Y221209D01*
X211928Y221168D01*
X211964Y221094D01*
X212042Y220988D01*
X212112Y220877D01*
X212169Y220817D01*
X212218Y220751D01*
X212314Y220661D01*
X212404Y220565D01*
X212471Y220516D01*
X212531Y220460D01*
X212642Y220391D01*
X212749Y220313D01*
X212823Y220277D01*
X212893Y220234D01*
X213016Y220186D01*
X213134Y220129D01*
X213214Y220108D01*
X213291Y220078D01*
X213420Y220054D01*
X213548Y220020D01*
X213630Y220015D01*
X213711Y219999D01*
X213842Y220000D01*
X213974Y219990D01*
X214055Y220000D01*
X214138Y220000D01*
X214267Y220025D01*
X214398Y220040D01*
X214476Y220065D01*
X214557Y220080D01*
X214680Y220129D01*
X214805Y220168D01*
X214878Y220207D01*
X214955Y220237D01*
X215066Y220308D01*
X215182Y220370D01*
X215246Y220421D01*
X215316Y220465D01*
X215412Y220555D01*
X215514Y220638D01*
X215568Y220700D01*
X215628Y220757D01*
X215706Y220863D01*
X215791Y220963D01*
X215832Y221035D01*
X215881Y221101D01*
X215963Y221264D01*
X216003Y221334D01*
X216013Y221363D01*
X216031Y221401D01*
X216972Y223670D01*
X220830Y227528D01*
X225872Y229617D01*
X231328Y229617D01*
X236370Y227528D01*
X240228Y223670D01*
X242317Y218628D01*
X242317Y213172D01*
X240228Y208130D01*
X236370Y204272D01*
X231328Y202183D01*
X225872Y202183D01*
G37*
%LPD*%
%LPC*%
G36*
X230885Y129285D02*
X230885Y129285D01*
X230885Y142477D01*
X232110Y142079D01*
X233393Y141425D01*
X234557Y140579D01*
X235575Y139561D01*
X236421Y138397D01*
X237075Y137114D01*
X237520Y135745D01*
X237745Y134324D01*
X237745Y129285D01*
X230885Y129285D01*
G37*
%LPD*%
%LPC*%
G36*
X230885Y124715D02*
X230885Y124715D01*
X237745Y124715D01*
X237745Y119676D01*
X237520Y118255D01*
X237075Y116886D01*
X236421Y115603D01*
X235575Y114439D01*
X234557Y113421D01*
X233393Y112575D01*
X232110Y111921D01*
X230885Y111523D01*
X230885Y124715D01*
G37*
%LPD*%
D10*
X127000Y120396D02*
X127000Y133604D01*
X152400Y133604D02*
X152400Y120396D01*
X177800Y120396D02*
X177800Y133604D01*
X203200Y133604D02*
X203200Y120396D01*
X228600Y120396D02*
X228600Y133604D01*
D11*
X177800Y215900D03*
X152400Y215900D03*
X127000Y215900D03*
X203200Y215900D03*
X228600Y215900D03*
D12*
X127000Y215900D02*
X127000Y177800D01*
X152400Y152400D01*
D13*
X152400Y152400D03*
D12*
X152400Y177800D02*
X152400Y215900D01*
X152400Y177800D02*
X177800Y152400D01*
D13*
X177800Y152400D03*
M02*
