M48
;GenerationSoftware,Autodesk,EAGLE,9.2.0*%
;CreationDate,2019-02-05T19:33:53Z*%
FMAT,2
ICI,OFF
METRIC,TZ,000.000
T4C0.350
T3C0.813
T2C1.000
T1C1.016
%
G90
M71
T1
X47005Y14361
X59705Y14361
X69865Y14361
X67325Y14361
X64785Y14361
X62245Y14361
X57165Y14361
X54625Y14361
X52085Y14361
X41925Y62621
X44465Y14361
X41925Y14361
X39385Y14361
X36845Y14361
X34305Y14361
X34305Y62621
X36845Y62621
X39385Y62621
X79009Y62621
X44465Y62621
X47005Y62621
X49545Y62621
X52085Y62621
X56149Y62621
X58689Y62621
X61229Y62621
X63769Y62621
X66309Y62621
X68849Y62621
X71389Y62621
X73929Y62621
X76469Y62621
X51100Y2418
X48560Y2418
X46020Y2418
X53640Y2418
X56180Y2418
T2
X50815Y36586
X53355Y36586
X55895Y36586
X58435Y36586
X60975Y36586
X63515Y36586
X66055Y36586
X68595Y36586
X71135Y36586
X73675Y36586
X76215Y36586
X78755Y36586
X81295Y36586
X83835Y36586
X86375Y36586
X88915Y36586
X88915Y21346
X86375Y21346
X81295Y21346
X78755Y21346
X76215Y21346
X73675Y21346
X71135Y21346
X68595Y21346
X66055Y21346
X63515Y21346
X60975Y21346
X58435Y21346
X55895Y21346
X53355Y21346
X50815Y21346
X48275Y21346
X45735Y21346
X43195Y21346
X40655Y21346
X83835Y21346
X40655Y36586
X43195Y36586
X45735Y36586
X48275Y36586
T3
X24282Y49530
X19456Y49530
T4
X62509Y19050
X7899Y19050
X59969Y19050
X36830Y45720
X41275Y45085
X36195Y17145
X78740Y17780
X39649Y48260
X48539Y48260
X87630Y43180
X30759Y59690
X62509Y60960
X66319Y57150
X78740Y57150
X18059Y38100
X66954Y41275
X47168Y3810
X39649Y3810
X25679Y13335
X37109Y59690
X16789Y39370
X68859Y41910
X39649Y2540
X25679Y12065
X15519Y12700
X15240Y60960
X26670Y62230
X8424Y64770
X17780Y64770
X15240Y59055
X3810Y60325
X15240Y55880
X19710Y55880
X12700Y45720
X22860Y45720
X7760Y49390
X12700Y49530
X4089Y54610
X8385Y55880
X52070Y39370
X26670Y39370
X22860Y21590
X26670Y21590
X16789Y13970
X29845Y19685
X52070Y20320
X53340Y39370
X25400Y34290
X39370Y7620
X48260Y7620
X53340Y46990
X26670Y45720
X24130Y22860
X29210Y22860
X57150Y18415
X33655Y18415
X64770Y38100
X25400Y33020
X39370Y8890
X48260Y8890
X30759Y58420
X68859Y60960
X83820Y59690
X70129Y59690
X66319Y60960
X30480Y60960
X33299Y60960
X69850Y58420
X82550Y58420
X58420Y50800
X39649Y45720
X94259Y20320
X61239Y16510
X44729Y45720
X29489Y16510
X25679Y20320
X21869Y20320
X23139Y36830
X32029Y36830
X35560Y49530
X25400Y50800
X10160Y60960
X5080Y60960
X12029Y62230
X25400Y63500
X12979Y43180
X58699Y43180
X11709Y44450
X61874Y43815
X14249Y41910
X52984Y42545
X18059Y9525
X12979Y10160
X82829Y49530
X15519Y40640
X25679Y10795
X14249Y11430
X46634Y42545
X98069Y20320
X76215Y15916
X19329Y36830
X75209Y40640
X48438Y5080
X39649Y5080
X25679Y14605
X18059Y15240
X20599Y35560
X77749Y39370
X52248Y6350
X39649Y6350
X25679Y15875
X19329Y16510
X90170Y10160
X72390Y15240
X87630Y44450
X90170Y19050
X66040Y19050
X5359Y17780
M30