G04 EAGLE Gerber RS-274X export*
G75*
%MOMM*%
%FSLAX34Y34*%
%LPD*%
%INSolder stop mask SOL*%
%IPPOS*%
%AMOC8*
5,1,8,0,0,1.08239X$1,22.5*%
G01*
%ADD10C,2.133600*%
%ADD11C,1.727200*%
%ADD12C,1.524000*%
%ADD13C,0.959600*%


D10*
X698652Y143612D03*
X673252Y143612D03*
X647852Y143612D03*
X622452Y143612D03*
X597052Y143612D03*
X571652Y143612D03*
X546252Y143612D03*
X520852Y143612D03*
X470052Y143612D03*
X444652Y143612D03*
X419252Y143612D03*
X393852Y143612D03*
X368452Y143612D03*
X343052Y143612D03*
X343052Y626212D03*
X368452Y626212D03*
X393852Y626212D03*
X419252Y626212D03*
X444652Y626212D03*
X470052Y626212D03*
X495452Y626212D03*
X520852Y626212D03*
X561492Y626212D03*
X586892Y626212D03*
X612292Y626212D03*
X637692Y626212D03*
X663092Y626212D03*
X688492Y626212D03*
X713892Y626212D03*
X739292Y626212D03*
X764692Y626212D03*
X790092Y626212D03*
X406552Y365862D03*
X431952Y365862D03*
X457352Y365862D03*
X482752Y365862D03*
X508152Y365862D03*
X533552Y365862D03*
X558952Y365862D03*
X584352Y365862D03*
X609752Y365862D03*
X635152Y365862D03*
X660552Y365862D03*
X685952Y365862D03*
X711352Y365862D03*
X736752Y365862D03*
X762152Y365862D03*
X787552Y365862D03*
X812952Y365862D03*
X838352Y365862D03*
X863752Y365862D03*
X889152Y365862D03*
X889152Y213462D03*
X863752Y213462D03*
X838352Y213462D03*
X812952Y213462D03*
X787552Y213462D03*
X762152Y213462D03*
X736752Y213462D03*
X711352Y213462D03*
X685952Y213462D03*
X660552Y213462D03*
X635152Y213462D03*
X609752Y213462D03*
X584352Y213462D03*
X558952Y213462D03*
X533552Y213462D03*
X508152Y213462D03*
X482752Y213462D03*
X457352Y213462D03*
X431952Y213462D03*
X406552Y213462D03*
D11*
X510997Y24181D03*
X485597Y24181D03*
X460197Y24181D03*
X536397Y24181D03*
X561797Y24181D03*
D12*
X242824Y495300D03*
X194564Y495300D03*
D13*
X520700Y393700D03*
X266700Y393700D03*
X228600Y215900D03*
X266700Y215900D03*
X298450Y196850D03*
X520700Y203200D03*
X533400Y393700D03*
X254000Y342900D03*
X393700Y76200D03*
X482600Y76200D03*
X533400Y469900D03*
X266700Y457200D03*
X241300Y228600D03*
X292100Y228600D03*
X571500Y184150D03*
X336550Y184150D03*
X647700Y381000D03*
X254000Y330200D03*
X393700Y88900D03*
X482600Y88900D03*
X307594Y584200D03*
X688594Y609600D03*
X838200Y596900D03*
X701294Y596900D03*
X371094Y596900D03*
X663194Y609600D03*
X304800Y609600D03*
X332994Y609600D03*
X698500Y584200D03*
X825500Y584200D03*
X584200Y508000D03*
X396494Y457200D03*
X942594Y203200D03*
X612394Y165100D03*
X447294Y457200D03*
X294894Y165100D03*
X256794Y203200D03*
X218694Y203200D03*
X231394Y368300D03*
X320294Y368300D03*
X355600Y495300D03*
X254000Y508000D03*
X101600Y609600D03*
X50800Y609600D03*
X120294Y622300D03*
X254000Y635000D03*
X129794Y431800D03*
X586994Y431800D03*
X117094Y444500D03*
X618744Y438150D03*
X142494Y419100D03*
X529844Y425450D03*
X180594Y95250D03*
X129794Y101600D03*
X155194Y406400D03*
X256794Y107950D03*
X142494Y114300D03*
X466344Y425450D03*
X980694Y203200D03*
X762152Y159159D03*
X193294Y368300D03*
X752094Y406400D03*
X484378Y50800D03*
X396494Y50800D03*
X256794Y146050D03*
X180594Y152400D03*
X205994Y355600D03*
X777494Y393700D03*
X522478Y63500D03*
X396494Y63500D03*
X256794Y158750D03*
X193294Y165100D03*
X901700Y101600D03*
X723900Y152400D03*
X828294Y495300D03*
X876300Y444500D03*
X901700Y190500D03*
X660400Y190500D03*
X53594Y177800D03*
X625094Y190500D03*
X78994Y190500D03*
X599694Y190500D03*
X368300Y457200D03*
X412750Y450850D03*
X361950Y171450D03*
X787400Y177800D03*
X396494Y482600D03*
X485394Y482600D03*
X876300Y431800D03*
X307594Y596900D03*
X625094Y609600D03*
X663194Y571500D03*
X787400Y571500D03*
X180594Y381000D03*
X669544Y412750D03*
X471678Y38100D03*
X396494Y38100D03*
X256794Y133350D03*
X167894Y139700D03*
X167894Y393700D03*
X688594Y419100D03*
X396494Y25400D03*
X256794Y120650D03*
X155194Y127000D03*
X152400Y609600D03*
X266700Y622300D03*
X84244Y647700D03*
X177800Y647700D03*
X152400Y590550D03*
X38100Y603250D03*
X152400Y558800D03*
X197104Y558800D03*
X127000Y457200D03*
X228600Y457200D03*
X77597Y493903D03*
X127000Y495300D03*
X40894Y546100D03*
X83852Y558800D03*
M02*
