G75*
%MOIN*%
%OFA0B0*%
%FSLAX25Y25*%
%IPPOS*%
%LPD*%
%AMOC8*
5,1,8,0,0,1.08239X$1,22.5*
%
%ADD10R,0.10000X0.20000*%
%ADD11R,0.20000X0.10000*%
%ADD12C,0.07600*%
%ADD13R,0.01181X0.03150*%
%ADD14R,0.09449X0.08661*%
%ADD15R,0.05118X0.03346*%
%ADD16C,0.00600*%
%ADD17C,0.02978*%
D10*
X0077201Y0021000D03*
X0107201Y0021000D03*
X0137201Y0021000D03*
X0167201Y0021000D03*
X0197201Y0021000D03*
X0227201Y0021000D03*
X0217201Y0051000D03*
X0247201Y0051000D03*
X0177201Y0201000D03*
X0147201Y0201000D03*
X0117201Y0201000D03*
X0227201Y0246000D03*
X0247201Y0246000D03*
X0267201Y0246000D03*
D11*
X0262201Y0156000D03*
X0262201Y0136000D03*
X0262201Y0116000D03*
X0052201Y0186000D03*
X0052201Y0206000D03*
X0052201Y0226000D03*
X0017201Y0226000D03*
X0017201Y0206000D03*
X0017201Y0186000D03*
X0017201Y0156000D03*
X0017201Y0136000D03*
X0017201Y0116000D03*
D12*
X0047201Y0110500D03*
X0057201Y0110500D03*
X0067201Y0110500D03*
X0077201Y0110500D03*
X0087201Y0110500D03*
X0097201Y0110500D03*
X0107201Y0110500D03*
X0117201Y0110500D03*
X0127201Y0110500D03*
X0137201Y0110500D03*
X0147201Y0110500D03*
X0157201Y0110500D03*
X0167201Y0110500D03*
X0177201Y0110500D03*
X0187201Y0110500D03*
X0197201Y0110500D03*
X0207201Y0110500D03*
X0217201Y0110500D03*
X0227201Y0110500D03*
X0237201Y0110500D03*
X0237201Y0170500D03*
X0227201Y0170500D03*
X0217201Y0170500D03*
X0207201Y0170500D03*
X0197201Y0170500D03*
X0187201Y0170500D03*
X0177201Y0170500D03*
X0167201Y0170500D03*
X0157201Y0170500D03*
X0147201Y0170500D03*
X0137201Y0170500D03*
X0127201Y0170500D03*
X0117201Y0170500D03*
X0107201Y0170500D03*
X0097201Y0170500D03*
X0087201Y0170500D03*
X0077201Y0170500D03*
X0067201Y0170500D03*
X0057201Y0170500D03*
X0047201Y0170500D03*
X0052201Y0248000D03*
X0042201Y0248000D03*
X0032201Y0248000D03*
X0022201Y0248000D03*
X0062201Y0248000D03*
X0072201Y0248000D03*
X0082201Y0248000D03*
X0092201Y0248000D03*
X0108201Y0248000D03*
X0118201Y0248000D03*
X0128201Y0248000D03*
X0138201Y0248000D03*
X0148201Y0248000D03*
X0158201Y0248000D03*
X0168201Y0248000D03*
X0178201Y0248000D03*
X0188201Y0248000D03*
X0198201Y0248000D03*
X0162201Y0058000D03*
X0152201Y0058000D03*
X0142201Y0058000D03*
X0132201Y0058000D03*
X0122201Y0058000D03*
X0112201Y0058000D03*
X0102201Y0058000D03*
X0092201Y0058000D03*
X0072201Y0058000D03*
X0062201Y0058000D03*
X0052201Y0058000D03*
X0042201Y0058000D03*
X0032201Y0058000D03*
X0022201Y0058000D03*
D13*
X0034079Y0039243D03*
X0036048Y0039243D03*
X0038016Y0039243D03*
X0039985Y0039243D03*
X0041953Y0039243D03*
X0043922Y0039243D03*
D14*
X0053568Y0032943D03*
X0024434Y0032943D03*
D15*
X0026599Y0026939D03*
X0051402Y0026939D03*
D16*
X0077201Y0021000D02*
X0019701Y0021000D01*
X0014701Y0026000D01*
X0031147Y0026954D02*
X0031301Y0026800D01*
X0031147Y0026954D02*
X0031147Y0036310D01*
X0034079Y0039243D01*
X0036048Y0039243D02*
X0036048Y0030647D01*
X0036001Y0030600D01*
X0039601Y0027500D02*
X0042001Y0029900D01*
X0042001Y0039195D01*
X0041953Y0039243D01*
X0043901Y0039221D02*
X0043922Y0039243D01*
X0043901Y0039221D02*
X0043901Y0023800D01*
X0039601Y0023800D02*
X0039601Y0027500D01*
X0038016Y0039243D02*
X0038016Y0046184D01*
X0034301Y0049900D01*
X0018801Y0049900D01*
X0015001Y0053700D01*
X0015001Y0082500D01*
X0029001Y0093711D02*
X0029001Y0142800D01*
X0029801Y0147900D02*
X0012701Y0147900D01*
X0010501Y0145700D01*
X0010501Y0144200D01*
X0017201Y0136000D02*
X0017201Y0127389D01*
X0017290Y0127300D01*
X0017201Y0133500D02*
X0017201Y0136000D01*
X0029801Y0147900D02*
X0031501Y0149600D01*
X0017201Y0156000D02*
X0017201Y0158500D01*
X0022201Y0163500D01*
X0024974Y0168500D02*
X0008890Y0168500D01*
X0006490Y0166100D01*
X0010501Y0172100D02*
X0010501Y0179300D01*
X0017201Y0186000D01*
X0017201Y0183500D01*
X0017201Y0196000D02*
X0017201Y0206000D01*
X0021801Y0218300D02*
X0017201Y0222900D01*
X0017201Y0226000D01*
X0028701Y0233400D02*
X0028701Y0164300D01*
X0034301Y0178500D02*
X0034301Y0101000D01*
X0034301Y0098500D01*
X0039301Y0093500D01*
X0042301Y0093500D01*
X0042401Y0093400D01*
X0034301Y0100600D02*
X0034301Y0101000D01*
X0038501Y0107900D02*
X0038501Y0197500D01*
X0038601Y0197600D01*
X0038601Y0230100D01*
X0044101Y0235600D01*
X0119101Y0235600D01*
X0128201Y0244700D01*
X0128201Y0248000D01*
X0137201Y0238500D02*
X0146701Y0248000D01*
X0148201Y0248000D01*
X0138201Y0248000D02*
X0118701Y0228500D01*
X0067201Y0228500D01*
X0064701Y0226000D01*
X0052201Y0226000D01*
X0041701Y0239300D02*
X0032701Y0230300D01*
X0032701Y0180100D01*
X0034301Y0178500D01*
X0052201Y0186000D02*
X0074701Y0186000D01*
X0067201Y0178500D01*
X0067201Y0170500D01*
X0082201Y0183500D02*
X0076927Y0188773D01*
X0064701Y0188773D01*
X0069701Y0196000D02*
X0104701Y0196000D01*
X0114701Y0186000D01*
X0132201Y0186000D01*
X0136101Y0183400D02*
X0118501Y0183400D01*
X0107201Y0172100D01*
X0107201Y0170500D01*
X0087201Y0170500D02*
X0087201Y0181000D01*
X0094701Y0188500D01*
X0084701Y0201000D02*
X0117201Y0201000D01*
X0149701Y0233500D01*
X0159701Y0233500D01*
X0168201Y0242000D01*
X0168201Y0248000D01*
X0181201Y0261000D01*
X0239701Y0261000D01*
X0247201Y0253500D01*
X0247201Y0246000D01*
X0247201Y0171000D01*
X0262201Y0156000D01*
X0234701Y0156000D01*
X0229701Y0151000D01*
X0229701Y0126000D01*
X0237201Y0118500D01*
X0237201Y0110500D01*
X0227201Y0110500D01*
X0227201Y0061000D01*
X0217201Y0051000D01*
X0227201Y0041000D01*
X0227201Y0021000D01*
X0244101Y0008800D02*
X0039601Y0008800D01*
X0034101Y0014300D01*
X0080201Y0048000D02*
X0080201Y0074689D01*
X0076601Y0078289D01*
X0080101Y0103400D02*
X0087201Y0110500D01*
X0080101Y0103400D02*
X0043001Y0103400D01*
X0038501Y0107900D01*
X0017290Y0106700D02*
X0017201Y0106789D01*
X0017201Y0116000D01*
X0017201Y0113500D01*
X0080201Y0048000D02*
X0107201Y0021000D01*
X0129201Y0041000D02*
X0172201Y0041000D01*
X0182201Y0051000D01*
X0217201Y0051000D01*
X0232201Y0051000D02*
X0247201Y0051000D01*
X0267001Y0035700D02*
X0267001Y0103800D01*
X0269901Y0101200D02*
X0269901Y0034600D01*
X0244101Y0008800D01*
X0252501Y0021200D02*
X0267001Y0035700D01*
X0256901Y0073600D02*
X0231501Y0073600D01*
X0242201Y0096000D02*
X0242201Y0111000D01*
X0244701Y0113500D01*
X0259701Y0113500D01*
X0262201Y0116000D01*
X0247001Y0120800D02*
X0262201Y0136000D01*
X0274901Y0106200D02*
X0274901Y0167700D01*
X0270501Y0172100D01*
X0258601Y0172100D01*
X0254701Y0176000D01*
X0256101Y0182700D02*
X0256101Y0219900D01*
X0267301Y0231100D01*
X0267301Y0245900D01*
X0267201Y0246000D01*
X0241501Y0230100D02*
X0179601Y0230100D01*
X0157201Y0207700D01*
X0157201Y0170500D01*
X0167201Y0170500D02*
X0167201Y0210100D01*
X0183401Y0226300D01*
X0243101Y0226300D01*
X0227201Y0246000D02*
X0215401Y0234200D01*
X0176401Y0234200D01*
X0161701Y0219500D01*
X0164801Y0231200D02*
X0155401Y0231200D01*
X0138701Y0214500D01*
X0138701Y0186000D01*
X0136101Y0183400D01*
X0147201Y0170500D02*
X0147201Y0201000D01*
X0124701Y0221000D02*
X0137201Y0233500D01*
X0143701Y0233500D01*
X0158201Y0248000D01*
X0173001Y0239400D02*
X0213501Y0239400D01*
X0214101Y0238800D01*
X0177201Y0201000D02*
X0177201Y0170500D01*
X0189701Y0186000D02*
X0229701Y0186000D01*
X0237201Y0178500D01*
X0237201Y0170500D01*
X0232201Y0178500D02*
X0205201Y0178500D01*
X0197201Y0170500D01*
X0187201Y0191000D02*
X0189701Y0193500D01*
X0217201Y0193500D01*
X0173001Y0239400D02*
X0164801Y0231200D01*
X0124701Y0221000D02*
X0082201Y0221000D01*
X0067201Y0206000D02*
X0052201Y0206000D01*
X0028701Y0233400D02*
X0037301Y0242000D01*
X0056401Y0242000D01*
X0062201Y0247800D01*
X0062201Y0248000D01*
X0041701Y0239300D02*
X0099501Y0239300D01*
X0108201Y0248000D01*
X0168901Y0115100D02*
X0202601Y0115100D01*
X0207201Y0110500D01*
X0197201Y0110500D02*
X0197201Y0088500D01*
X0190801Y0091900D02*
X0187201Y0095500D01*
X0187201Y0110500D01*
X0177201Y0110500D02*
X0177201Y0056000D01*
X0164701Y0073700D02*
X0159701Y0078700D01*
X0127501Y0078700D01*
X0107201Y0099000D01*
X0107201Y0110500D01*
X0117201Y0110500D02*
X0117201Y0093700D01*
X0120701Y0080700D02*
X0122201Y0079200D01*
X0122201Y0058000D01*
X0112201Y0058000D02*
X0129201Y0041000D01*
X0112201Y0058000D02*
X0102201Y0058000D01*
X0102201Y0051700D01*
X0100001Y0049500D01*
X0137201Y0021000D02*
X0145501Y0021000D01*
X0148901Y0024400D01*
X0167201Y0021000D02*
X0173701Y0021000D01*
X0197201Y0021000D02*
X0197201Y0031000D01*
X0202101Y0035900D01*
X0269901Y0101200D02*
X0274901Y0106200D01*
X0168901Y0115100D02*
X0167201Y0113400D01*
X0167201Y0110500D01*
D17*
X0190801Y0091900D03*
X0197201Y0088500D03*
X0164701Y0073700D03*
X0177201Y0056000D03*
X0202101Y0035900D03*
X0232201Y0051000D03*
X0231501Y0073600D03*
X0242201Y0096000D03*
X0256901Y0073600D03*
X0267001Y0103800D03*
X0247001Y0120800D03*
X0254701Y0176000D03*
X0256101Y0182700D03*
X0232201Y0178500D03*
X0217201Y0193500D03*
X0189701Y0186000D03*
X0187201Y0191000D03*
X0161701Y0219500D03*
X0137201Y0238500D03*
X0084701Y0201000D03*
X0094701Y0188500D03*
X0082201Y0183500D03*
X0074701Y0186000D03*
X0064701Y0188773D03*
X0069701Y0196000D03*
X0067201Y0206000D03*
X0082201Y0221000D03*
X0132201Y0186000D03*
X0214101Y0238800D03*
X0241501Y0230100D03*
X0243101Y0226300D03*
X0117201Y0093700D03*
X0120701Y0080700D03*
X0100001Y0049500D03*
X0076601Y0078289D03*
X0042401Y0093400D03*
X0029001Y0093711D03*
X0017290Y0106700D03*
X0017290Y0127300D03*
X0010501Y0144200D03*
X0029001Y0142800D03*
X0031501Y0149600D03*
X0028701Y0164300D03*
X0024974Y0168500D03*
X0022201Y0163500D03*
X0010501Y0172100D03*
X0006490Y0166100D03*
X0017201Y0196000D03*
X0021801Y0218300D03*
X0015001Y0082500D03*
X0036001Y0030600D03*
X0031301Y0026800D03*
X0039601Y0023800D03*
X0043901Y0023800D03*
X0034101Y0014300D03*
X0014701Y0026000D03*
X0148901Y0024400D03*
X0173701Y0021000D03*
X0252501Y0021200D03*
M02*
