%
M48
M72
T01C0.01378
T02C0.03937
T03C0.04000
%
T01
X14701Y26000
X31301Y26800
X36001Y30600
X39601Y23800
X43901Y23800
X34101Y14300
X100001Y49500
X76601Y78289
X42401Y93400
X29001Y93711
X17290Y106700
X17290Y127300
X10501Y144200
X29001Y142800
X31501Y149600
X28701Y164300
X24974Y168500
X22201Y163500
X10501Y172100
X6490Y166100
X17201Y196000
X21801Y218300
X67201Y206000
X69701Y196000
X64701Y188773
X74701Y186000
X82201Y183500
X94701Y188500
X84701Y201000
X82201Y221000
X132201Y186000
X161701Y219500
X137201Y238500
X187201Y191000
X189701Y186000
X217201Y193500
X232201Y178500
X254701Y176000
X256101Y182700
X243101Y226300
X241501Y230100
X214101Y238800
X247001Y120800
X267001Y103800
X242201Y96000
X231501Y73600
X232201Y51000
X256901Y73600
X202101Y35900
X177201Y56000
X164701Y73700
X190801Y91900
X197201Y88500
X148901Y24400
X173701Y21000
X120701Y80700
X117201Y93700
X15001Y82500
X252501Y21200
T02
X237201Y110500
X227201Y110500
X217201Y110500
X207201Y110500
X197201Y110500
X187201Y110500
X177201Y110500
X167201Y110500
X157201Y110500
X147201Y110500
X137201Y110500
X127201Y110500
X117201Y110500
X107201Y110500
X97201Y110500
X87201Y110500
X77201Y110500
X67201Y110500
X57201Y110500
X47201Y110500
X47201Y170500
X57201Y170500
X67201Y170500
X77201Y170500
X87201Y170500
X97201Y170500
X107201Y170500
X117201Y170500
X127201Y170500
X137201Y170500
X147201Y170500
X157201Y170500
X167201Y170500
X177201Y170500
X187201Y170500
X197201Y170500
X207201Y170500
X217201Y170500
X227201Y170500
X237201Y170500
T03
X198201Y248000
X188201Y248000
X178201Y248000
X168201Y248000
X158201Y248000
X148201Y248000
X138201Y248000
X128201Y248000
X118201Y248000
X108201Y248000
X92201Y248000
X82201Y248000
X72201Y248000
X62201Y248000
X52201Y248000
X42201Y248000
X32201Y248000
X22201Y248000
X22201Y58000
X32201Y58000
X42201Y58000
X52201Y58000
X62201Y58000
X72201Y58000
X92201Y58000
X102201Y58000
X112201Y58000
X122201Y58000
X132201Y58000
X142201Y58000
X152201Y58000
X162201Y58000
M30
