G75*
%MOIN*%
%OFA0B0*%
%FSLAX25Y25*%
%IPPOS*%
%LPD*%
%AMOC8*
5,1,8,0,0,1.08239X$1,22.5*
%
%ADD10C,0.08400*%
%ADD11C,0.03778*%
D10*
X0022201Y0058000D03*
X0032201Y0058000D03*
X0042201Y0058000D03*
X0052201Y0058000D03*
X0062201Y0058000D03*
X0072201Y0058000D03*
X0092201Y0058000D03*
X0102201Y0058000D03*
X0112201Y0058000D03*
X0122201Y0058000D03*
X0132201Y0058000D03*
X0142201Y0058000D03*
X0152201Y0058000D03*
X0162201Y0058000D03*
X0167201Y0110500D03*
X0157201Y0110500D03*
X0147201Y0110500D03*
X0137201Y0110500D03*
X0127201Y0110500D03*
X0117201Y0110500D03*
X0107201Y0110500D03*
X0097201Y0110500D03*
X0087201Y0110500D03*
X0077201Y0110500D03*
X0067201Y0110500D03*
X0057201Y0110500D03*
X0047201Y0110500D03*
X0047201Y0170500D03*
X0057201Y0170500D03*
X0067201Y0170500D03*
X0077201Y0170500D03*
X0087201Y0170500D03*
X0097201Y0170500D03*
X0107201Y0170500D03*
X0117201Y0170500D03*
X0127201Y0170500D03*
X0137201Y0170500D03*
X0147201Y0170500D03*
X0157201Y0170500D03*
X0167201Y0170500D03*
X0177201Y0170500D03*
X0187201Y0170500D03*
X0197201Y0170500D03*
X0207201Y0170500D03*
X0217201Y0170500D03*
X0227201Y0170500D03*
X0237201Y0170500D03*
X0237201Y0110500D03*
X0227201Y0110500D03*
X0217201Y0110500D03*
X0207201Y0110500D03*
X0197201Y0110500D03*
X0187201Y0110500D03*
X0177201Y0110500D03*
X0178201Y0248000D03*
X0188201Y0248000D03*
X0198201Y0248000D03*
X0168201Y0248000D03*
X0158201Y0248000D03*
X0148201Y0248000D03*
X0138201Y0248000D03*
X0128201Y0248000D03*
X0118201Y0248000D03*
X0108201Y0248000D03*
X0092201Y0248000D03*
X0082201Y0248000D03*
X0072201Y0248000D03*
X0062201Y0248000D03*
X0052201Y0248000D03*
X0042201Y0248000D03*
X0032201Y0248000D03*
X0022201Y0248000D03*
D11*
X0014701Y0026000D03*
X0031301Y0026800D03*
X0036001Y0030600D03*
X0039601Y0023800D03*
X0043901Y0023800D03*
X0034101Y0014300D03*
X0100001Y0049500D03*
X0076601Y0078289D03*
X0042401Y0093400D03*
X0029001Y0093711D03*
X0017290Y0106700D03*
X0017290Y0127300D03*
X0010501Y0144200D03*
X0029001Y0142800D03*
X0031501Y0149600D03*
X0028701Y0164300D03*
X0024974Y0168500D03*
X0022201Y0163500D03*
X0010501Y0172100D03*
X0006490Y0166100D03*
X0017201Y0196000D03*
X0021801Y0218300D03*
X0067201Y0206000D03*
X0069701Y0196000D03*
X0064701Y0188773D03*
X0074701Y0186000D03*
X0082201Y0183500D03*
X0094701Y0188500D03*
X0084701Y0201000D03*
X0082201Y0221000D03*
X0132201Y0186000D03*
X0161701Y0219500D03*
X0137201Y0238500D03*
X0187201Y0191000D03*
X0189701Y0186000D03*
X0217201Y0193500D03*
X0232201Y0178500D03*
X0254701Y0176000D03*
X0256101Y0182700D03*
X0243101Y0226300D03*
X0241501Y0230100D03*
X0214101Y0238800D03*
X0247001Y0120800D03*
X0267001Y0103800D03*
X0242201Y0096000D03*
X0231501Y0073600D03*
X0232201Y0051000D03*
X0256901Y0073600D03*
X0202101Y0035900D03*
X0177201Y0056000D03*
X0164701Y0073700D03*
X0190801Y0091900D03*
X0197201Y0088500D03*
X0148901Y0024400D03*
X0173701Y0021000D03*
X0120701Y0080700D03*
X0117201Y0093700D03*
X0015001Y0082500D03*
X0252501Y0021200D03*
M02*
