G75*
%MOIN*%
%OFA0B0*%
%FSLAX25Y25*%
%IPPOS*%
%LPD*%
%AMOC8*
5,1,8,0,0,1.08239X$1,22.5*
%
%ADD10C,0.07600*%
%ADD11C,0.00600*%
%ADD12C,0.02978*%
D10*
X0022201Y0058000D03*
X0032201Y0058000D03*
X0042201Y0058000D03*
X0052201Y0058000D03*
X0062201Y0058000D03*
X0072201Y0058000D03*
X0092201Y0058000D03*
X0102201Y0058000D03*
X0112201Y0058000D03*
X0122201Y0058000D03*
X0132201Y0058000D03*
X0142201Y0058000D03*
X0152201Y0058000D03*
X0162201Y0058000D03*
X0167201Y0110500D03*
X0157201Y0110500D03*
X0147201Y0110500D03*
X0137201Y0110500D03*
X0127201Y0110500D03*
X0117201Y0110500D03*
X0107201Y0110500D03*
X0097201Y0110500D03*
X0087201Y0110500D03*
X0077201Y0110500D03*
X0067201Y0110500D03*
X0057201Y0110500D03*
X0047201Y0110500D03*
X0047201Y0170500D03*
X0057201Y0170500D03*
X0067201Y0170500D03*
X0077201Y0170500D03*
X0087201Y0170500D03*
X0097201Y0170500D03*
X0107201Y0170500D03*
X0117201Y0170500D03*
X0127201Y0170500D03*
X0137201Y0170500D03*
X0147201Y0170500D03*
X0157201Y0170500D03*
X0167201Y0170500D03*
X0177201Y0170500D03*
X0187201Y0170500D03*
X0197201Y0170500D03*
X0207201Y0170500D03*
X0217201Y0170500D03*
X0227201Y0170500D03*
X0237201Y0170500D03*
X0237201Y0110500D03*
X0227201Y0110500D03*
X0217201Y0110500D03*
X0207201Y0110500D03*
X0197201Y0110500D03*
X0187201Y0110500D03*
X0177201Y0110500D03*
X0178201Y0248000D03*
X0188201Y0248000D03*
X0198201Y0248000D03*
X0168201Y0248000D03*
X0158201Y0248000D03*
X0148201Y0248000D03*
X0138201Y0248000D03*
X0128201Y0248000D03*
X0118201Y0248000D03*
X0108201Y0248000D03*
X0092201Y0248000D03*
X0082201Y0248000D03*
X0072201Y0248000D03*
X0062201Y0248000D03*
X0052201Y0248000D03*
X0042201Y0248000D03*
X0032201Y0248000D03*
X0022201Y0248000D03*
D11*
X0021801Y0218300D02*
X0021901Y0218200D01*
X0079401Y0218200D01*
X0082201Y0221000D01*
X0072201Y0211000D02*
X0067201Y0206000D01*
X0062901Y0202800D02*
X0036701Y0202800D01*
X0029901Y0196000D01*
X0017201Y0196000D01*
X0024974Y0188773D02*
X0015001Y0178800D01*
X0015001Y0082500D01*
X0013401Y0078500D02*
X0076390Y0078500D01*
X0076601Y0078289D01*
X0089901Y0100800D02*
X0097201Y0108100D01*
X0097201Y0110500D01*
X0089901Y0100800D02*
X0027001Y0100800D01*
X0023601Y0104200D01*
X0023601Y0120100D01*
X0019901Y0123800D01*
X0019901Y0155600D01*
X0028601Y0164300D01*
X0028701Y0164300D01*
X0024974Y0168500D02*
X0024901Y0168573D01*
X0024901Y0179500D01*
X0028901Y0183500D01*
X0063601Y0183500D01*
X0066101Y0181000D01*
X0130901Y0181000D01*
X0137201Y0174700D01*
X0137201Y0170500D01*
X0127201Y0170500D02*
X0127201Y0175900D01*
X0124201Y0178900D01*
X0036501Y0178900D01*
X0031601Y0174000D01*
X0031601Y0149700D01*
X0031501Y0149600D01*
X0035101Y0148700D02*
X0029201Y0142800D01*
X0029001Y0142800D01*
X0035101Y0148700D02*
X0035101Y0173000D01*
X0038501Y0176400D01*
X0061301Y0176400D01*
X0067201Y0170500D01*
X0067201Y0186000D02*
X0026601Y0186000D01*
X0022201Y0181600D01*
X0022201Y0163500D01*
X0010501Y0165000D02*
X0007101Y0161600D01*
X0007101Y0079000D01*
X0010101Y0076000D01*
X0184701Y0076000D01*
X0197201Y0088500D01*
X0190801Y0091900D02*
X0248301Y0091900D01*
X0258801Y0102400D01*
X0258801Y0180000D01*
X0256101Y0182700D01*
X0252201Y0178500D02*
X0232201Y0178500D01*
X0227201Y0179000D02*
X0227201Y0170500D01*
X0227201Y0179000D02*
X0158201Y0248000D01*
X0148201Y0248000D02*
X0217201Y0179000D01*
X0217201Y0170500D01*
X0207201Y0170500D02*
X0207201Y0179000D01*
X0138201Y0248000D01*
X0137201Y0238500D02*
X0134701Y0238500D01*
X0107201Y0211000D01*
X0072201Y0211000D01*
X0062901Y0202800D02*
X0069701Y0196000D01*
X0064701Y0188773D02*
X0024974Y0188773D01*
X0010501Y0172100D02*
X0010501Y0165000D01*
X0006490Y0166100D02*
X0005301Y0164911D01*
X0005301Y0035400D01*
X0014701Y0026000D01*
X0031301Y0026800D02*
X0031301Y0017100D01*
X0034101Y0014300D01*
X0039601Y0019500D02*
X0039601Y0023800D01*
X0043901Y0023800D02*
X0043901Y0020300D01*
X0047901Y0016300D01*
X0145901Y0016300D01*
X0158801Y0029200D01*
X0202101Y0029200D01*
X0205801Y0032900D01*
X0256401Y0032900D01*
X0263801Y0040300D01*
X0263801Y0062500D01*
X0273151Y0071850D01*
X0273151Y0220150D01*
X0267001Y0226300D01*
X0243101Y0226300D01*
X0241501Y0230100D02*
X0268901Y0230100D01*
X0276301Y0222700D01*
X0276301Y0048200D01*
X0254601Y0026500D01*
X0221501Y0026500D01*
X0217201Y0022200D01*
X0185801Y0022200D01*
X0182601Y0025400D01*
X0163601Y0025400D01*
X0151801Y0013600D01*
X0045501Y0013600D01*
X0039601Y0019500D01*
X0039501Y0027100D02*
X0036001Y0030600D01*
X0039501Y0027100D02*
X0086701Y0027100D01*
X0100001Y0040400D01*
X0100001Y0049500D01*
X0122201Y0058000D02*
X0135201Y0071000D01*
X0202201Y0071000D01*
X0222201Y0051000D01*
X0232201Y0051000D01*
X0244101Y0047900D02*
X0244101Y0066500D01*
X0262201Y0084600D01*
X0262201Y0186000D01*
X0254701Y0193500D01*
X0217201Y0193500D01*
X0189701Y0186000D02*
X0132201Y0186000D01*
X0133201Y0190900D02*
X0082501Y0190900D01*
X0077601Y0186000D01*
X0074701Y0186000D01*
X0067201Y0186000D02*
X0082201Y0201000D01*
X0084701Y0201000D01*
X0094701Y0188500D02*
X0184701Y0188500D01*
X0187201Y0191000D01*
X0177801Y0182900D02*
X0082801Y0182900D01*
X0082201Y0183500D01*
X0133201Y0190900D02*
X0152751Y0210450D01*
X0161701Y0219400D01*
X0161701Y0219500D01*
X0155901Y0213600D02*
X0152751Y0210450D01*
X0177801Y0182900D02*
X0187201Y0173500D01*
X0187201Y0170500D01*
X0157201Y0110500D02*
X0166701Y0101000D01*
X0239701Y0101000D01*
X0247201Y0108500D01*
X0247201Y0120600D01*
X0247001Y0120800D01*
X0267001Y0103800D02*
X0267001Y0185900D01*
X0214101Y0238800D01*
X0207401Y0254400D02*
X0124601Y0254400D01*
X0118201Y0248000D01*
X0207401Y0254400D02*
X0270701Y0191100D01*
X0270701Y0102400D01*
X0268501Y0100200D01*
X0268501Y0078400D01*
X0263701Y0073600D01*
X0256901Y0073600D01*
X0242201Y0096000D02*
X0161701Y0096000D01*
X0147201Y0110500D01*
X0137201Y0110500D02*
X0137201Y0098500D01*
X0134701Y0096000D01*
X0024701Y0096000D01*
X0017290Y0103411D01*
X0017290Y0106700D01*
X0020501Y0103600D02*
X0025601Y0098500D01*
X0124701Y0098500D01*
X0127201Y0101000D01*
X0127201Y0110500D01*
X0117201Y0093700D02*
X0116901Y0093400D01*
X0042401Y0093400D01*
X0032012Y0090700D02*
X0110701Y0090700D01*
X0120701Y0080700D01*
X0164701Y0073700D02*
X0231401Y0073700D01*
X0231501Y0073600D01*
X0244101Y0047900D02*
X0232201Y0036000D01*
X0202201Y0036000D01*
X0202101Y0035900D01*
X0177001Y0017900D02*
X0173901Y0021000D01*
X0173701Y0021000D01*
X0177001Y0017900D02*
X0249201Y0017900D01*
X0252501Y0021200D01*
X0252301Y0021000D01*
X0177201Y0056000D02*
X0148901Y0027700D01*
X0148901Y0024400D01*
X0032012Y0090700D02*
X0029001Y0093711D01*
X0020501Y0103600D02*
X0020501Y0119700D01*
X0017290Y0122911D01*
X0017290Y0127300D01*
X0010501Y0144200D02*
X0010501Y0104200D01*
X0010501Y0081400D01*
X0013401Y0078500D01*
X0252201Y0178500D02*
X0254701Y0176000D01*
D12*
X0014701Y0026000D03*
X0031301Y0026800D03*
X0036001Y0030600D03*
X0039601Y0023800D03*
X0043901Y0023800D03*
X0034101Y0014300D03*
X0100001Y0049500D03*
X0076601Y0078289D03*
X0042401Y0093400D03*
X0029001Y0093711D03*
X0017290Y0106700D03*
X0017290Y0127300D03*
X0010501Y0144200D03*
X0029001Y0142800D03*
X0031501Y0149600D03*
X0028701Y0164300D03*
X0024974Y0168500D03*
X0022201Y0163500D03*
X0010501Y0172100D03*
X0006490Y0166100D03*
X0017201Y0196000D03*
X0021801Y0218300D03*
X0067201Y0206000D03*
X0069701Y0196000D03*
X0064701Y0188773D03*
X0074701Y0186000D03*
X0082201Y0183500D03*
X0094701Y0188500D03*
X0084701Y0201000D03*
X0082201Y0221000D03*
X0132201Y0186000D03*
X0161701Y0219500D03*
X0137201Y0238500D03*
X0187201Y0191000D03*
X0189701Y0186000D03*
X0217201Y0193500D03*
X0232201Y0178500D03*
X0254701Y0176000D03*
X0256101Y0182700D03*
X0243101Y0226300D03*
X0241501Y0230100D03*
X0214101Y0238800D03*
X0247001Y0120800D03*
X0267001Y0103800D03*
X0242201Y0096000D03*
X0231501Y0073600D03*
X0232201Y0051000D03*
X0256901Y0073600D03*
X0202101Y0035900D03*
X0177201Y0056000D03*
X0164701Y0073700D03*
X0190801Y0091900D03*
X0197201Y0088500D03*
X0148901Y0024400D03*
X0173701Y0021000D03*
X0120701Y0080700D03*
X0117201Y0093700D03*
X0015001Y0082500D03*
X0252501Y0021200D03*
M02*
